{"glyphs":{"0":{"x_min":51,"x_max":507,"ha":543,"o":"m 256 -5 q 158 -5 105 59 q 51 123 51 242 l 51 242 q 51 343 83 421 q 114 498 171 541 q 227 584 302 584 l 302 584 q 400 584 454 520 q 507 456 507 337 l 507 337 q 507 236 476 159 q 444 81 388 38 q 331 -5 256 -5 l 256 -5 m 266 107 q 320 107 351 167 q 382 227 382 330 l 382 330 q 382 399 359 436 q 336 472 292 472 l 292 472 q 238 472 207 412 q 176 351 176 248 l 176 248 q 176 179 199 143 q 221 107 266 107 l 266 107"},"1":{"x_min":56,"x_max":331,"ha":376,"o":"m 196 -5 q 171 -5 152 10 q 133 25 133 57 l 133 57 l 134 68 q 145 171 161 283 q 176 394 187 454 l 187 454 l 109 432 l 97 430 q 78 430 67 445 q 56 460 56 479 l 56 479 l 57 488 q 59 507 69 519 q 79 531 108 543 q 136 555 193 569 l 193 569 l 235 579 q 258 584 273 584 l 273 584 q 302 584 317 569 q 331 554 331 527 l 331 527 q 331 515 328 501 l 328 501 q 312 423 267 57 l 267 57 q 259 -5 196 -5 l 196 -5"},"2":{"x_min":46,"x_max":519,"ha":560,"o":"m 476 112 q 497 112 508 98 q 519 84 519 63 l 519 63 q 519 37 503 17 q 486 -4 458 -4 l 458 -4 q 410 -4 315 3 l 315 3 q 296 4 245 7 q 194 10 165 10 l 165 10 q 152 10 127 1 l 127 1 q 122 0 108 -4 q 93 -8 83 -8 l 83 -8 q 67 -8 57 7 q 46 21 46 50 l 46 50 q 46 82 61 100 q 76 117 108 131 l 108 131 q 176 161 237 208 q 297 254 334 308 q 370 362 370 411 l 370 411 q 370 450 353 469 q 335 487 297 487 l 297 487 q 253 487 227 463 q 200 439 200 396 l 200 396 q 200 337 141 337 l 141 337 q 113 337 98 353 q 82 369 82 399 l 82 399 q 82 449 108 491 q 134 533 186 559 q 238 584 313 584 l 313 584 q 403 584 454 539 q 505 494 505 414 l 505 414 q 505 338 439 255 q 372 172 247 108 l 247 108 l 476 112"},"3":{"x_min":28,"x_max":486,"ha":520,"o":"m 355 285 q 406 278 441 243 q 475 208 475 155 l 475 155 q 475 104 444 68 q 413 32 361 14 q 308 -5 246 -5 l 246 -5 q 137 -5 83 33 q 28 71 28 128 l 28 128 q 28 161 44 180 q 60 198 87 198 l 87 198 q 110 198 122 187 q 133 175 141 147 l 141 147 q 148 120 170 106 q 192 92 238 92 l 238 92 q 282 92 311 109 q 339 125 339 159 l 339 159 q 339 194 312 211 q 285 227 228 229 l 228 229 q 207 230 197 244 q 186 257 186 276 l 186 276 q 186 300 195 311 q 203 321 224 325 l 224 325 q 290 335 320 364 q 349 392 349 432 l 349 432 q 349 487 273 487 l 273 487 q 189 487 174 421 l 174 421 q 167 394 154 383 q 140 371 116 371 l 116 371 q 89 371 75 387 q 60 402 60 428 l 60 428 q 60 468 88 504 q 116 540 168 562 q 219 584 288 584 l 288 584 q 384 584 435 547 q 486 510 486 437 l 486 437 q 486 389 450 348 q 413 306 355 285 l 355 285"},"4":{"x_min":48,"x_max":552,"ha":577,"o":"m 499 225 q 552 225 552 180 l 552 180 q 552 144 532 130 q 512 116 469 116 l 469 116 l 448 116 l 444 63 q 441 17 425 1 q 408 -15 371 -15 l 371 -15 q 318 -15 318 50 l 318 50 q 318 61 319 67 l 319 67 l 324 116 q 179 116 104 117 l 104 117 q 82 117 65 137 q 48 157 48 189 l 48 189 q 48 208 55 229 l 55 229 q 99 357 187 520 l 187 520 q 206 555 226 570 q 245 584 286 584 l 286 584 q 308 584 320 574 q 331 564 331 548 l 331 548 q 331 531 321 514 l 321 514 q 223 335 183 225 l 183 225 l 337 225 q 349 318 370 402 l 370 402 q 378 433 396 450 q 414 466 446 466 l 446 466 q 497 466 497 422 l 497 422 q 497 409 495 402 l 495 402 q 477 317 463 225 l 463 225 l 499 225"},"5":{"x_min":46,"x_max":500,"ha":518,"o":"m 284 477 q 255 477 242 476 l 242 476 q 229 432 213 356 l 213 356 q 342 349 409 303 q 476 257 476 178 l 476 178 q 476 126 450 85 q 423 43 372 19 q 321 -5 252 -5 l 252 -5 q 159 -5 103 31 q 46 67 46 128 l 46 128 q 46 161 62 180 q 77 198 105 198 l 105 198 q 127 198 139 187 q 151 175 159 147 l 159 147 q 176 86 262 86 l 262 86 q 299 86 323 109 q 347 131 347 164 l 347 164 q 347 252 160 258 l 160 258 q 120 259 103 271 q 85 283 85 308 l 85 308 q 85 320 88 333 l 88 333 l 99 381 q 105 410 119 470 l 119 470 l 117 470 q 97 470 85 480 q 73 489 73 506 l 73 506 q 73 555 121 570 l 121 570 q 166 584 283 584 l 283 584 q 367 584 405 582 q 443 579 464 574 l 464 574 q 484 569 492 561 q 500 552 500 535 l 500 535 q 500 501 487 487 q 473 472 441 472 l 441 472 q 425 472 379 474 l 379 474 q 295 477 284 477 l 284 477"},"6":{"x_min":50,"x_max":515,"ha":541,"o":"m 320 485 q 262 485 226 440 q 189 394 180 304 l 180 304 q 206 334 239 347 q 272 359 312 359 l 312 359 q 362 359 402 338 q 441 317 463 280 q 485 242 485 196 l 485 196 q 485 139 459 94 q 432 48 382 22 q 331 -5 262 -5 l 262 -5 q 159 -5 105 60 q 50 124 50 238 l 50 238 q 50 340 85 419 q 119 497 183 541 q 246 584 331 584 l 331 584 q 408 584 458 549 q 507 513 514 455 l 514 455 l 515 444 q 515 418 499 404 q 482 389 452 389 l 452 389 q 430 389 417 401 q 403 412 393 440 l 393 440 q 385 461 367 473 q 348 485 320 485 l 320 485 m 282 259 q 239 259 215 235 q 191 211 191 171 l 191 171 q 191 135 211 114 q 231 93 267 93 l 267 93 q 307 93 332 119 q 356 144 356 185 l 356 185 q 356 219 336 239 q 316 259 282 259 l 282 259"},"7":{"x_min":45,"x_max":518,"ha":497,"o":"m 481 582 q 497 582 508 568 q 518 553 518 524 l 518 524 q 518 497 507 484 q 496 470 480 459 q 463 448 456 443 l 456 443 q 350 370 309 276 q 267 182 258 75 l 258 75 q 254 33 236 14 q 217 -5 189 -5 l 189 -5 q 161 -5 142 15 q 123 34 123 83 l 123 83 q 123 140 145 209 q 166 277 214 345 q 261 413 334 466 l 334 466 l 88 462 q 67 462 56 476 q 45 490 45 511 l 45 511 q 45 537 62 558 q 78 578 106 578 l 106 578 q 155 578 249 571 l 249 571 q 268 570 319 567 q 370 564 399 564 l 399 564 q 412 564 437 573 l 437 573 q 442 574 457 578 q 471 582 481 582 l 481 582"},"8":{"x_min":40,"x_max":488,"ha":512,"o":"m 378 297 q 476 247 476 163 l 476 163 q 476 113 448 75 q 419 37 367 16 q 315 -5 246 -5 l 246 -5 q 149 -5 95 33 q 40 71 40 139 l 40 139 q 40 182 66 218 q 92 254 150 285 l 150 285 q 114 309 96 343 q 77 376 77 413 l 77 413 q 77 493 137 539 q 197 584 300 584 l 300 584 q 385 584 437 547 q 488 510 488 447 l 488 447 q 488 401 462 365 q 436 328 378 297 l 378 297 m 292 487 q 250 487 225 470 q 200 452 200 419 l 200 419 q 200 374 276 339 l 276 339 q 327 364 348 386 q 368 408 368 432 l 368 432 q 368 487 292 487 l 292 487 m 251 92 q 298 92 325 108 q 352 124 352 152 l 352 152 q 352 174 329 194 q 305 214 242 242 l 242 242 q 196 221 178 199 q 160 177 160 151 l 160 151 q 160 123 185 108 q 209 92 251 92 l 251 92"},"9":{"x_min":40,"x_max":505,"ha":541,"o":"m 293 584 q 396 584 451 520 q 505 455 505 341 l 505 341 q 505 239 471 161 q 436 82 373 39 q 309 -5 224 -5 l 224 -5 q 147 -5 98 31 q 48 66 41 124 l 41 124 l 40 135 q 40 161 57 176 q 73 190 103 190 l 103 190 q 125 190 139 179 q 152 167 162 139 l 162 139 q 170 118 189 106 q 207 94 235 94 l 235 94 q 293 94 330 140 q 366 185 375 275 l 375 275 q 349 245 316 233 q 283 220 243 220 l 243 220 q 193 220 154 241 q 114 262 92 300 q 70 337 70 383 l 70 383 q 70 440 97 486 q 123 531 174 558 q 224 584 293 584 l 293 584 m 273 320 q 316 320 340 344 q 364 368 364 408 l 364 408 q 364 444 344 465 q 324 486 288 486 l 288 486 q 248 486 224 461 q 199 435 199 394 l 199 394 q 199 360 219 340 q 239 320 273 320 l 273 320"},"\r":{"x_min":0,"x_max":0,"ha":265,"o":""}," ":{"x_min":0,"x_max":0,"ha":265,"o":""},"A":{"x_min":56,"x_max":915,"ha":786,"o":"m 300 -5 q 231 -5 176 29 q 120 63 88 128 q 56 192 56 280 l 56 280 q 56 432 121 562 q 186 691 313 770 q 440 848 618 848 l 618 848 q 664 848 717 841 q 769 834 812 820 l 812 820 q 840 812 840 780 l 840 780 q 840 754 821 731 q 801 708 775 708 l 775 708 q 767 708 763 709 l 763 709 q 711 721 674 727 q 637 732 596 732 l 596 732 q 469 732 380 671 q 291 609 247 508 q 203 407 203 290 l 203 290 q 203 205 237 159 q 270 112 324 112 l 324 112 q 385 112 431 162 q 477 212 515 324 q 553 436 590 628 l 590 628 q 596 656 614 666 q 632 676 662 676 l 662 676 q 733 676 733 630 l 733 630 q 733 622 730 610 l 730 610 q 704 513 683 396 q 661 278 661 217 l 661 217 q 661 163 677 139 q 693 114 726 114 l 726 114 q 758 114 787 136 q 816 157 860 209 l 860 209 q 872 223 887 223 l 887 223 q 900 223 908 211 q 915 199 915 178 l 915 178 q 915 139 896 116 l 896 116 q 847 57 800 26 q 753 -5 685 -5 l 685 -5 q 615 -5 572 36 q 529 76 518 150 l 518 150 q 444 -5 300 -5 l 300 -5"},"Á":{"x_min":56,"x_max":915,"ha":786,"o":"m 300 -5 q 231 -5 176 29 q 120 63 88 128 q 56 192 56 280 l 56 280 q 56 432 121 562 q 186 691 313 770 q 440 848 618 848 l 618 848 q 664 848 717 841 q 769 834 812 820 l 812 820 q 840 812 840 780 l 840 780 q 840 754 821 731 q 801 708 775 708 l 775 708 q 767 708 763 709 l 763 709 q 711 721 674 727 q 637 732 596 732 l 596 732 q 469 732 380 671 q 291 609 247 508 q 203 407 203 290 l 203 290 q 203 205 237 159 q 270 112 324 112 l 324 112 q 385 112 431 162 q 477 212 515 324 q 553 436 590 628 l 590 628 q 596 656 614 666 q 632 676 662 676 l 662 676 q 733 676 733 630 l 733 630 q 733 622 730 610 l 730 610 q 704 513 683 396 q 661 278 661 217 l 661 217 q 661 163 677 139 q 693 114 726 114 l 726 114 q 758 114 787 136 q 816 157 860 209 l 860 209 q 872 223 887 223 l 887 223 q 900 223 908 211 q 915 199 915 178 l 915 178 q 915 139 896 116 l 896 116 q 847 57 800 26 q 753 -5 685 -5 l 685 -5 q 615 -5 572 36 q 529 76 518 150 l 518 150 q 444 -5 300 -5 l 300 -5 m 600 912 q 584 912 573 923 q 562 933 562 948 l 562 948 q 562 968 581 984 l 581 984 l 753 1131 q 773 1148 797 1148 l 797 1148 q 823 1148 842 1130 q 861 1111 861 1085 l 861 1085 q 861 1042 808 1014 l 808 1014 l 621 917 q 612 912 600 912 l 600 912"},"Ă":{"x_min":56,"x_max":915,"ha":786,"o":"m 300 -5 q 231 -5 176 29 q 120 63 88 128 q 56 192 56 280 l 56 280 q 56 432 121 562 q 186 691 313 770 q 440 848 618 848 l 618 848 q 664 848 717 841 q 769 834 812 820 l 812 820 q 840 812 840 780 l 840 780 q 840 754 821 731 q 801 708 775 708 l 775 708 q 767 708 763 709 l 763 709 q 711 721 674 727 q 637 732 596 732 l 596 732 q 469 732 380 671 q 291 609 247 508 q 203 407 203 290 l 203 290 q 203 205 237 159 q 270 112 324 112 l 324 112 q 385 112 431 162 q 477 212 515 324 q 553 436 590 628 l 590 628 q 596 656 614 666 q 632 676 662 676 l 662 676 q 733 676 733 630 l 733 630 q 733 622 730 610 l 730 610 q 704 513 683 396 q 661 278 661 217 l 661 217 q 661 163 677 139 q 693 114 726 114 l 726 114 q 758 114 787 136 q 816 157 860 209 l 860 209 q 872 223 887 223 l 887 223 q 900 223 908 211 q 915 199 915 178 l 915 178 q 915 139 896 116 l 896 116 q 847 57 800 26 q 753 -5 685 -5 l 685 -5 q 615 -5 572 36 q 529 76 518 150 l 518 150 q 444 -5 300 -5 l 300 -5 m 606 912 q 544 912 499 933 q 453 953 430 986 q 406 1018 406 1052 l 406 1052 q 406 1073 423 1085 q 440 1097 465 1097 l 465 1097 q 485 1097 497 1090 q 508 1082 516 1064 l 516 1064 q 531 1032 553 1020 q 575 1008 614 1008 l 614 1008 q 653 1008 677 1023 q 701 1037 721 1067 l 721 1067 q 741 1097 778 1097 l 778 1097 q 797 1097 809 1087 q 821 1077 821 1059 l 821 1059 q 821 1027 795 993 q 769 958 720 935 q 671 912 606 912 l 606 912"},"Ắ":{"x_min":56,"x_max":915,"ha":786,"o":"m 300 -5 q 231 -5 176 29 q 120 63 88 128 q 56 192 56 280 l 56 280 q 56 432 121 562 q 186 691 313 770 q 440 848 618 848 l 618 848 q 664 848 717 841 q 769 834 812 820 l 812 820 q 840 812 840 780 l 840 780 q 840 754 821 731 q 801 708 775 708 l 775 708 q 767 708 763 709 l 763 709 q 711 721 674 727 q 637 732 596 732 l 596 732 q 469 732 380 671 q 291 609 247 508 q 203 407 203 290 l 203 290 q 203 205 237 159 q 270 112 324 112 l 324 112 q 385 112 431 162 q 477 212 515 324 q 553 436 590 628 l 590 628 q 596 656 614 666 q 632 676 662 676 l 662 676 q 733 676 733 630 l 733 630 q 733 622 730 610 l 730 610 q 704 513 683 396 q 661 278 661 217 l 661 217 q 661 163 677 139 q 693 114 726 114 l 726 114 q 758 114 787 136 q 816 157 860 209 l 860 209 q 872 223 887 223 l 887 223 q 900 223 908 211 q 915 199 915 178 l 915 178 q 915 139 896 116 l 896 116 q 847 57 800 26 q 753 -5 685 -5 l 685 -5 q 615 -5 572 36 q 529 76 518 150 l 518 150 q 444 -5 300 -5 l 300 -5 m 621 1085 q 607 1085 598 1094 q 589 1103 589 1116 l 589 1116 q 589 1130 605 1146 l 605 1146 l 684 1225 q 700 1241 721 1241 l 721 1241 q 743 1241 760 1225 q 776 1208 776 1186 l 776 1186 q 776 1168 766 1152 q 755 1136 731 1126 l 731 1126 l 639 1089 q 627 1085 621 1085 l 621 1085 m 606 912 q 544 912 499 933 q 453 953 430 986 q 406 1018 406 1052 l 406 1052 q 406 1073 423 1085 q 440 1097 465 1097 l 465 1097 q 485 1097 497 1090 q 508 1082 516 1064 l 516 1064 q 531 1032 553 1020 q 575 1008 614 1008 l 614 1008 q 653 1008 677 1023 q 701 1037 721 1067 l 721 1067 q 741 1097 778 1097 l 778 1097 q 797 1097 809 1087 q 821 1077 821 1059 l 821 1059 q 821 1027 795 993 q 769 958 720 935 q 671 912 606 912 l 606 912"},"Ặ":{"x_min":56,"x_max":915,"ha":786,"o":"m 300 -5 q 231 -5 176 29 q 120 63 88 128 q 56 192 56 280 l 56 280 q 56 432 121 562 q 186 691 313 770 q 440 848 618 848 l 618 848 q 664 848 717 841 q 769 834 812 820 l 812 820 q 840 812 840 780 l 840 780 q 840 754 821 731 q 801 708 775 708 l 775 708 q 767 708 763 709 l 763 709 q 711 721 674 727 q 637 732 596 732 l 596 732 q 469 732 380 671 q 291 609 247 508 q 203 407 203 290 l 203 290 q 203 205 237 159 q 270 112 324 112 l 324 112 q 385 112 431 162 q 477 212 515 324 q 553 436 590 628 l 590 628 q 596 656 614 666 q 632 676 662 676 l 662 676 q 733 676 733 630 l 733 630 q 733 622 730 610 l 730 610 q 704 513 683 396 q 661 278 661 217 l 661 217 q 661 163 677 139 q 693 114 726 114 l 726 114 q 758 114 787 136 q 816 157 860 209 l 860 209 q 872 223 887 223 l 887 223 q 900 223 908 211 q 915 199 915 178 l 915 178 q 915 139 896 116 l 896 116 q 847 57 800 26 q 753 -5 685 -5 l 685 -5 q 615 -5 572 36 q 529 76 518 150 l 518 150 q 444 -5 300 -5 l 300 -5 m 358 -232 q 316 -232 294 -211 q 272 -191 272 -156 l 272 -156 q 272 -120 301 -96 q 329 -72 370 -72 l 370 -72 q 408 -72 432 -90 q 455 -109 455 -143 l 455 -143 q 455 -184 428 -208 q 401 -232 358 -232 l 358 -232 m 606 912 q 544 912 499 933 q 453 953 430 986 q 406 1018 406 1052 l 406 1052 q 406 1073 423 1085 q 440 1097 465 1097 l 465 1097 q 485 1097 497 1090 q 508 1082 516 1064 l 516 1064 q 531 1032 553 1020 q 575 1008 614 1008 l 614 1008 q 653 1008 677 1023 q 701 1037 721 1067 l 721 1067 q 741 1097 778 1097 l 778 1097 q 797 1097 809 1087 q 821 1077 821 1059 l 821 1059 q 821 1027 795 993 q 769 958 720 935 q 671 912 606 912 l 606 912"},"Ằ":{"x_min":56,"x_max":915,"ha":786,"o":"m 300 -5 q 231 -5 176 29 q 120 63 88 128 q 56 192 56 280 l 56 280 q 56 432 121 562 q 186 691 313 770 q 440 848 618 848 l 618 848 q 664 848 717 841 q 769 834 812 820 l 812 820 q 840 812 840 780 l 840 780 q 840 754 821 731 q 801 708 775 708 l 775 708 q 767 708 763 709 l 763 709 q 711 721 674 727 q 637 732 596 732 l 596 732 q 469 732 380 671 q 291 609 247 508 q 203 407 203 290 l 203 290 q 203 205 237 159 q 270 112 324 112 l 324 112 q 385 112 431 162 q 477 212 515 324 q 553 436 590 628 l 590 628 q 596 656 614 666 q 632 676 662 676 l 662 676 q 733 676 733 630 l 733 630 q 733 622 730 610 l 730 610 q 704 513 683 396 q 661 278 661 217 l 661 217 q 661 163 677 139 q 693 114 726 114 l 726 114 q 758 114 787 136 q 816 157 860 209 l 860 209 q 872 223 887 223 l 887 223 q 900 223 908 211 q 915 199 915 178 l 915 178 q 915 139 896 116 l 896 116 q 847 57 800 26 q 753 -5 685 -5 l 685 -5 q 615 -5 572 36 q 529 76 518 150 l 518 150 q 444 -5 300 -5 l 300 -5 m 630 1085 q 624 1085 612 1089 l 612 1089 l 520 1126 q 496 1136 486 1152 q 475 1168 475 1186 l 475 1186 q 475 1208 492 1225 q 508 1241 530 1241 l 530 1241 q 551 1241 567 1225 l 567 1225 l 646 1146 q 662 1130 662 1116 l 662 1116 q 662 1103 653 1094 q 644 1085 630 1085 l 630 1085 m 606 912 q 544 912 499 933 q 453 953 430 986 q 406 1018 406 1052 l 406 1052 q 406 1073 423 1085 q 440 1097 465 1097 l 465 1097 q 485 1097 497 1090 q 508 1082 516 1064 l 516 1064 q 531 1032 553 1020 q 575 1008 614 1008 l 614 1008 q 653 1008 677 1023 q 701 1037 721 1067 l 721 1067 q 741 1097 778 1097 l 778 1097 q 797 1097 809 1087 q 821 1077 821 1059 l 821 1059 q 821 1027 795 993 q 769 958 720 935 q 671 912 606 912 l 606 912"},"Ẳ":{"x_min":56,"x_max":915,"ha":786,"o":"m 300 -5 q 231 -5 176 29 q 120 63 88 128 q 56 192 56 280 l 56 280 q 56 432 121 562 q 186 691 313 770 q 440 848 618 848 l 618 848 q 664 848 717 841 q 769 834 812 820 l 812 820 q 840 812 840 780 l 840 780 q 840 754 821 731 q 801 708 775 708 l 775 708 q 767 708 763 709 l 763 709 q 711 721 674 727 q 637 732 596 732 l 596 732 q 469 732 380 671 q 291 609 247 508 q 203 407 203 290 l 203 290 q 203 205 237 159 q 270 112 324 112 l 324 112 q 385 112 431 162 q 477 212 515 324 q 553 436 590 628 l 590 628 q 596 656 614 666 q 632 676 662 676 l 662 676 q 733 676 733 630 l 733 630 q 733 622 730 610 l 730 610 q 704 513 683 396 q 661 278 661 217 l 661 217 q 661 163 677 139 q 693 114 726 114 l 726 114 q 758 114 787 136 q 816 157 860 209 l 860 209 q 872 223 887 223 l 887 223 q 900 223 908 211 q 915 199 915 178 l 915 178 q 915 139 896 116 l 896 116 q 847 57 800 26 q 753 -5 685 -5 l 685 -5 q 615 -5 572 36 q 529 76 518 150 l 518 150 q 444 -5 300 -5 l 300 -5 m 587 1076 q 568 1076 560 1084 q 552 1092 553 1109 l 553 1109 q 553 1147 593 1147 l 593 1147 q 618 1147 631 1157 q 644 1167 644 1182 l 644 1182 q 644 1214 604 1214 l 604 1214 q 588 1214 570 1212 q 551 1210 547 1210 l 547 1210 q 533 1210 528 1217 q 523 1223 523 1241 l 523 1241 q 523 1259 533 1268 q 542 1276 562 1280 l 562 1280 q 578 1284 606 1284 l 606 1284 q 725 1284 725 1192 l 725 1192 q 725 1138 692 1107 q 658 1076 599 1076 l 599 1076 l 587 1076 m 606 912 q 544 912 499 933 q 453 953 430 986 q 406 1018 406 1052 l 406 1052 q 406 1073 423 1085 q 440 1097 465 1097 l 465 1097 q 485 1097 497 1090 q 508 1082 516 1064 l 516 1064 q 531 1032 553 1020 q 575 1008 614 1008 l 614 1008 q 653 1008 677 1023 q 701 1037 721 1067 l 721 1067 q 741 1097 778 1097 l 778 1097 q 797 1097 809 1087 q 821 1077 821 1059 l 821 1059 q 821 1027 795 993 q 769 958 720 935 q 671 912 606 912 l 606 912"},"Ẵ":{"x_min":56,"x_max":915,"ha":786,"o":"m 300 -5 q 231 -5 176 29 q 120 63 88 128 q 56 192 56 280 l 56 280 q 56 432 121 562 q 186 691 313 770 q 440 848 618 848 l 618 848 q 664 848 717 841 q 769 834 812 820 l 812 820 q 840 812 840 780 l 840 780 q 840 754 821 731 q 801 708 775 708 l 775 708 q 767 708 763 709 l 763 709 q 711 721 674 727 q 637 732 596 732 l 596 732 q 469 732 380 671 q 291 609 247 508 q 203 407 203 290 l 203 290 q 203 205 237 159 q 270 112 324 112 l 324 112 q 385 112 431 162 q 477 212 515 324 q 553 436 590 628 l 590 628 q 596 656 614 666 q 632 676 662 676 l 662 676 q 733 676 733 630 l 733 630 q 733 622 730 610 l 730 610 q 704 513 683 396 q 661 278 661 217 l 661 217 q 661 163 677 139 q 693 114 726 114 l 726 114 q 758 114 787 136 q 816 157 860 209 l 860 209 q 872 223 887 223 l 887 223 q 900 223 908 211 q 915 199 915 178 l 915 178 q 915 139 896 116 l 896 116 q 847 57 800 26 q 753 -5 685 -5 l 685 -5 q 615 -5 572 36 q 529 76 518 150 l 518 150 q 444 -5 300 -5 l 300 -5 m 713 1111 q 698 1111 686 1116 q 673 1121 654 1134 l 654 1134 l 558 1201 l 518 1144 q 503 1124 476 1124 l 476 1124 q 459 1124 447 1134 q 435 1143 435 1159 l 435 1159 q 435 1184 468 1232 l 468 1232 q 507 1290 556 1290 l 556 1290 q 571 1290 583 1286 q 595 1281 615 1267 l 615 1267 l 711 1200 l 751 1257 q 766 1277 793 1277 l 793 1277 q 810 1277 822 1268 q 834 1258 834 1241 l 834 1241 q 834 1229 827 1215 q 820 1200 801 1168 l 801 1168 q 765 1111 713 1111 l 713 1111 m 606 912 q 544 912 499 933 q 453 953 430 986 q 406 1018 406 1052 l 406 1052 q 406 1073 423 1085 q 440 1097 465 1097 l 465 1097 q 485 1097 497 1090 q 508 1082 516 1064 l 516 1064 q 531 1032 553 1020 q 575 1008 614 1008 l 614 1008 q 653 1008 677 1023 q 701 1037 721 1067 l 721 1067 q 741 1097 778 1097 l 778 1097 q 797 1097 809 1087 q 821 1077 821 1059 l 821 1059 q 821 1027 795 993 q 769 958 720 935 q 671 912 606 912 l 606 912"},"Â":{"x_min":56,"x_max":915,"ha":786,"o":"m 300 -5 q 231 -5 176 29 q 120 63 88 128 q 56 192 56 280 l 56 280 q 56 432 121 562 q 186 691 313 770 q 440 848 618 848 l 618 848 q 664 848 717 841 q 769 834 812 820 l 812 820 q 840 812 840 780 l 840 780 q 840 754 821 731 q 801 708 775 708 l 775 708 q 767 708 763 709 l 763 709 q 711 721 674 727 q 637 732 596 732 l 596 732 q 469 732 380 671 q 291 609 247 508 q 203 407 203 290 l 203 290 q 203 205 237 159 q 270 112 324 112 l 324 112 q 385 112 431 162 q 477 212 515 324 q 553 436 590 628 l 590 628 q 596 656 614 666 q 632 676 662 676 l 662 676 q 733 676 733 630 l 733 630 q 733 622 730 610 l 730 610 q 704 513 683 396 q 661 278 661 217 l 661 217 q 661 163 677 139 q 693 114 726 114 l 726 114 q 758 114 787 136 q 816 157 860 209 l 860 209 q 872 223 887 223 l 887 223 q 900 223 908 211 q 915 199 915 178 l 915 178 q 915 139 896 116 l 896 116 q 847 57 800 26 q 753 -5 685 -5 l 685 -5 q 615 -5 572 36 q 529 76 518 150 l 518 150 q 444 -5 300 -5 l 300 -5 m 665 948 l 624 1093 l 544 951 q 533 931 515 921 q 497 911 478 911 l 478 911 q 457 911 442 923 q 427 934 427 953 l 427 953 q 427 970 440 990 l 440 990 l 532 1127 q 569 1183 637 1183 l 637 1183 q 668 1183 687 1167 q 705 1151 720 1114 l 720 1114 l 767 993 q 773 978 773 965 l 773 965 q 773 941 756 927 q 739 912 716 912 l 716 912 q 699 912 685 922 q 670 931 665 948 l 665 948"},"Ấ":{"x_min":56,"x_max":915,"ha":786,"o":"m 300 -5 q 231 -5 176 29 q 120 63 88 128 q 56 192 56 280 l 56 280 q 56 432 121 562 q 186 691 313 770 q 440 848 618 848 l 618 848 q 664 848 717 841 q 769 834 812 820 l 812 820 q 840 812 840 780 l 840 780 q 840 754 821 731 q 801 708 775 708 l 775 708 q 767 708 763 709 l 763 709 q 711 721 674 727 q 637 732 596 732 l 596 732 q 469 732 380 671 q 291 609 247 508 q 203 407 203 290 l 203 290 q 203 205 237 159 q 270 112 324 112 l 324 112 q 385 112 431 162 q 477 212 515 324 q 553 436 590 628 l 590 628 q 596 656 614 666 q 632 676 662 676 l 662 676 q 733 676 733 630 l 733 630 q 733 622 730 610 l 730 610 q 704 513 683 396 q 661 278 661 217 l 661 217 q 661 163 677 139 q 693 114 726 114 l 726 114 q 758 114 787 136 q 816 157 860 209 l 860 209 q 872 223 887 223 l 887 223 q 900 223 908 211 q 915 199 915 178 l 915 178 q 915 139 896 116 l 896 116 q 847 57 800 26 q 753 -5 685 -5 l 685 -5 q 615 -5 572 36 q 529 76 518 150 l 518 150 q 444 -5 300 -5 l 300 -5 m 665 948 l 624 1093 l 544 951 q 533 931 515 921 q 497 911 478 911 l 478 911 q 457 911 442 923 q 427 934 427 953 l 427 953 q 427 970 440 990 l 440 990 l 532 1127 q 569 1183 637 1183 l 637 1183 q 668 1183 687 1167 q 705 1151 720 1114 l 720 1114 l 767 993 q 773 978 773 965 l 773 965 q 773 941 756 927 q 739 912 716 912 l 716 912 q 699 912 685 922 q 670 931 665 948 l 665 948 m 640 1233 q 624 1233 613 1244 q 602 1254 602 1269 l 602 1269 q 602 1289 621 1305 l 621 1305 l 793 1452 q 813 1469 837 1469 l 837 1469 q 863 1469 882 1451 q 901 1432 901 1406 l 901 1406 q 901 1363 848 1335 l 848 1335 l 661 1238 q 652 1233 640 1233 l 640 1233"},"Ậ":{"x_min":56,"x_max":915,"ha":786,"o":"m 300 -5 q 231 -5 176 29 q 120 63 88 128 q 56 192 56 280 l 56 280 q 56 432 121 562 q 186 691 313 770 q 440 848 618 848 l 618 848 q 664 848 717 841 q 769 834 812 820 l 812 820 q 840 812 840 780 l 840 780 q 840 754 821 731 q 801 708 775 708 l 775 708 q 767 708 763 709 l 763 709 q 711 721 674 727 q 637 732 596 732 l 596 732 q 469 732 380 671 q 291 609 247 508 q 203 407 203 290 l 203 290 q 203 205 237 159 q 270 112 324 112 l 324 112 q 385 112 431 162 q 477 212 515 324 q 553 436 590 628 l 590 628 q 596 656 614 666 q 632 676 662 676 l 662 676 q 733 676 733 630 l 733 630 q 733 622 730 610 l 730 610 q 704 513 683 396 q 661 278 661 217 l 661 217 q 661 163 677 139 q 693 114 726 114 l 726 114 q 758 114 787 136 q 816 157 860 209 l 860 209 q 872 223 887 223 l 887 223 q 900 223 908 211 q 915 199 915 178 l 915 178 q 915 139 896 116 l 896 116 q 847 57 800 26 q 753 -5 685 -5 l 685 -5 q 615 -5 572 36 q 529 76 518 150 l 518 150 q 444 -5 300 -5 l 300 -5 m 358 -232 q 316 -232 294 -211 q 272 -191 272 -156 l 272 -156 q 272 -120 301 -96 q 329 -72 370 -72 l 370 -72 q 408 -72 432 -90 q 455 -109 455 -143 l 455 -143 q 455 -184 428 -208 q 401 -232 358 -232 l 358 -232 m 665 948 l 624 1093 l 544 951 q 533 931 515 921 q 497 911 478 911 l 478 911 q 457 911 442 923 q 427 934 427 953 l 427 953 q 427 970 440 990 l 440 990 l 532 1127 q 569 1183 637 1183 l 637 1183 q 668 1183 687 1167 q 705 1151 720 1114 l 720 1114 l 767 993 q 773 978 773 965 l 773 965 q 773 941 756 927 q 739 912 716 912 l 716 912 q 699 912 685 922 q 670 931 665 948 l 665 948"},"Ầ":{"x_min":56,"x_max":915,"ha":786,"o":"m 300 -5 q 231 -5 176 29 q 120 63 88 128 q 56 192 56 280 l 56 280 q 56 432 121 562 q 186 691 313 770 q 440 848 618 848 l 618 848 q 664 848 717 841 q 769 834 812 820 l 812 820 q 840 812 840 780 l 840 780 q 840 754 821 731 q 801 708 775 708 l 775 708 q 767 708 763 709 l 763 709 q 711 721 674 727 q 637 732 596 732 l 596 732 q 469 732 380 671 q 291 609 247 508 q 203 407 203 290 l 203 290 q 203 205 237 159 q 270 112 324 112 l 324 112 q 385 112 431 162 q 477 212 515 324 q 553 436 590 628 l 590 628 q 596 656 614 666 q 632 676 662 676 l 662 676 q 733 676 733 630 l 733 630 q 733 622 730 610 l 730 610 q 704 513 683 396 q 661 278 661 217 l 661 217 q 661 163 677 139 q 693 114 726 114 l 726 114 q 758 114 787 136 q 816 157 860 209 l 860 209 q 872 223 887 223 l 887 223 q 900 223 908 211 q 915 199 915 178 l 915 178 q 915 139 896 116 l 896 116 q 847 57 800 26 q 753 -5 685 -5 l 685 -5 q 615 -5 572 36 q 529 76 518 150 l 518 150 q 444 -5 300 -5 l 300 -5 m 665 948 l 624 1093 l 544 951 q 533 931 515 921 q 497 911 478 911 l 478 911 q 457 911 442 923 q 427 934 427 953 l 427 953 q 427 970 440 990 l 440 990 l 532 1127 q 569 1183 637 1183 l 637 1183 q 668 1183 687 1167 q 705 1151 720 1114 l 720 1114 l 767 993 q 773 978 773 965 l 773 965 q 773 941 756 927 q 739 912 716 912 l 716 912 q 699 912 685 922 q 670 931 665 948 l 665 948 m 627 1233 q 615 1233 606 1238 l 606 1238 l 419 1335 q 366 1363 366 1406 l 366 1406 q 366 1432 385 1451 q 404 1469 430 1469 l 430 1469 q 454 1469 474 1452 l 474 1452 l 646 1305 q 665 1289 665 1269 l 665 1269 q 665 1254 654 1244 q 643 1233 627 1233 l 627 1233"},"Ẩ":{"x_min":56,"x_max":915,"ha":786,"o":"m 300 -5 q 231 -5 176 29 q 120 63 88 128 q 56 192 56 280 l 56 280 q 56 432 121 562 q 186 691 313 770 q 440 848 618 848 l 618 848 q 664 848 717 841 q 769 834 812 820 l 812 820 q 840 812 840 780 l 840 780 q 840 754 821 731 q 801 708 775 708 l 775 708 q 767 708 763 709 l 763 709 q 711 721 674 727 q 637 732 596 732 l 596 732 q 469 732 380 671 q 291 609 247 508 q 203 407 203 290 l 203 290 q 203 205 237 159 q 270 112 324 112 l 324 112 q 385 112 431 162 q 477 212 515 324 q 553 436 590 628 l 590 628 q 596 656 614 666 q 632 676 662 676 l 662 676 q 733 676 733 630 l 733 630 q 733 622 730 610 l 730 610 q 704 513 683 396 q 661 278 661 217 l 661 217 q 661 163 677 139 q 693 114 726 114 l 726 114 q 758 114 787 136 q 816 157 860 209 l 860 209 q 872 223 887 223 l 887 223 q 900 223 908 211 q 915 199 915 178 l 915 178 q 915 139 896 116 l 896 116 q 847 57 800 26 q 753 -5 685 -5 l 685 -5 q 615 -5 572 36 q 529 76 518 150 l 518 150 q 444 -5 300 -5 l 300 -5 m 665 948 l 624 1093 l 544 951 q 533 931 515 921 q 497 911 478 911 l 478 911 q 457 911 442 923 q 427 934 427 953 l 427 953 q 427 970 440 990 l 440 990 l 532 1127 q 569 1183 637 1183 l 637 1183 q 668 1183 687 1167 q 705 1151 720 1114 l 720 1114 l 767 993 q 773 978 773 965 l 773 965 q 773 941 756 927 q 739 912 716 912 l 716 912 q 699 912 685 922 q 670 931 665 948 l 665 948 m 628 1233 q 606 1233 597 1242 q 588 1251 588 1269 l 588 1269 q 588 1296 601 1306 q 614 1316 636 1316 l 636 1316 q 665 1316 680 1328 q 695 1340 695 1358 l 695 1358 q 695 1375 684 1385 q 672 1395 648 1395 l 648 1395 q 630 1395 608 1393 q 586 1390 581 1390 l 581 1390 q 565 1390 559 1398 q 553 1406 553 1427 l 553 1427 q 553 1448 565 1458 q 576 1468 599 1473 l 599 1473 q 623 1478 651 1478 l 651 1478 q 791 1478 791 1369 l 791 1369 q 791 1306 752 1270 q 712 1233 643 1233 l 643 1233 l 628 1233"},"Ẫ":{"x_min":56,"x_max":915,"ha":786,"o":"m 300 -5 q 231 -5 176 29 q 120 63 88 128 q 56 192 56 280 l 56 280 q 56 432 121 562 q 186 691 313 770 q 440 848 618 848 l 618 848 q 664 848 717 841 q 769 834 812 820 l 812 820 q 840 812 840 780 l 840 780 q 840 754 821 731 q 801 708 775 708 l 775 708 q 767 708 763 709 l 763 709 q 711 721 674 727 q 637 732 596 732 l 596 732 q 469 732 380 671 q 291 609 247 508 q 203 407 203 290 l 203 290 q 203 205 237 159 q 270 112 324 112 l 324 112 q 385 112 431 162 q 477 212 515 324 q 553 436 590 628 l 590 628 q 596 656 614 666 q 632 676 662 676 l 662 676 q 733 676 733 630 l 733 630 q 733 622 730 610 l 730 610 q 704 513 683 396 q 661 278 661 217 l 661 217 q 661 163 677 139 q 693 114 726 114 l 726 114 q 758 114 787 136 q 816 157 860 209 l 860 209 q 872 223 887 223 l 887 223 q 900 223 908 211 q 915 199 915 178 l 915 178 q 915 139 896 116 l 896 116 q 847 57 800 26 q 753 -5 685 -5 l 685 -5 q 615 -5 572 36 q 529 76 518 150 l 518 150 q 444 -5 300 -5 l 300 -5 m 665 948 l 624 1093 l 544 951 q 533 931 515 921 q 497 911 478 911 l 478 911 q 457 911 442 923 q 427 934 427 953 l 427 953 q 427 970 440 990 l 440 990 l 532 1127 q 569 1183 637 1183 l 637 1183 q 668 1183 687 1167 q 705 1151 720 1114 l 720 1114 l 767 993 q 773 978 773 965 l 773 965 q 773 941 756 927 q 739 912 716 912 l 716 912 q 699 912 685 922 q 670 931 665 948 l 665 948 m 741 1233 q 725 1233 711 1239 q 697 1244 675 1259 l 675 1259 l 568 1333 l 524 1270 q 516 1259 504 1254 q 491 1248 478 1248 l 478 1248 q 459 1248 446 1258 q 432 1268 432 1287 l 432 1287 q 432 1314 469 1368 l 469 1368 q 513 1432 566 1432 l 566 1432 q 583 1432 597 1427 q 610 1422 632 1406 l 632 1406 l 739 1332 l 783 1395 q 791 1406 804 1412 q 816 1417 829 1417 l 829 1417 q 848 1417 862 1407 q 875 1397 875 1378 l 875 1378 q 875 1365 867 1349 q 859 1332 838 1297 l 838 1297 q 818 1264 793 1249 q 768 1233 741 1233 l 741 1233"},"Ȁ":{"x_min":56,"x_max":915,"ha":786,"o":"m 300 -5 q 231 -5 176 29 q 120 63 88 128 q 56 192 56 280 l 56 280 q 56 432 121 562 q 186 691 313 770 q 440 848 618 848 l 618 848 q 664 848 717 841 q 769 834 812 820 l 812 820 q 840 812 840 780 l 840 780 q 840 754 821 731 q 801 708 775 708 l 775 708 q 767 708 763 709 l 763 709 q 711 721 674 727 q 637 732 596 732 l 596 732 q 469 732 380 671 q 291 609 247 508 q 203 407 203 290 l 203 290 q 203 205 237 159 q 270 112 324 112 l 324 112 q 385 112 431 162 q 477 212 515 324 q 553 436 590 628 l 590 628 q 596 656 614 666 q 632 676 662 676 l 662 676 q 733 676 733 630 l 733 630 q 733 622 730 610 l 730 610 q 704 513 683 396 q 661 278 661 217 l 661 217 q 661 163 677 139 q 693 114 726 114 l 726 114 q 758 114 787 136 q 816 157 860 209 l 860 209 q 872 223 887 223 l 887 223 q 900 223 908 211 q 915 199 915 178 l 915 178 q 915 139 896 116 l 896 116 q 847 57 800 26 q 753 -5 685 -5 l 685 -5 q 615 -5 572 36 q 529 76 518 150 l 518 150 q 444 -5 300 -5 l 300 -5 m 511 912 q 487 912 473 934 l 473 934 l 409 1038 q 393 1064 393 1087 l 393 1087 q 393 1114 412 1131 q 431 1148 455 1148 l 455 1148 q 473 1148 488 1138 q 502 1127 508 1106 l 508 1106 l 549 964 q 551 954 551 950 l 551 950 q 551 933 539 923 q 527 912 511 912 l 511 912 m 692 912 q 668 912 654 934 l 654 934 l 590 1038 q 574 1064 574 1087 l 574 1087 q 574 1114 593 1131 q 612 1148 636 1148 l 636 1148 q 654 1148 669 1138 q 683 1127 689 1106 l 689 1106 l 730 964 q 732 954 732 950 l 732 950 q 732 933 720 923 q 708 912 692 912 l 692 912"},"Ä":{"x_min":56,"x_max":915,"ha":786,"o":"m 300 -5 q 231 -5 176 29 q 120 63 88 128 q 56 192 56 280 l 56 280 q 56 432 121 562 q 186 691 313 770 q 440 848 618 848 l 618 848 q 664 848 717 841 q 769 834 812 820 l 812 820 q 840 812 840 780 l 840 780 q 840 754 821 731 q 801 708 775 708 l 775 708 q 767 708 763 709 l 763 709 q 711 721 674 727 q 637 732 596 732 l 596 732 q 469 732 380 671 q 291 609 247 508 q 203 407 203 290 l 203 290 q 203 205 237 159 q 270 112 324 112 l 324 112 q 385 112 431 162 q 477 212 515 324 q 553 436 590 628 l 590 628 q 596 656 614 666 q 632 676 662 676 l 662 676 q 733 676 733 630 l 733 630 q 733 622 730 610 l 730 610 q 704 513 683 396 q 661 278 661 217 l 661 217 q 661 163 677 139 q 693 114 726 114 l 726 114 q 758 114 787 136 q 816 157 860 209 l 860 209 q 872 223 887 223 l 887 223 q 900 223 908 211 q 915 199 915 178 l 915 178 q 915 139 896 116 l 896 116 q 847 57 800 26 q 753 -5 685 -5 l 685 -5 q 615 -5 572 36 q 529 76 518 150 l 518 150 q 444 -5 300 -5 l 300 -5 m 501 912 q 469 912 450 931 q 431 949 431 986 l 431 986 q 431 1027 453 1050 q 475 1073 512 1073 l 512 1073 q 544 1073 563 1055 q 582 1036 582 999 l 582 999 q 582 958 560 935 q 538 912 501 912 l 501 912 m 709 912 q 677 912 658 931 q 639 949 639 986 l 639 986 q 639 1027 661 1050 q 683 1073 720 1073 l 720 1073 q 752 1073 771 1055 q 790 1036 790 999 l 790 999 q 790 958 768 935 q 746 912 709 912 l 709 912"},"Ạ":{"x_min":56,"x_max":915,"ha":786,"o":"m 300 -5 q 231 -5 176 29 q 120 63 88 128 q 56 192 56 280 l 56 280 q 56 432 121 562 q 186 691 313 770 q 440 848 618 848 l 618 848 q 664 848 717 841 q 769 834 812 820 l 812 820 q 840 812 840 780 l 840 780 q 840 754 821 731 q 801 708 775 708 l 775 708 q 767 708 763 709 l 763 709 q 711 721 674 727 q 637 732 596 732 l 596 732 q 469 732 380 671 q 291 609 247 508 q 203 407 203 290 l 203 290 q 203 205 237 159 q 270 112 324 112 l 324 112 q 385 112 431 162 q 477 212 515 324 q 553 436 590 628 l 590 628 q 596 656 614 666 q 632 676 662 676 l 662 676 q 733 676 733 630 l 733 630 q 733 622 730 610 l 730 610 q 704 513 683 396 q 661 278 661 217 l 661 217 q 661 163 677 139 q 693 114 726 114 l 726 114 q 758 114 787 136 q 816 157 860 209 l 860 209 q 872 223 887 223 l 887 223 q 900 223 908 211 q 915 199 915 178 l 915 178 q 915 139 896 116 l 896 116 q 847 57 800 26 q 753 -5 685 -5 l 685 -5 q 615 -5 572 36 q 529 76 518 150 l 518 150 q 444 -5 300 -5 l 300 -5 m 358 -232 q 316 -232 294 -211 q 272 -191 272 -156 l 272 -156 q 272 -120 301 -96 q 329 -72 370 -72 l 370 -72 q 408 -72 432 -90 q 455 -109 455 -143 l 455 -143 q 455 -184 428 -208 q 401 -232 358 -232 l 358 -232"},"À":{"x_min":56,"x_max":915,"ha":786,"o":"m 300 -5 q 231 -5 176 29 q 120 63 88 128 q 56 192 56 280 l 56 280 q 56 432 121 562 q 186 691 313 770 q 440 848 618 848 l 618 848 q 664 848 717 841 q 769 834 812 820 l 812 820 q 840 812 840 780 l 840 780 q 840 754 821 731 q 801 708 775 708 l 775 708 q 767 708 763 709 l 763 709 q 711 721 674 727 q 637 732 596 732 l 596 732 q 469 732 380 671 q 291 609 247 508 q 203 407 203 290 l 203 290 q 203 205 237 159 q 270 112 324 112 l 324 112 q 385 112 431 162 q 477 212 515 324 q 553 436 590 628 l 590 628 q 596 656 614 666 q 632 676 662 676 l 662 676 q 733 676 733 630 l 733 630 q 733 622 730 610 l 730 610 q 704 513 683 396 q 661 278 661 217 l 661 217 q 661 163 677 139 q 693 114 726 114 l 726 114 q 758 114 787 136 q 816 157 860 209 l 860 209 q 872 223 887 223 l 887 223 q 900 223 908 211 q 915 199 915 178 l 915 178 q 915 139 896 116 l 896 116 q 847 57 800 26 q 753 -5 685 -5 l 685 -5 q 615 -5 572 36 q 529 76 518 150 l 518 150 q 444 -5 300 -5 l 300 -5 m 587 912 q 575 912 566 917 l 566 917 l 379 1014 q 326 1042 326 1085 l 326 1085 q 326 1111 345 1130 q 364 1148 390 1148 l 390 1148 q 414 1148 434 1131 l 434 1131 l 606 984 q 625 968 625 948 l 625 948 q 625 933 614 923 q 603 912 587 912 l 587 912"},"Ả":{"x_min":56,"x_max":915,"ha":786,"o":"m 300 -5 q 231 -5 176 29 q 120 63 88 128 q 56 192 56 280 l 56 280 q 56 432 121 562 q 186 691 313 770 q 440 848 618 848 l 618 848 q 664 848 717 841 q 769 834 812 820 l 812 820 q 840 812 840 780 l 840 780 q 840 754 821 731 q 801 708 775 708 l 775 708 q 767 708 763 709 l 763 709 q 711 721 674 727 q 637 732 596 732 l 596 732 q 469 732 380 671 q 291 609 247 508 q 203 407 203 290 l 203 290 q 203 205 237 159 q 270 112 324 112 l 324 112 q 385 112 431 162 q 477 212 515 324 q 553 436 590 628 l 590 628 q 596 656 614 666 q 632 676 662 676 l 662 676 q 733 676 733 630 l 733 630 q 733 622 730 610 l 730 610 q 704 513 683 396 q 661 278 661 217 l 661 217 q 661 163 677 139 q 693 114 726 114 l 726 114 q 758 114 787 136 q 816 157 860 209 l 860 209 q 872 223 887 223 l 887 223 q 900 223 908 211 q 915 199 915 178 l 915 178 q 915 139 896 116 l 896 116 q 847 57 800 26 q 753 -5 685 -5 l 685 -5 q 615 -5 572 36 q 529 76 518 150 l 518 150 q 444 -5 300 -5 l 300 -5 m 588 912 q 566 912 557 921 q 548 930 548 948 l 548 948 q 548 975 561 985 q 574 995 596 995 l 596 995 q 625 995 640 1007 q 655 1019 655 1037 l 655 1037 q 655 1054 644 1064 q 632 1074 608 1074 l 608 1074 q 590 1074 568 1072 q 546 1069 541 1069 l 541 1069 q 525 1069 519 1077 q 513 1085 513 1106 l 513 1106 q 513 1127 525 1137 q 536 1147 559 1152 l 559 1152 q 583 1157 611 1157 l 611 1157 q 751 1157 751 1048 l 751 1048 q 751 985 712 949 q 672 912 603 912 l 603 912 l 588 912"},"Ȃ":{"x_min":56,"x_max":915,"ha":786,"o":"m 300 -5 q 231 -5 176 29 q 120 63 88 128 q 56 192 56 280 l 56 280 q 56 432 121 562 q 186 691 313 770 q 440 848 618 848 l 618 848 q 664 848 717 841 q 769 834 812 820 l 812 820 q 840 812 840 780 l 840 780 q 840 754 821 731 q 801 708 775 708 l 775 708 q 767 708 763 709 l 763 709 q 711 721 674 727 q 637 732 596 732 l 596 732 q 469 732 380 671 q 291 609 247 508 q 203 407 203 290 l 203 290 q 203 205 237 159 q 270 112 324 112 l 324 112 q 385 112 431 162 q 477 212 515 324 q 553 436 590 628 l 590 628 q 596 656 614 666 q 632 676 662 676 l 662 676 q 733 676 733 630 l 733 630 q 733 622 730 610 l 730 610 q 704 513 683 396 q 661 278 661 217 l 661 217 q 661 163 677 139 q 693 114 726 114 l 726 114 q 758 114 787 136 q 816 157 860 209 l 860 209 q 872 223 887 223 l 887 223 q 900 223 908 211 q 915 199 915 178 l 915 178 q 915 139 896 116 l 896 116 q 847 57 800 26 q 753 -5 685 -5 l 685 -5 q 615 -5 572 36 q 529 76 518 150 l 518 150 q 444 -5 300 -5 l 300 -5 m 451 912 q 432 912 420 922 q 408 932 408 950 l 408 950 q 408 982 434 1017 q 460 1051 509 1074 q 558 1097 623 1097 l 623 1097 q 685 1097 731 1077 q 776 1056 800 1024 q 823 991 823 957 l 823 957 q 823 936 806 924 q 789 912 764 912 l 764 912 q 744 912 733 920 q 721 927 713 945 l 713 945 q 698 977 676 989 q 654 1001 615 1001 l 615 1001 q 576 1001 552 987 q 528 972 508 942 l 508 942 q 488 912 451 912 l 451 912"},"Ā":{"x_min":56,"x_max":915,"ha":786,"o":"m 300 -5 q 231 -5 176 29 q 120 63 88 128 q 56 192 56 280 l 56 280 q 56 432 121 562 q 186 691 313 770 q 440 848 618 848 l 618 848 q 664 848 717 841 q 769 834 812 820 l 812 820 q 840 812 840 780 l 840 780 q 840 754 821 731 q 801 708 775 708 l 775 708 q 767 708 763 709 l 763 709 q 711 721 674 727 q 637 732 596 732 l 596 732 q 469 732 380 671 q 291 609 247 508 q 203 407 203 290 l 203 290 q 203 205 237 159 q 270 112 324 112 l 324 112 q 385 112 431 162 q 477 212 515 324 q 553 436 590 628 l 590 628 q 596 656 614 666 q 632 676 662 676 l 662 676 q 733 676 733 630 l 733 630 q 733 622 730 610 l 730 610 q 704 513 683 396 q 661 278 661 217 l 661 217 q 661 163 677 139 q 693 114 726 114 l 726 114 q 758 114 787 136 q 816 157 860 209 l 860 209 q 872 223 887 223 l 887 223 q 900 223 908 211 q 915 199 915 178 l 915 178 q 915 139 896 116 l 896 116 q 847 57 800 26 q 753 -5 685 -5 l 685 -5 q 615 -5 572 36 q 529 76 518 150 l 518 150 q 444 -5 300 -5 l 300 -5 m 486 912 q 441 912 441 956 l 441 956 q 441 981 455 996 q 469 1010 494 1010 l 494 1010 l 717 1010 q 739 1010 751 1000 q 762 989 762 969 l 762 969 q 762 942 748 927 q 734 912 709 912 l 709 912 l 486 912"},"Ą":{"x_min":56,"x_max":915,"ha":786,"o":"m 716 -254 q 647 -254 605 -216 q 562 -179 562 -118 l 562 -118 q 562 -45 622 5 l 622 5 q 579 21 553 58 q 526 95 518 150 l 518 150 q 444 -5 300 -5 l 300 -5 q 231 -5 176 29 q 120 63 88 128 q 56 192 56 280 l 56 280 q 56 432 121 562 q 186 691 313 770 q 440 848 618 848 l 618 848 q 664 848 717 841 q 769 834 812 820 l 812 820 q 840 812 840 780 l 840 780 q 840 754 821 731 q 801 708 775 708 l 775 708 q 767 708 763 709 l 763 709 q 711 721 674 727 q 637 732 596 732 l 596 732 q 469 732 380 671 q 291 609 247 508 q 203 407 203 290 l 203 290 q 203 205 237 159 q 270 112 324 112 l 324 112 q 385 112 431 162 q 477 212 515 324 q 553 436 590 628 l 590 628 q 596 656 614 666 q 632 676 662 676 l 662 676 q 733 676 733 630 l 733 630 q 733 622 730 610 l 730 610 q 704 513 683 396 q 661 278 661 217 l 661 217 q 661 163 677 139 q 693 114 726 114 l 726 114 q 758 114 787 136 q 816 157 860 209 l 860 209 q 872 223 887 223 l 887 223 q 900 223 908 211 q 915 199 915 178 l 915 178 q 915 159 912 144 q 908 129 896 116 l 896 116 q 837 47 755 0 l 755 0 q 709 -26 689 -50 q 668 -74 668 -101 l 668 -101 q 668 -130 686 -145 q 704 -160 730 -160 l 730 -160 q 756 -160 777 -153 l 777 -153 q 794 -147 804 -147 l 804 -147 q 818 -147 824 -156 q 830 -166 830 -185 l 830 -185 q 830 -206 819 -220 q 808 -235 783 -244 l 783 -244 q 771 -248 752 -251 q 732 -254 716 -254 l 716 -254"},"Å":{"x_min":56,"x_max":915,"ha":786,"o":"m 300 -5 q 231 -5 176 29 q 120 63 88 128 q 56 192 56 280 l 56 280 q 56 432 121 562 q 186 691 313 770 q 440 848 618 848 l 618 848 q 664 848 717 841 q 769 834 812 820 l 812 820 q 840 812 840 780 l 840 780 q 840 754 821 731 q 801 708 775 708 l 775 708 q 767 708 763 709 l 763 709 q 711 721 674 727 q 637 732 596 732 l 596 732 q 469 732 380 671 q 291 609 247 508 q 203 407 203 290 l 203 290 q 203 205 237 159 q 270 112 324 112 l 324 112 q 385 112 431 162 q 477 212 515 324 q 553 436 590 628 l 590 628 q 596 656 614 666 q 632 676 662 676 l 662 676 q 733 676 733 630 l 733 630 q 733 622 730 610 l 730 610 q 704 513 683 396 q 661 278 661 217 l 661 217 q 661 163 677 139 q 693 114 726 114 l 726 114 q 758 114 787 136 q 816 157 860 209 l 860 209 q 872 223 887 223 l 887 223 q 900 223 908 211 q 915 199 915 178 l 915 178 q 915 139 896 116 l 896 116 q 847 57 800 26 q 753 -5 685 -5 l 685 -5 q 615 -5 572 36 q 529 76 518 150 l 518 150 q 444 -5 300 -5 l 300 -5 m 611 912 q 558 912 520 948 q 482 983 482 1044 l 482 1044 q 482 1089 502 1123 q 521 1156 554 1174 q 586 1192 623 1192 l 623 1192 q 676 1192 714 1157 q 752 1121 752 1060 l 752 1060 q 752 1015 733 982 q 713 948 681 930 q 648 912 611 912 l 611 912 m 615 1000 q 635 1000 649 1015 q 663 1030 663 1055 l 663 1055 q 663 1077 650 1091 q 637 1104 619 1104 l 619 1104 q 599 1104 585 1089 q 571 1074 571 1049 l 571 1049 q 571 1027 584 1014 q 597 1000 615 1000 l 615 1000"},"Ǻ":{"x_min":56,"x_max":974,"ha":786,"o":"m 794 1127 q 780 1127 771 1136 q 762 1145 762 1158 l 762 1158 q 762 1173 778 1188 l 778 1188 l 882 1282 q 898 1297 919 1297 l 919 1297 q 941 1297 958 1281 q 974 1265 974 1243 l 974 1243 q 974 1226 963 1210 q 952 1193 929 1183 l 929 1183 l 812 1131 q 804 1127 794 1127 l 794 1127 m 611 912 q 558 912 520 948 q 482 983 482 1044 l 482 1044 q 482 1089 502 1123 q 521 1156 554 1174 q 586 1192 623 1192 l 623 1192 q 676 1192 714 1157 q 752 1121 752 1060 l 752 1060 q 752 1015 733 982 q 713 948 681 930 q 648 912 611 912 l 611 912 m 615 1000 q 635 1000 649 1015 q 663 1030 663 1055 l 663 1055 q 663 1077 650 1091 q 637 1104 619 1104 l 619 1104 q 599 1104 585 1089 q 571 1074 571 1049 l 571 1049 q 571 1027 584 1014 q 597 1000 615 1000 l 615 1000 m 300 -5 q 231 -5 176 29 q 120 63 88 128 q 56 192 56 280 l 56 280 q 56 432 121 562 q 186 691 313 770 q 440 848 618 848 l 618 848 q 664 848 717 841 q 769 834 812 820 l 812 820 q 840 812 840 780 l 840 780 q 840 754 821 731 q 801 708 775 708 l 775 708 q 767 708 763 709 l 763 709 q 711 721 674 727 q 637 732 596 732 l 596 732 q 469 732 380 671 q 291 609 247 508 q 203 407 203 290 l 203 290 q 203 205 237 159 q 270 112 324 112 l 324 112 q 385 112 431 162 q 477 212 515 324 q 553 436 590 628 l 590 628 q 596 656 614 666 q 632 676 662 676 l 662 676 q 733 676 733 630 l 733 630 q 733 622 730 610 l 730 610 q 704 513 683 396 q 661 278 661 217 l 661 217 q 661 163 677 139 q 693 114 726 114 l 726 114 q 758 114 787 136 q 816 157 860 209 l 860 209 q 872 223 887 223 l 887 223 q 900 223 908 211 q 915 199 915 178 l 915 178 q 915 139 896 116 l 896 116 q 847 57 800 26 q 753 -5 685 -5 l 685 -5 q 615 -5 572 36 q 529 76 518 150 l 518 150 q 444 -5 300 -5 l 300 -5"},"Ã":{"x_min":56,"x_max":915,"ha":786,"o":"m 300 -5 q 231 -5 176 29 q 120 63 88 128 q 56 192 56 280 l 56 280 q 56 432 121 562 q 186 691 313 770 q 440 848 618 848 l 618 848 q 664 848 717 841 q 769 834 812 820 l 812 820 q 840 812 840 780 l 840 780 q 840 754 821 731 q 801 708 775 708 l 775 708 q 767 708 763 709 l 763 709 q 711 721 674 727 q 637 732 596 732 l 596 732 q 469 732 380 671 q 291 609 247 508 q 203 407 203 290 l 203 290 q 203 205 237 159 q 270 112 324 112 l 324 112 q 385 112 431 162 q 477 212 515 324 q 553 436 590 628 l 590 628 q 596 656 614 666 q 632 676 662 676 l 662 676 q 733 676 733 630 l 733 630 q 733 622 730 610 l 730 610 q 704 513 683 396 q 661 278 661 217 l 661 217 q 661 163 677 139 q 693 114 726 114 l 726 114 q 758 114 787 136 q 816 157 860 209 l 860 209 q 872 223 887 223 l 887 223 q 900 223 908 211 q 915 199 915 178 l 915 178 q 915 139 896 116 l 896 116 q 847 57 800 26 q 753 -5 685 -5 l 685 -5 q 615 -5 572 36 q 529 76 518 150 l 518 150 q 444 -5 300 -5 l 300 -5 m 701 912 q 685 912 671 918 q 657 923 635 938 l 635 938 l 528 1012 l 484 949 q 476 938 464 933 q 451 927 438 927 l 438 927 q 419 927 406 937 q 392 947 392 966 l 392 966 q 392 993 429 1047 l 429 1047 q 473 1111 526 1111 l 526 1111 q 543 1111 557 1106 q 570 1101 592 1085 l 592 1085 l 699 1011 l 743 1074 q 751 1085 764 1091 q 776 1096 789 1096 l 789 1096 q 808 1096 822 1086 q 835 1076 835 1057 l 835 1057 q 835 1044 827 1028 q 819 1011 798 976 l 798 976 q 778 943 753 928 q 728 912 701 912 l 701 912"},"Æ":{"x_min":56,"x_max":1141,"ha":1015,"o":"m 1091 182 q 1100 187 1111 187 l 1111 187 q 1125 187 1133 176 q 1141 164 1141 146 l 1141 146 q 1141 123 1132 105 q 1122 86 1099 69 l 1099 69 q 1054 37 981 16 q 907 -5 839 -5 l 839 -5 q 716 -5 644 44 q 572 92 550 173 l 550 173 q 471 -5 312 -5 l 312 -5 q 237 -5 179 29 q 121 63 89 128 q 56 192 56 280 l 56 280 q 56 426 115 549 q 173 671 277 749 q 381 826 511 842 l 511 842 q 519 843 532 843 l 532 843 q 597 843 597 780 l 597 780 q 597 759 588 746 q 578 732 559 730 l 559 730 q 445 717 365 656 q 284 595 244 500 q 203 404 203 290 l 203 290 q 203 205 237 159 q 270 112 324 112 l 324 112 q 407 112 458 195 q 508 277 550 431 l 550 431 l 631 727 q 646 782 681 810 q 715 838 766 840 l 766 840 l 818 843 q 944 849 1016 849 l 1016 849 q 1052 849 1066 837 q 1080 824 1080 795 l 1080 795 q 1080 764 1062 742 q 1044 720 1008 720 l 1008 720 q 941 720 871 717 q 800 714 768 710 l 768 710 q 744 638 710 483 l 710 483 q 756 485 776 485 l 776 485 q 883 490 957 490 l 957 490 q 987 490 999 478 q 1010 465 1010 441 l 1010 441 q 1010 410 993 390 q 975 369 944 368 l 944 368 l 831 365 q 779 363 686 361 l 686 361 q 675 312 675 274 l 675 274 q 675 115 862 115 l 862 115 q 914 115 968 132 q 1022 148 1091 182 l 1091 182"},"Ǽ":{"x_min":56,"x_max":1141,"ha":1015,"o":"m 1091 182 q 1100 187 1111 187 l 1111 187 q 1125 187 1133 176 q 1141 164 1141 146 l 1141 146 q 1141 123 1132 105 q 1122 86 1099 69 l 1099 69 q 1054 37 981 16 q 907 -5 839 -5 l 839 -5 q 716 -5 644 44 q 572 92 550 173 l 550 173 q 471 -5 312 -5 l 312 -5 q 237 -5 179 29 q 121 63 89 128 q 56 192 56 280 l 56 280 q 56 426 115 549 q 173 671 277 749 q 381 826 511 842 l 511 842 q 519 843 532 843 l 532 843 q 597 843 597 780 l 597 780 q 597 759 588 746 q 578 732 559 730 l 559 730 q 445 717 365 656 q 284 595 244 500 q 203 404 203 290 l 203 290 q 203 205 237 159 q 270 112 324 112 l 324 112 q 407 112 458 195 q 508 277 550 431 l 550 431 l 631 727 q 646 782 681 810 q 715 838 766 840 l 766 840 l 818 843 q 944 849 1016 849 l 1016 849 q 1052 849 1066 837 q 1080 824 1080 795 l 1080 795 q 1080 764 1062 742 q 1044 720 1008 720 l 1008 720 q 941 720 871 717 q 800 714 768 710 l 768 710 q 744 638 710 483 l 710 483 q 756 485 776 485 l 776 485 q 883 490 957 490 l 957 490 q 987 490 999 478 q 1010 465 1010 441 l 1010 441 q 1010 410 993 390 q 975 369 944 368 l 944 368 l 831 365 q 779 363 686 361 l 686 361 q 675 312 675 274 l 675 274 q 675 115 862 115 l 862 115 q 914 115 968 132 q 1022 148 1091 182 l 1091 182 m 711 912 q 695 912 684 923 q 673 933 673 948 l 673 948 q 673 968 692 984 l 692 984 l 864 1131 q 884 1148 908 1148 l 908 1148 q 934 1148 953 1130 q 972 1111 972 1085 l 972 1085 q 972 1042 919 1014 l 919 1014 l 732 917 q 723 912 711 912 l 711 912"},"B":{"x_min":20,"x_max":868,"ha":827,"o":"m 868 640 q 868 555 808 494 q 748 432 633 405 l 633 405 q 695 388 727 350 q 759 311 759 261 l 759 261 q 759 182 710 124 q 660 66 565 35 q 470 3 336 3 l 336 3 q 286 3 256 6 l 256 6 q 255 -22 232 -36 q 209 -50 173 -50 l 173 -50 q 137 -50 124 -34 q 110 -18 112 13 l 112 13 q 121 153 147 307 q 173 460 213 603 l 213 603 q 220 628 241 638 q 262 648 296 648 l 296 648 q 357 648 357 614 l 357 614 q 357 600 351 582 l 351 582 q 325 504 299 371 q 273 237 262 116 l 262 116 q 310 112 340 112 l 340 112 q 480 112 546 153 q 611 193 611 256 l 611 256 q 611 300 574 330 q 536 360 448 363 l 448 363 q 428 364 420 373 q 412 382 412 402 l 412 402 q 412 431 424 449 q 436 467 468 468 l 468 468 q 539 470 597 489 q 654 508 687 543 q 720 577 720 623 l 720 623 q 720 681 663 715 q 606 748 488 748 l 488 748 q 381 748 281 721 q 181 693 111 651 l 111 651 q 79 632 57 632 l 57 632 q 39 632 30 645 q 20 657 20 676 l 20 676 q 20 701 31 719 q 41 737 81 760 l 81 760 q 165 808 278 835 q 391 862 509 862 l 509 862 q 690 862 779 801 q 868 740 868 640 l 868 640"},"C":{"x_min":64,"x_max":812,"ha":686,"o":"m 453 -5 q 334 -5 246 39 q 158 82 111 162 q 64 242 64 348 l 64 348 q 64 495 120 609 q 175 723 270 786 q 365 848 481 848 l 481 848 q 589 848 645 793 q 701 737 701 646 l 701 646 q 701 585 680 548 q 658 511 618 511 l 618 511 q 590 511 574 524 q 558 537 558 562 l 558 562 q 558 571 562 595 l 562 595 q 568 625 568 643 l 568 643 q 568 734 471 734 l 471 734 q 405 734 345 691 q 285 648 248 565 q 211 481 211 366 l 211 366 q 211 246 278 181 q 345 115 476 115 l 476 115 q 541 115 608 132 q 674 148 755 182 l 755 182 q 770 188 780 188 l 780 188 q 796 188 804 176 q 812 164 812 145 l 812 145 q 812 84 746 55 l 746 55 q 675 24 599 10 q 522 -5 453 -5 l 453 -5"},"Ć":{"x_min":64,"x_max":812,"ha":686,"o":"m 453 -5 q 334 -5 246 39 q 158 82 111 162 q 64 242 64 348 l 64 348 q 64 495 120 609 q 175 723 270 786 q 365 848 481 848 l 481 848 q 589 848 645 793 q 701 737 701 646 l 701 646 q 701 585 680 548 q 658 511 618 511 l 618 511 q 590 511 574 524 q 558 537 558 562 l 558 562 q 558 571 562 595 l 562 595 q 568 625 568 643 l 568 643 q 568 734 471 734 l 471 734 q 405 734 345 691 q 285 648 248 565 q 211 481 211 366 l 211 366 q 211 246 278 181 q 345 115 476 115 l 476 115 q 541 115 608 132 q 674 148 755 182 l 755 182 q 770 188 780 188 l 780 188 q 796 188 804 176 q 812 164 812 145 l 812 145 q 812 84 746 55 l 746 55 q 675 24 599 10 q 522 -5 453 -5 l 453 -5 m 488 912 q 472 912 461 923 q 450 933 450 948 l 450 948 q 450 968 469 984 l 469 984 l 641 1131 q 661 1148 685 1148 l 685 1148 q 711 1148 730 1130 q 749 1111 749 1085 l 749 1085 q 749 1042 696 1014 l 696 1014 l 509 917 q 500 912 488 912 l 488 912"},"Č":{"x_min":64,"x_max":812,"ha":686,"o":"m 453 -5 q 334 -5 246 39 q 158 82 111 162 q 64 242 64 348 l 64 348 q 64 495 120 609 q 175 723 270 786 q 365 848 481 848 l 481 848 q 589 848 645 793 q 701 737 701 646 l 701 646 q 701 585 680 548 q 658 511 618 511 l 618 511 q 590 511 574 524 q 558 537 558 562 l 558 562 q 558 571 562 595 l 562 595 q 568 625 568 643 l 568 643 q 568 734 471 734 l 471 734 q 405 734 345 691 q 285 648 248 565 q 211 481 211 366 l 211 366 q 211 246 278 181 q 345 115 476 115 l 476 115 q 541 115 608 132 q 674 148 755 182 l 755 182 q 770 188 780 188 l 780 188 q 796 188 804 176 q 812 164 812 145 l 812 145 q 812 84 746 55 l 746 55 q 675 24 599 10 q 522 -5 453 -5 l 453 -5 m 489 912 q 461 912 443 928 q 425 944 406 981 l 406 981 l 356 1080 q 346 1100 346 1117 l 346 1117 q 346 1138 360 1150 q 374 1161 395 1161 l 395 1161 q 416 1161 429 1153 q 442 1145 449 1125 l 449 1125 l 497 999 l 575 1122 q 589 1144 603 1153 q 617 1161 640 1161 l 640 1161 q 659 1161 672 1152 q 684 1142 684 1125 l 684 1125 q 684 1106 667 1083 l 667 1083 l 583 968 q 562 939 540 926 q 518 912 489 912 l 489 912"},"Ç":{"x_min":64,"x_max":812,"ha":686,"o":"m 755 182 q 770 188 780 188 l 780 188 q 796 188 804 176 q 812 164 812 145 l 812 145 q 812 84 746 55 l 746 55 q 617 -1 466 -5 l 466 -5 q 496 -37 496 -86 l 496 -86 q 496 -161 445 -207 q 393 -254 305 -254 l 305 -254 q 267 -254 243 -249 l 243 -249 q 223 -245 214 -234 q 204 -223 204 -202 l 204 -202 q 204 -178 214 -167 q 224 -156 244 -156 l 244 -156 q 252 -156 257 -157 l 257 -157 q 284 -161 310 -161 l 310 -161 q 350 -161 373 -144 q 395 -128 395 -94 l 395 -94 q 395 -69 374 -54 q 352 -40 315 -40 l 315 -40 q 289 -40 275 -33 q 261 -26 261 -9 l 261 -9 q 261 13 274 26 l 274 26 q 174 65 119 149 q 64 233 64 348 l 64 348 q 64 495 120 609 q 175 723 270 786 q 365 848 481 848 l 481 848 q 589 848 645 793 q 701 737 701 646 l 701 646 q 701 585 680 548 q 658 511 618 511 l 618 511 q 590 511 574 524 q 558 537 558 562 l 558 562 q 558 571 562 595 l 562 595 q 568 625 568 643 l 568 643 q 568 734 471 734 l 471 734 q 405 734 345 691 q 285 648 248 565 q 211 481 211 366 l 211 366 q 211 246 278 181 q 345 115 476 115 l 476 115 q 541 115 608 132 q 674 148 755 182 l 755 182"},"Ĉ":{"x_min":64,"x_max":812,"ha":686,"o":"m 453 -5 q 334 -5 246 39 q 158 82 111 162 q 64 242 64 348 l 64 348 q 64 495 120 609 q 175 723 270 786 q 365 848 481 848 l 481 848 q 589 848 645 793 q 701 737 701 646 l 701 646 q 701 585 680 548 q 658 511 618 511 l 618 511 q 590 511 574 524 q 558 537 558 562 l 558 562 q 558 571 562 595 l 562 595 q 568 625 568 643 l 568 643 q 568 734 471 734 l 471 734 q 405 734 345 691 q 285 648 248 565 q 211 481 211 366 l 211 366 q 211 246 278 181 q 345 115 476 115 l 476 115 q 541 115 608 132 q 674 148 755 182 l 755 182 q 770 188 780 188 l 780 188 q 796 188 804 176 q 812 164 812 145 l 812 145 q 812 84 746 55 l 746 55 q 675 24 599 10 q 522 -5 453 -5 l 453 -5 m 553 948 l 512 1093 l 432 951 q 421 931 403 921 q 385 911 366 911 l 366 911 q 345 911 330 923 q 315 934 315 953 l 315 953 q 315 970 328 990 l 328 990 l 420 1127 q 457 1183 525 1183 l 525 1183 q 556 1183 575 1167 q 593 1151 608 1114 l 608 1114 l 655 993 q 661 978 661 965 l 661 965 q 661 941 644 927 q 627 912 604 912 l 604 912 q 587 912 573 922 q 558 931 553 948 l 553 948"},"Ċ":{"x_min":64,"x_max":812,"ha":686,"o":"m 453 -5 q 334 -5 246 39 q 158 82 111 162 q 64 242 64 348 l 64 348 q 64 495 120 609 q 175 723 270 786 q 365 848 481 848 l 481 848 q 589 848 645 793 q 701 737 701 646 l 701 646 q 701 585 680 548 q 658 511 618 511 l 618 511 q 590 511 574 524 q 558 537 558 562 l 558 562 q 558 571 562 595 l 562 595 q 568 625 568 643 l 568 643 q 568 734 471 734 l 471 734 q 405 734 345 691 q 285 648 248 565 q 211 481 211 366 l 211 366 q 211 246 278 181 q 345 115 476 115 l 476 115 q 541 115 608 132 q 674 148 755 182 l 755 182 q 770 188 780 188 l 780 188 q 796 188 804 176 q 812 164 812 145 l 812 145 q 812 84 746 55 l 746 55 q 675 24 599 10 q 522 -5 453 -5 l 453 -5 m 491 912 q 449 912 427 933 q 405 953 405 988 l 405 988 q 405 1024 434 1048 q 462 1072 503 1072 l 503 1072 q 541 1072 565 1054 q 588 1035 588 1001 l 588 1001 q 588 960 561 936 q 534 912 491 912 l 491 912"},"D":{"x_min":45,"x_max":817,"ha":836,"o":"m 308 -5 q 250 -5 177 5 l 177 5 q 137 10 122 26 q 107 42 109 78 l 109 78 q 116 177 142 323 q 168 468 205 603 l 205 603 q 212 628 233 638 q 254 648 288 648 l 288 648 q 349 648 349 614 l 349 614 q 349 600 343 582 l 343 582 q 317 502 291 368 q 265 233 254 111 l 254 111 q 284 108 322 108 l 322 108 q 497 108 584 214 q 670 320 670 497 l 670 497 q 670 616 602 681 q 534 746 410 746 l 410 746 q 330 746 252 721 q 173 696 110 655 l 110 655 q 97 646 82 646 l 82 646 q 65 646 55 661 q 45 675 45 696 l 45 696 q 45 720 53 736 q 61 751 80 764 l 80 764 q 149 811 242 836 q 335 860 421 860 l 421 860 q 543 860 632 818 q 721 775 769 693 q 817 611 817 495 l 817 495 q 817 344 757 232 q 697 119 582 57 q 467 -5 308 -5 l 308 -5"},"Ǆ":{"x_min":80,"x_max":1660,"ha":1531,"o":"m 282 -5 q 246 -5 219 -3 q 192 -1 151 5 l 151 5 q 111 10 96 26 q 80 42 83 78 l 83 78 q 91 180 117 325 q 142 469 179 603 l 179 603 q 192 650 260 650 l 260 650 q 321 650 321 614 l 321 614 q 321 600 315 582 l 315 582 q 290 501 265 367 q 240 233 229 111 l 229 111 q 268 108 296 108 l 296 108 q 471 108 558 213 q 644 317 644 489 l 644 489 q 644 616 578 681 q 511 746 404 746 l 404 746 q 362 746 322 739 q 281 732 223 714 l 223 714 q 205 708 193 708 l 193 708 q 157 708 157 749 l 157 749 q 157 781 175 799 q 192 816 244 834 l 244 834 q 317 860 415 860 l 415 860 q 533 860 618 815 q 702 769 747 687 q 791 604 791 494 l 791 494 q 791 344 731 232 q 671 119 556 57 q 441 -5 282 -5 l 282 -5 m 1632 223 q 1645 223 1653 211 q 1660 199 1660 178 l 1660 178 q 1660 139 1641 116 l 1641 116 q 1585 49 1533 22 q 1480 -5 1406 -5 l 1406 -5 q 1354 -5 1310 8 q 1266 21 1203 47 l 1203 47 q 1149 70 1107 84 l 1107 84 q 1061 34 1024 15 q 987 -5 946 -5 l 946 -5 q 891 -5 858 21 q 825 46 825 87 l 825 87 q 825 118 846 144 q 866 170 903 185 q 940 200 989 200 l 989 200 q 1017 200 1031 199 l 1031 199 q 1227 443 1385 714 l 1385 714 q 1299 729 1210 729 l 1210 729 q 1095 729 1042 703 q 988 676 988 619 l 988 619 q 988 602 992 590 q 996 578 1004 562 l 1004 562 q 1013 544 1013 536 l 1013 536 q 1013 516 995 503 q 976 489 952 489 l 952 489 q 927 489 911 504 l 911 504 q 892 521 881 551 q 869 580 869 617 l 869 617 q 869 734 966 790 q 1063 846 1222 846 l 1222 846 q 1301 846 1384 837 q 1466 828 1538 808 l 1538 808 q 1568 800 1578 786 q 1588 771 1588 748 l 1588 748 q 1588 721 1574 706 q 1560 691 1535 691 l 1535 691 l 1528 691 q 1420 515 1309 353 l 1309 353 q 1220 224 1184 178 l 1184 178 q 1242 165 1285 154 l 1285 154 q 1338 140 1371 134 q 1403 127 1427 127 l 1427 127 q 1485 127 1527 147 q 1568 166 1605 209 l 1605 209 q 1617 223 1632 223 l 1632 223 m 1269 912 q 1241 912 1223 928 q 1205 944 1186 981 l 1186 981 l 1136 1080 q 1126 1100 1126 1117 l 1126 1117 q 1126 1138 1140 1150 q 1154 1161 1175 1161 l 1175 1161 q 1196 1161 1209 1153 q 1222 1145 1229 1125 l 1229 1125 l 1277 999 l 1355 1122 q 1369 1144 1383 1153 q 1397 1161 1420 1161 l 1420 1161 q 1439 1161 1452 1152 q 1464 1142 1464 1125 l 1464 1125 q 1464 1106 1447 1083 l 1447 1083 l 1363 968 q 1342 939 1320 926 q 1298 912 1269 912 l 1269 912"},"Ð":{"x_min":15,"x_max":803,"ha":821,"o":"m 424 860 q 543 860 629 815 q 714 769 759 687 q 803 604 803 494 l 803 494 q 803 351 743 238 q 682 124 567 60 q 452 -5 294 -5 l 294 -5 q 228 -5 155 5 l 155 5 q 116 10 101 26 q 86 42 89 78 l 89 78 q 102 216 134 383 l 134 383 l 65 383 q 15 383 15 429 l 15 429 q 15 470 45 488 q 74 505 138 505 l 138 505 l 161 505 q 197 660 243 798 l 243 798 q 250 818 261 831 q 271 843 291 848 l 291 848 q 340 860 424 860 l 424 860 m 307 108 q 424 108 503 160 q 581 211 619 297 q 656 383 656 489 l 656 489 q 656 618 589 683 q 522 748 411 748 l 411 748 q 378 748 367 747 l 367 747 q 334 647 300 504 l 300 504 q 329 503 391 503 l 391 503 q 455 503 478 490 q 500 477 500 448 l 500 448 q 500 417 487 399 q 474 381 437 381 l 437 381 q 405 381 327 383 l 327 383 l 275 384 q 245 234 234 111 l 234 111 q 265 108 307 108 l 307 108"},"Ď":{"x_min":45,"x_max":817,"ha":836,"o":"m 308 -5 q 250 -5 177 5 l 177 5 q 137 10 122 26 q 107 42 109 78 l 109 78 q 116 177 142 323 q 168 468 205 603 l 205 603 q 212 628 233 638 q 254 648 288 648 l 288 648 q 349 648 349 614 l 349 614 q 349 600 343 582 l 343 582 q 317 502 291 368 q 265 233 254 111 l 254 111 q 284 108 322 108 l 322 108 q 497 108 584 214 q 670 320 670 497 l 670 497 q 670 616 602 681 q 534 746 410 746 l 410 746 q 330 746 252 721 q 173 696 110 655 l 110 655 q 97 646 82 646 l 82 646 q 65 646 55 661 q 45 675 45 696 l 45 696 q 45 720 53 736 q 61 751 80 764 l 80 764 q 149 811 242 836 q 335 860 421 860 l 421 860 q 543 860 632 818 q 721 775 769 693 q 817 611 817 495 l 817 495 q 817 344 757 232 q 697 119 582 57 q 467 -5 308 -5 l 308 -5 m 451 912 q 423 912 405 928 q 387 944 368 981 l 368 981 l 318 1080 q 308 1100 308 1117 l 308 1117 q 308 1138 322 1150 q 336 1161 357 1161 l 357 1161 q 378 1161 391 1153 q 404 1145 411 1125 l 411 1125 l 459 999 l 537 1122 q 551 1144 565 1153 q 579 1161 602 1161 l 602 1161 q 621 1161 634 1152 q 646 1142 646 1125 l 646 1125 q 646 1106 629 1083 l 629 1083 l 545 968 q 524 939 502 926 q 480 912 451 912 l 451 912"},"Đ":{"x_min":15,"x_max":803,"ha":821,"o":"m 424 860 q 543 860 629 815 q 714 769 759 687 q 803 604 803 494 l 803 494 q 803 351 743 238 q 682 124 567 60 q 452 -5 294 -5 l 294 -5 q 228 -5 155 5 l 155 5 q 116 10 101 26 q 86 42 89 78 l 89 78 q 102 216 134 383 l 134 383 l 65 383 q 15 383 15 429 l 15 429 q 15 470 45 488 q 74 505 138 505 l 138 505 l 161 505 q 197 660 243 798 l 243 798 q 250 818 261 831 q 271 843 291 848 l 291 848 q 340 860 424 860 l 424 860 m 307 108 q 424 108 503 160 q 581 211 619 297 q 656 383 656 489 l 656 489 q 656 618 589 683 q 522 748 411 748 l 411 748 q 378 748 367 747 l 367 747 q 334 647 300 504 l 300 504 q 329 503 391 503 l 391 503 q 455 503 478 490 q 500 477 500 448 l 500 448 q 500 417 487 399 q 474 381 437 381 l 437 381 q 405 381 327 383 l 327 383 l 275 384 q 245 234 234 111 l 234 111 q 265 108 307 108 l 307 108"},"ǅ":{"x_min":80,"x_max":1262,"ha":1191,"o":"m 282 -5 q 246 -5 219 -3 q 192 -1 151 5 l 151 5 q 111 10 96 26 q 80 42 83 78 l 83 78 q 91 180 117 325 q 142 469 179 603 l 179 603 q 192 650 260 650 l 260 650 q 321 650 321 614 l 321 614 q 321 600 315 582 l 315 582 q 290 501 265 367 q 240 233 229 111 l 229 111 q 268 108 296 108 l 296 108 q 471 108 558 213 q 644 317 644 489 l 644 489 q 644 616 578 681 q 511 746 404 746 l 404 746 q 362 746 322 739 q 281 732 223 714 l 223 714 q 205 708 193 708 l 193 708 q 157 708 157 749 l 157 749 q 157 781 175 799 q 192 816 244 834 l 244 834 q 317 860 415 860 l 415 860 q 533 860 618 815 q 702 769 747 687 q 791 604 791 494 l 791 494 q 791 344 731 232 q 671 119 556 57 q 441 -5 282 -5 l 282 -5 m 1169 109 q 1191 110 1203 94 q 1214 77 1214 53 l 1214 53 q 1214 28 1203 9 q 1191 -10 1171 -10 l 1171 -10 q 1135 -10 1104 -9 q 1072 -8 1048 -7 l 1048 -7 q 956 -3 918 -3 l 918 -3 q 905 -3 880 -12 l 880 -12 q 848 -22 836 -22 l 836 -22 q 783 -22 783 46 l 783 46 q 783 92 816 151 q 849 209 902 264 q 955 319 1012 356 l 1012 356 l 871 352 q 849 351 838 368 q 826 384 826 407 l 826 407 q 826 431 838 450 q 849 468 869 468 l 869 468 q 913 468 978 461 l 978 461 q 989 460 1026 457 q 1062 454 1093 454 l 1093 454 q 1103 454 1131 462 l 1131 462 q 1136 463 1151 467 q 1165 471 1175 471 l 1175 471 q 1191 471 1202 457 q 1212 443 1212 414 l 1212 414 q 1212 382 1197 363 q 1181 344 1150 329 l 1150 329 q 1115 313 1068 274 q 1021 235 979 188 q 937 140 917 98 l 917 98 l 1169 109 m 1045 531 q 1015 531 998 549 q 981 567 972 606 l 972 606 l 928 786 q 925 798 925 808 l 925 808 q 925 833 942 847 q 958 860 981 860 l 981 860 q 1004 860 1018 849 q 1032 837 1036 806 l 1036 806 l 1059 629 l 1146 806 q 1161 837 1178 848 q 1195 859 1216 859 l 1216 859 q 1237 859 1250 850 q 1262 840 1262 822 l 1262 822 q 1262 805 1251 786 l 1251 786 l 1139 593 q 1121 562 1099 547 q 1076 531 1045 531 l 1045 531"},"E":{"x_min":31,"x_max":812,"ha":686,"o":"m 755 182 q 770 188 780 188 l 780 188 q 796 188 804 176 q 812 164 812 145 l 812 145 q 812 115 798 94 q 783 73 748 56 l 748 56 q 689 28 595 12 q 501 -5 410 -5 l 410 -5 q 284 -5 199 24 q 114 52 73 102 q 31 152 31 215 l 31 215 q 31 301 87 362 q 142 422 250 449 l 250 449 q 191 466 160 509 q 128 552 128 605 l 128 605 q 128 677 174 733 q 219 788 296 818 q 373 848 465 848 l 465 848 q 589 848 651 795 q 713 741 713 656 l 713 656 q 713 597 692 561 q 670 524 630 524 l 630 524 q 602 524 586 537 q 570 549 570 574 l 570 574 q 570 591 575 611 l 575 611 q 580 644 580 656 l 580 656 q 580 692 553 715 q 526 737 463 737 l 463 737 q 378 737 327 701 q 276 665 276 604 l 276 604 q 276 557 315 527 q 353 496 440 493 l 440 493 q 462 492 471 483 q 480 474 480 453 l 480 453 q 480 387 420 386 l 420 386 q 337 384 283 363 q 228 342 204 310 q 179 277 179 240 l 179 240 q 179 178 237 147 q 295 115 421 115 l 421 115 q 504 115 597 135 q 689 154 755 182 l 755 182"},"É":{"x_min":31,"x_max":812,"ha":686,"o":"m 755 182 q 770 188 780 188 l 780 188 q 796 188 804 176 q 812 164 812 145 l 812 145 q 812 115 798 94 q 783 73 748 56 l 748 56 q 689 28 595 12 q 501 -5 410 -5 l 410 -5 q 284 -5 199 24 q 114 52 73 102 q 31 152 31 215 l 31 215 q 31 301 87 362 q 142 422 250 449 l 250 449 q 191 466 160 509 q 128 552 128 605 l 128 605 q 128 677 174 733 q 219 788 296 818 q 373 848 465 848 l 465 848 q 589 848 651 795 q 713 741 713 656 l 713 656 q 713 597 692 561 q 670 524 630 524 l 630 524 q 602 524 586 537 q 570 549 570 574 l 570 574 q 570 591 575 611 l 575 611 q 580 644 580 656 l 580 656 q 580 692 553 715 q 526 737 463 737 l 463 737 q 378 737 327 701 q 276 665 276 604 l 276 604 q 276 557 315 527 q 353 496 440 493 l 440 493 q 462 492 471 483 q 480 474 480 453 l 480 453 q 480 387 420 386 l 420 386 q 337 384 283 363 q 228 342 204 310 q 179 277 179 240 l 179 240 q 179 178 237 147 q 295 115 421 115 l 421 115 q 504 115 597 135 q 689 154 755 182 l 755 182 m 474 912 q 458 912 447 923 q 436 933 436 948 l 436 948 q 436 968 455 984 l 455 984 l 627 1131 q 647 1148 671 1148 l 671 1148 q 697 1148 716 1130 q 735 1111 735 1085 l 735 1085 q 735 1042 682 1014 l 682 1014 l 495 917 q 486 912 474 912 l 474 912"},"Ĕ":{"x_min":31,"x_max":812,"ha":686,"o":"m 755 182 q 770 188 780 188 l 780 188 q 796 188 804 176 q 812 164 812 145 l 812 145 q 812 115 798 94 q 783 73 748 56 l 748 56 q 689 28 595 12 q 501 -5 410 -5 l 410 -5 q 284 -5 199 24 q 114 52 73 102 q 31 152 31 215 l 31 215 q 31 301 87 362 q 142 422 250 449 l 250 449 q 191 466 160 509 q 128 552 128 605 l 128 605 q 128 677 174 733 q 219 788 296 818 q 373 848 465 848 l 465 848 q 589 848 651 795 q 713 741 713 656 l 713 656 q 713 597 692 561 q 670 524 630 524 l 630 524 q 602 524 586 537 q 570 549 570 574 l 570 574 q 570 591 575 611 l 575 611 q 580 644 580 656 l 580 656 q 580 692 553 715 q 526 737 463 737 l 463 737 q 378 737 327 701 q 276 665 276 604 l 276 604 q 276 557 315 527 q 353 496 440 493 l 440 493 q 462 492 471 483 q 480 474 480 453 l 480 453 q 480 387 420 386 l 420 386 q 337 384 283 363 q 228 342 204 310 q 179 277 179 240 l 179 240 q 179 178 237 147 q 295 115 421 115 l 421 115 q 504 115 597 135 q 689 154 755 182 l 755 182 m 480 912 q 418 912 373 933 q 327 953 304 986 q 280 1018 280 1052 l 280 1052 q 280 1073 297 1085 q 314 1097 339 1097 l 339 1097 q 359 1097 371 1090 q 382 1082 390 1064 l 390 1064 q 405 1032 427 1020 q 449 1008 488 1008 l 488 1008 q 527 1008 551 1023 q 575 1037 595 1067 l 595 1067 q 615 1097 652 1097 l 652 1097 q 671 1097 683 1087 q 695 1077 695 1059 l 695 1059 q 695 1027 669 993 q 643 958 594 935 q 545 912 480 912 l 480 912"},"Ě":{"x_min":31,"x_max":812,"ha":686,"o":"m 755 182 q 770 188 780 188 l 780 188 q 796 188 804 176 q 812 164 812 145 l 812 145 q 812 115 798 94 q 783 73 748 56 l 748 56 q 689 28 595 12 q 501 -5 410 -5 l 410 -5 q 284 -5 199 24 q 114 52 73 102 q 31 152 31 215 l 31 215 q 31 301 87 362 q 142 422 250 449 l 250 449 q 191 466 160 509 q 128 552 128 605 l 128 605 q 128 677 174 733 q 219 788 296 818 q 373 848 465 848 l 465 848 q 589 848 651 795 q 713 741 713 656 l 713 656 q 713 597 692 561 q 670 524 630 524 l 630 524 q 602 524 586 537 q 570 549 570 574 l 570 574 q 570 591 575 611 l 575 611 q 580 644 580 656 l 580 656 q 580 692 553 715 q 526 737 463 737 l 463 737 q 378 737 327 701 q 276 665 276 604 l 276 604 q 276 557 315 527 q 353 496 440 493 l 440 493 q 462 492 471 483 q 480 474 480 453 l 480 453 q 480 387 420 386 l 420 386 q 337 384 283 363 q 228 342 204 310 q 179 277 179 240 l 179 240 q 179 178 237 147 q 295 115 421 115 l 421 115 q 504 115 597 135 q 689 154 755 182 l 755 182 m 475 912 q 447 912 429 928 q 411 944 392 981 l 392 981 l 342 1080 q 332 1100 332 1117 l 332 1117 q 332 1138 346 1150 q 360 1161 381 1161 l 381 1161 q 402 1161 415 1153 q 428 1145 435 1125 l 435 1125 l 483 999 l 561 1122 q 575 1144 589 1153 q 603 1161 626 1161 l 626 1161 q 645 1161 658 1152 q 670 1142 670 1125 l 670 1125 q 670 1106 653 1083 l 653 1083 l 569 968 q 548 939 526 926 q 504 912 475 912 l 475 912"},"Ê":{"x_min":31,"x_max":812,"ha":686,"o":"m 755 182 q 770 188 780 188 l 780 188 q 796 188 804 176 q 812 164 812 145 l 812 145 q 812 115 798 94 q 783 73 748 56 l 748 56 q 689 28 595 12 q 501 -5 410 -5 l 410 -5 q 284 -5 199 24 q 114 52 73 102 q 31 152 31 215 l 31 215 q 31 301 87 362 q 142 422 250 449 l 250 449 q 191 466 160 509 q 128 552 128 605 l 128 605 q 128 677 174 733 q 219 788 296 818 q 373 848 465 848 l 465 848 q 589 848 651 795 q 713 741 713 656 l 713 656 q 713 597 692 561 q 670 524 630 524 l 630 524 q 602 524 586 537 q 570 549 570 574 l 570 574 q 570 591 575 611 l 575 611 q 580 644 580 656 l 580 656 q 580 692 553 715 q 526 737 463 737 l 463 737 q 378 737 327 701 q 276 665 276 604 l 276 604 q 276 557 315 527 q 353 496 440 493 l 440 493 q 462 492 471 483 q 480 474 480 453 l 480 453 q 480 387 420 386 l 420 386 q 337 384 283 363 q 228 342 204 310 q 179 277 179 240 l 179 240 q 179 178 237 147 q 295 115 421 115 l 421 115 q 504 115 597 135 q 689 154 755 182 l 755 182 m 539 948 l 498 1093 l 418 951 q 407 931 389 921 q 371 911 352 911 l 352 911 q 331 911 316 923 q 301 934 301 953 l 301 953 q 301 970 314 990 l 314 990 l 406 1127 q 443 1183 511 1183 l 511 1183 q 542 1183 561 1167 q 579 1151 594 1114 l 594 1114 l 641 993 q 647 978 647 965 l 647 965 q 647 941 630 927 q 613 912 590 912 l 590 912 q 573 912 559 922 q 544 931 539 948 l 539 948"},"Ế":{"x_min":31,"x_max":812,"ha":686,"o":"m 755 182 q 770 188 780 188 l 780 188 q 796 188 804 176 q 812 164 812 145 l 812 145 q 812 115 798 94 q 783 73 748 56 l 748 56 q 689 28 595 12 q 501 -5 410 -5 l 410 -5 q 284 -5 199 24 q 114 52 73 102 q 31 152 31 215 l 31 215 q 31 301 87 362 q 142 422 250 449 l 250 449 q 191 466 160 509 q 128 552 128 605 l 128 605 q 128 677 174 733 q 219 788 296 818 q 373 848 465 848 l 465 848 q 589 848 651 795 q 713 741 713 656 l 713 656 q 713 597 692 561 q 670 524 630 524 l 630 524 q 602 524 586 537 q 570 549 570 574 l 570 574 q 570 591 575 611 l 575 611 q 580 644 580 656 l 580 656 q 580 692 553 715 q 526 737 463 737 l 463 737 q 378 737 327 701 q 276 665 276 604 l 276 604 q 276 557 315 527 q 353 496 440 493 l 440 493 q 462 492 471 483 q 480 474 480 453 l 480 453 q 480 387 420 386 l 420 386 q 337 384 283 363 q 228 342 204 310 q 179 277 179 240 l 179 240 q 179 178 237 147 q 295 115 421 115 l 421 115 q 504 115 597 135 q 689 154 755 182 l 755 182 m 632 1099 q 618 1099 609 1108 q 600 1117 600 1130 l 600 1130 q 600 1144 616 1160 l 616 1160 l 695 1239 q 711 1255 732 1255 l 732 1255 q 754 1255 771 1239 q 787 1222 787 1200 l 787 1200 q 787 1182 777 1166 q 766 1150 742 1140 l 742 1140 l 650 1103 q 638 1099 632 1099 l 632 1099 m 352 907 q 332 907 319 915 q 305 923 305 937 l 305 937 q 305 953 324 975 l 324 975 l 406 1069 q 446 1114 511 1114 l 511 1114 q 542 1114 561 1101 q 579 1088 594 1059 l 594 1059 l 633 982 q 642 964 642 950 l 642 950 q 642 929 625 918 q 608 907 586 907 l 586 907 q 569 907 559 912 q 548 917 542 930 l 542 930 l 493 1034 l 415 932 q 395 907 352 907 l 352 907"},"Ệ":{"x_min":31,"x_max":812,"ha":686,"o":"m 755 182 q 770 188 780 188 l 780 188 q 796 188 804 176 q 812 164 812 145 l 812 145 q 812 115 798 94 q 783 73 748 56 l 748 56 q 689 28 595 12 q 501 -5 410 -5 l 410 -5 q 284 -5 199 24 q 114 52 73 102 q 31 152 31 215 l 31 215 q 31 301 87 362 q 142 422 250 449 l 250 449 q 191 466 160 509 q 128 552 128 605 l 128 605 q 128 677 174 733 q 219 788 296 818 q 373 848 465 848 l 465 848 q 589 848 651 795 q 713 741 713 656 l 713 656 q 713 597 692 561 q 670 524 630 524 l 630 524 q 602 524 586 537 q 570 549 570 574 l 570 574 q 570 591 575 611 l 575 611 q 580 644 580 656 l 580 656 q 580 692 553 715 q 526 737 463 737 l 463 737 q 378 737 327 701 q 276 665 276 604 l 276 604 q 276 557 315 527 q 353 496 440 493 l 440 493 q 462 492 471 483 q 480 474 480 453 l 480 453 q 480 387 420 386 l 420 386 q 337 384 283 363 q 228 342 204 310 q 179 277 179 240 l 179 240 q 179 178 237 147 q 295 115 421 115 l 421 115 q 504 115 597 135 q 689 154 755 182 l 755 182 m 346 -232 q 304 -232 282 -211 q 260 -191 260 -156 l 260 -156 q 260 -120 289 -96 q 317 -72 358 -72 l 358 -72 q 396 -72 420 -90 q 443 -109 443 -143 l 443 -143 q 443 -184 416 -208 q 389 -232 346 -232 l 346 -232 m 539 948 l 498 1093 l 418 951 q 407 931 389 921 q 371 911 352 911 l 352 911 q 331 911 316 923 q 301 934 301 953 l 301 953 q 301 970 314 990 l 314 990 l 406 1127 q 443 1183 511 1183 l 511 1183 q 542 1183 561 1167 q 579 1151 594 1114 l 594 1114 l 641 993 q 647 978 647 965 l 647 965 q 647 941 630 927 q 613 912 590 912 l 590 912 q 573 912 559 922 q 544 931 539 948 l 539 948"},"Ề":{"x_min":31,"x_max":812,"ha":686,"o":"m 755 182 q 770 188 780 188 l 780 188 q 796 188 804 176 q 812 164 812 145 l 812 145 q 812 115 798 94 q 783 73 748 56 l 748 56 q 689 28 595 12 q 501 -5 410 -5 l 410 -5 q 284 -5 199 24 q 114 52 73 102 q 31 152 31 215 l 31 215 q 31 301 87 362 q 142 422 250 449 l 250 449 q 191 466 160 509 q 128 552 128 605 l 128 605 q 128 677 174 733 q 219 788 296 818 q 373 848 465 848 l 465 848 q 589 848 651 795 q 713 741 713 656 l 713 656 q 713 597 692 561 q 670 524 630 524 l 630 524 q 602 524 586 537 q 570 549 570 574 l 570 574 q 570 591 575 611 l 575 611 q 580 644 580 656 l 580 656 q 580 692 553 715 q 526 737 463 737 l 463 737 q 378 737 327 701 q 276 665 276 604 l 276 604 q 276 557 315 527 q 353 496 440 493 l 440 493 q 462 492 471 483 q 480 474 480 453 l 480 453 q 480 387 420 386 l 420 386 q 337 384 283 363 q 228 342 204 310 q 179 277 179 240 l 179 240 q 179 178 237 147 q 295 115 421 115 l 421 115 q 504 115 597 135 q 689 154 755 182 l 755 182 m 371 1099 q 365 1099 353 1103 l 353 1103 l 261 1140 q 237 1150 227 1166 q 216 1182 216 1200 l 216 1200 q 216 1222 233 1239 q 249 1255 271 1255 l 271 1255 q 292 1255 308 1239 l 308 1239 l 387 1160 q 403 1144 403 1130 l 403 1130 q 403 1117 394 1108 q 385 1099 371 1099 l 371 1099 m 352 907 q 332 907 319 915 q 305 923 305 937 l 305 937 q 305 953 324 975 l 324 975 l 406 1069 q 446 1114 511 1114 l 511 1114 q 542 1114 561 1101 q 579 1088 594 1059 l 594 1059 l 633 982 q 642 964 642 950 l 642 950 q 642 929 625 918 q 608 907 586 907 l 586 907 q 569 907 559 912 q 548 917 542 930 l 542 930 l 493 1034 l 415 932 q 395 907 352 907 l 352 907"},"Ể":{"x_min":31,"x_max":812,"ha":686,"o":"m 755 182 q 770 188 780 188 l 780 188 q 796 188 804 176 q 812 164 812 145 l 812 145 q 812 115 798 94 q 783 73 748 56 l 748 56 q 689 28 595 12 q 501 -5 410 -5 l 410 -5 q 284 -5 199 24 q 114 52 73 102 q 31 152 31 215 l 31 215 q 31 301 87 362 q 142 422 250 449 l 250 449 q 191 466 160 509 q 128 552 128 605 l 128 605 q 128 677 174 733 q 219 788 296 818 q 373 848 465 848 l 465 848 q 589 848 651 795 q 713 741 713 656 l 713 656 q 713 597 692 561 q 670 524 630 524 l 630 524 q 602 524 586 537 q 570 549 570 574 l 570 574 q 570 591 575 611 l 575 611 q 580 644 580 656 l 580 656 q 580 692 553 715 q 526 737 463 737 l 463 737 q 378 737 327 701 q 276 665 276 604 l 276 604 q 276 557 315 527 q 353 496 440 493 l 440 493 q 462 492 471 483 q 480 474 480 453 l 480 453 q 480 387 420 386 l 420 386 q 337 384 283 363 q 228 342 204 310 q 179 277 179 240 l 179 240 q 179 178 237 147 q 295 115 421 115 l 421 115 q 504 115 597 135 q 689 154 755 182 l 755 182 m 657 1037 q 638 1037 631 1045 q 623 1053 623 1070 l 623 1070 q 623 1108 663 1108 l 663 1108 q 688 1108 701 1118 q 714 1128 714 1143 l 714 1143 q 714 1175 674 1175 l 674 1175 q 658 1175 640 1173 q 621 1171 617 1171 l 617 1171 q 603 1171 598 1178 q 593 1184 593 1202 l 593 1202 q 593 1220 603 1228 q 612 1236 632 1241 l 632 1241 q 648 1245 676 1245 l 676 1245 q 795 1245 795 1153 l 795 1153 q 795 1099 762 1068 q 728 1037 669 1037 l 669 1037 l 657 1037 m 352 907 q 332 907 319 915 q 305 923 305 937 l 305 937 q 305 953 324 975 l 324 975 l 406 1069 q 446 1114 511 1114 l 511 1114 q 542 1114 561 1101 q 579 1088 594 1059 l 594 1059 l 633 982 q 642 964 642 950 l 642 950 q 642 929 625 918 q 608 907 586 907 l 586 907 q 569 907 559 912 q 548 917 542 930 l 542 930 l 493 1034 l 415 932 q 395 907 352 907 l 352 907"},"Ễ":{"x_min":31,"x_max":812,"ha":686,"o":"m 755 182 q 770 188 780 188 l 780 188 q 796 188 804 176 q 812 164 812 145 l 812 145 q 812 115 798 94 q 783 73 748 56 l 748 56 q 689 28 595 12 q 501 -5 410 -5 l 410 -5 q 284 -5 199 24 q 114 52 73 102 q 31 152 31 215 l 31 215 q 31 301 87 362 q 142 422 250 449 l 250 449 q 191 466 160 509 q 128 552 128 605 l 128 605 q 128 677 174 733 q 219 788 296 818 q 373 848 465 848 l 465 848 q 589 848 651 795 q 713 741 713 656 l 713 656 q 713 597 692 561 q 670 524 630 524 l 630 524 q 602 524 586 537 q 570 549 570 574 l 570 574 q 570 591 575 611 l 575 611 q 580 644 580 656 l 580 656 q 580 692 553 715 q 526 737 463 737 l 463 737 q 378 737 327 701 q 276 665 276 604 l 276 604 q 276 557 315 527 q 353 496 440 493 l 440 493 q 462 492 471 483 q 480 474 480 453 l 480 453 q 480 387 420 386 l 420 386 q 337 384 283 363 q 228 342 204 310 q 179 277 179 240 l 179 240 q 179 178 237 147 q 295 115 421 115 l 421 115 q 504 115 597 135 q 689 154 755 182 l 755 182 m 585 1119 q 570 1119 559 1123 q 547 1127 529 1139 l 529 1139 l 438 1199 l 400 1148 q 386 1130 361 1130 l 361 1130 q 345 1130 334 1139 q 322 1147 322 1162 l 322 1162 q 322 1182 354 1227 l 354 1227 q 390 1278 436 1278 l 436 1278 q 451 1278 463 1274 q 474 1270 492 1257 l 492 1257 l 583 1198 l 621 1248 q 628 1257 639 1262 q 649 1266 661 1266 l 661 1266 q 677 1266 688 1258 q 699 1250 699 1235 l 699 1235 q 699 1224 692 1212 q 685 1199 667 1170 l 667 1170 q 634 1119 585 1119 l 585 1119 m 352 907 q 332 907 319 915 q 305 923 305 937 l 305 937 q 305 953 324 975 l 324 975 l 406 1069 q 446 1114 511 1114 l 511 1114 q 542 1114 561 1101 q 579 1088 594 1059 l 594 1059 l 633 982 q 642 964 642 950 l 642 950 q 642 929 625 918 q 608 907 586 907 l 586 907 q 569 907 559 912 q 548 917 542 930 l 542 930 l 493 1034 l 415 932 q 395 907 352 907 l 352 907"},"Ȅ":{"x_min":31,"x_max":812,"ha":686,"o":"m 755 182 q 770 188 780 188 l 780 188 q 796 188 804 176 q 812 164 812 145 l 812 145 q 812 115 798 94 q 783 73 748 56 l 748 56 q 689 28 595 12 q 501 -5 410 -5 l 410 -5 q 284 -5 199 24 q 114 52 73 102 q 31 152 31 215 l 31 215 q 31 301 87 362 q 142 422 250 449 l 250 449 q 191 466 160 509 q 128 552 128 605 l 128 605 q 128 677 174 733 q 219 788 296 818 q 373 848 465 848 l 465 848 q 589 848 651 795 q 713 741 713 656 l 713 656 q 713 597 692 561 q 670 524 630 524 l 630 524 q 602 524 586 537 q 570 549 570 574 l 570 574 q 570 591 575 611 l 575 611 q 580 644 580 656 l 580 656 q 580 692 553 715 q 526 737 463 737 l 463 737 q 378 737 327 701 q 276 665 276 604 l 276 604 q 276 557 315 527 q 353 496 440 493 l 440 493 q 462 492 471 483 q 480 474 480 453 l 480 453 q 480 387 420 386 l 420 386 q 337 384 283 363 q 228 342 204 310 q 179 277 179 240 l 179 240 q 179 178 237 147 q 295 115 421 115 l 421 115 q 504 115 597 135 q 689 154 755 182 l 755 182 m 385 912 q 361 912 347 934 l 347 934 l 283 1038 q 267 1064 267 1087 l 267 1087 q 267 1114 286 1131 q 305 1148 329 1148 l 329 1148 q 347 1148 362 1138 q 376 1127 382 1106 l 382 1106 l 423 964 q 425 954 425 950 l 425 950 q 425 933 413 923 q 401 912 385 912 l 385 912 m 566 912 q 542 912 528 934 l 528 934 l 464 1038 q 448 1064 448 1087 l 448 1087 q 448 1114 467 1131 q 486 1148 510 1148 l 510 1148 q 528 1148 543 1138 q 557 1127 563 1106 l 563 1106 l 604 964 q 606 954 606 950 l 606 950 q 606 933 594 923 q 582 912 566 912 l 566 912"},"Ë":{"x_min":31,"x_max":812,"ha":686,"o":"m 755 182 q 770 188 780 188 l 780 188 q 796 188 804 176 q 812 164 812 145 l 812 145 q 812 115 798 94 q 783 73 748 56 l 748 56 q 689 28 595 12 q 501 -5 410 -5 l 410 -5 q 284 -5 199 24 q 114 52 73 102 q 31 152 31 215 l 31 215 q 31 301 87 362 q 142 422 250 449 l 250 449 q 191 466 160 509 q 128 552 128 605 l 128 605 q 128 677 174 733 q 219 788 296 818 q 373 848 465 848 l 465 848 q 589 848 651 795 q 713 741 713 656 l 713 656 q 713 597 692 561 q 670 524 630 524 l 630 524 q 602 524 586 537 q 570 549 570 574 l 570 574 q 570 591 575 611 l 575 611 q 580 644 580 656 l 580 656 q 580 692 553 715 q 526 737 463 737 l 463 737 q 378 737 327 701 q 276 665 276 604 l 276 604 q 276 557 315 527 q 353 496 440 493 l 440 493 q 462 492 471 483 q 480 474 480 453 l 480 453 q 480 387 420 386 l 420 386 q 337 384 283 363 q 228 342 204 310 q 179 277 179 240 l 179 240 q 179 178 237 147 q 295 115 421 115 l 421 115 q 504 115 597 135 q 689 154 755 182 l 755 182 m 375 912 q 343 912 324 931 q 305 949 305 986 l 305 986 q 305 1027 327 1050 q 349 1073 386 1073 l 386 1073 q 418 1073 437 1055 q 456 1036 456 999 l 456 999 q 456 958 434 935 q 412 912 375 912 l 375 912 m 583 912 q 551 912 532 931 q 513 949 513 986 l 513 986 q 513 1027 535 1050 q 557 1073 594 1073 l 594 1073 q 626 1073 645 1055 q 664 1036 664 999 l 664 999 q 664 958 642 935 q 620 912 583 912 l 583 912"},"Ė":{"x_min":31,"x_max":812,"ha":686,"o":"m 755 182 q 770 188 780 188 l 780 188 q 796 188 804 176 q 812 164 812 145 l 812 145 q 812 115 798 94 q 783 73 748 56 l 748 56 q 689 28 595 12 q 501 -5 410 -5 l 410 -5 q 284 -5 199 24 q 114 52 73 102 q 31 152 31 215 l 31 215 q 31 301 87 362 q 142 422 250 449 l 250 449 q 191 466 160 509 q 128 552 128 605 l 128 605 q 128 677 174 733 q 219 788 296 818 q 373 848 465 848 l 465 848 q 589 848 651 795 q 713 741 713 656 l 713 656 q 713 597 692 561 q 670 524 630 524 l 630 524 q 602 524 586 537 q 570 549 570 574 l 570 574 q 570 591 575 611 l 575 611 q 580 644 580 656 l 580 656 q 580 692 553 715 q 526 737 463 737 l 463 737 q 378 737 327 701 q 276 665 276 604 l 276 604 q 276 557 315 527 q 353 496 440 493 l 440 493 q 462 492 471 483 q 480 474 480 453 l 480 453 q 480 387 420 386 l 420 386 q 337 384 283 363 q 228 342 204 310 q 179 277 179 240 l 179 240 q 179 178 237 147 q 295 115 421 115 l 421 115 q 504 115 597 135 q 689 154 755 182 l 755 182 m 477 912 q 435 912 413 933 q 391 953 391 988 l 391 988 q 391 1024 420 1048 q 448 1072 489 1072 l 489 1072 q 527 1072 551 1054 q 574 1035 574 1001 l 574 1001 q 574 960 547 936 q 520 912 477 912 l 477 912"},"Ẹ":{"x_min":31,"x_max":812,"ha":686,"o":"m 755 182 q 770 188 780 188 l 780 188 q 796 188 804 176 q 812 164 812 145 l 812 145 q 812 115 798 94 q 783 73 748 56 l 748 56 q 689 28 595 12 q 501 -5 410 -5 l 410 -5 q 284 -5 199 24 q 114 52 73 102 q 31 152 31 215 l 31 215 q 31 301 87 362 q 142 422 250 449 l 250 449 q 191 466 160 509 q 128 552 128 605 l 128 605 q 128 677 174 733 q 219 788 296 818 q 373 848 465 848 l 465 848 q 589 848 651 795 q 713 741 713 656 l 713 656 q 713 597 692 561 q 670 524 630 524 l 630 524 q 602 524 586 537 q 570 549 570 574 l 570 574 q 570 591 575 611 l 575 611 q 580 644 580 656 l 580 656 q 580 692 553 715 q 526 737 463 737 l 463 737 q 378 737 327 701 q 276 665 276 604 l 276 604 q 276 557 315 527 q 353 496 440 493 l 440 493 q 462 492 471 483 q 480 474 480 453 l 480 453 q 480 387 420 386 l 420 386 q 337 384 283 363 q 228 342 204 310 q 179 277 179 240 l 179 240 q 179 178 237 147 q 295 115 421 115 l 421 115 q 504 115 597 135 q 689 154 755 182 l 755 182 m 346 -232 q 304 -232 282 -211 q 260 -191 260 -156 l 260 -156 q 260 -120 289 -96 q 317 -72 358 -72 l 358 -72 q 396 -72 420 -90 q 443 -109 443 -143 l 443 -143 q 443 -184 416 -208 q 389 -232 346 -232 l 346 -232"},"È":{"x_min":31,"x_max":812,"ha":686,"o":"m 755 182 q 770 188 780 188 l 780 188 q 796 188 804 176 q 812 164 812 145 l 812 145 q 812 115 798 94 q 783 73 748 56 l 748 56 q 689 28 595 12 q 501 -5 410 -5 l 410 -5 q 284 -5 199 24 q 114 52 73 102 q 31 152 31 215 l 31 215 q 31 301 87 362 q 142 422 250 449 l 250 449 q 191 466 160 509 q 128 552 128 605 l 128 605 q 128 677 174 733 q 219 788 296 818 q 373 848 465 848 l 465 848 q 589 848 651 795 q 713 741 713 656 l 713 656 q 713 597 692 561 q 670 524 630 524 l 630 524 q 602 524 586 537 q 570 549 570 574 l 570 574 q 570 591 575 611 l 575 611 q 580 644 580 656 l 580 656 q 580 692 553 715 q 526 737 463 737 l 463 737 q 378 737 327 701 q 276 665 276 604 l 276 604 q 276 557 315 527 q 353 496 440 493 l 440 493 q 462 492 471 483 q 480 474 480 453 l 480 453 q 480 387 420 386 l 420 386 q 337 384 283 363 q 228 342 204 310 q 179 277 179 240 l 179 240 q 179 178 237 147 q 295 115 421 115 l 421 115 q 504 115 597 135 q 689 154 755 182 l 755 182 m 461 912 q 449 912 440 917 l 440 917 l 253 1014 q 200 1042 200 1085 l 200 1085 q 200 1111 219 1130 q 238 1148 264 1148 l 264 1148 q 288 1148 308 1131 l 308 1131 l 480 984 q 499 968 499 948 l 499 948 q 499 933 488 923 q 477 912 461 912 l 461 912"},"Ẻ":{"x_min":31,"x_max":812,"ha":686,"o":"m 755 182 q 770 188 780 188 l 780 188 q 796 188 804 176 q 812 164 812 145 l 812 145 q 812 115 798 94 q 783 73 748 56 l 748 56 q 689 28 595 12 q 501 -5 410 -5 l 410 -5 q 284 -5 199 24 q 114 52 73 102 q 31 152 31 215 l 31 215 q 31 301 87 362 q 142 422 250 449 l 250 449 q 191 466 160 509 q 128 552 128 605 l 128 605 q 128 677 174 733 q 219 788 296 818 q 373 848 465 848 l 465 848 q 589 848 651 795 q 713 741 713 656 l 713 656 q 713 597 692 561 q 670 524 630 524 l 630 524 q 602 524 586 537 q 570 549 570 574 l 570 574 q 570 591 575 611 l 575 611 q 580 644 580 656 l 580 656 q 580 692 553 715 q 526 737 463 737 l 463 737 q 378 737 327 701 q 276 665 276 604 l 276 604 q 276 557 315 527 q 353 496 440 493 l 440 493 q 462 492 471 483 q 480 474 480 453 l 480 453 q 480 387 420 386 l 420 386 q 337 384 283 363 q 228 342 204 310 q 179 277 179 240 l 179 240 q 179 178 237 147 q 295 115 421 115 l 421 115 q 504 115 597 135 q 689 154 755 182 l 755 182 m 462 912 q 440 912 431 921 q 422 930 422 948 l 422 948 q 422 975 435 985 q 448 995 470 995 l 470 995 q 499 995 514 1007 q 529 1019 529 1037 l 529 1037 q 529 1054 518 1064 q 506 1074 482 1074 l 482 1074 q 464 1074 442 1072 q 420 1069 415 1069 l 415 1069 q 399 1069 393 1077 q 387 1085 387 1106 l 387 1106 q 387 1127 399 1137 q 410 1147 433 1152 l 433 1152 q 457 1157 485 1157 l 485 1157 q 625 1157 625 1048 l 625 1048 q 625 985 586 949 q 546 912 477 912 l 477 912 l 462 912"},"Ȇ":{"x_min":31,"x_max":812,"ha":686,"o":"m 755 182 q 770 188 780 188 l 780 188 q 796 188 804 176 q 812 164 812 145 l 812 145 q 812 115 798 94 q 783 73 748 56 l 748 56 q 689 28 595 12 q 501 -5 410 -5 l 410 -5 q 284 -5 199 24 q 114 52 73 102 q 31 152 31 215 l 31 215 q 31 301 87 362 q 142 422 250 449 l 250 449 q 191 466 160 509 q 128 552 128 605 l 128 605 q 128 677 174 733 q 219 788 296 818 q 373 848 465 848 l 465 848 q 589 848 651 795 q 713 741 713 656 l 713 656 q 713 597 692 561 q 670 524 630 524 l 630 524 q 602 524 586 537 q 570 549 570 574 l 570 574 q 570 591 575 611 l 575 611 q 580 644 580 656 l 580 656 q 580 692 553 715 q 526 737 463 737 l 463 737 q 378 737 327 701 q 276 665 276 604 l 276 604 q 276 557 315 527 q 353 496 440 493 l 440 493 q 462 492 471 483 q 480 474 480 453 l 480 453 q 480 387 420 386 l 420 386 q 337 384 283 363 q 228 342 204 310 q 179 277 179 240 l 179 240 q 179 178 237 147 q 295 115 421 115 l 421 115 q 504 115 597 135 q 689 154 755 182 l 755 182 m 325 912 q 306 912 294 922 q 282 932 282 950 l 282 950 q 282 982 308 1017 q 334 1051 383 1074 q 432 1097 497 1097 l 497 1097 q 559 1097 605 1077 q 650 1056 674 1024 q 697 991 697 957 l 697 957 q 697 936 680 924 q 663 912 638 912 l 638 912 q 618 912 607 920 q 595 927 587 945 l 587 945 q 572 977 550 989 q 528 1001 489 1001 l 489 1001 q 450 1001 426 987 q 402 972 382 942 l 382 942 q 362 912 325 912 l 325 912"},"Ē":{"x_min":31,"x_max":812,"ha":686,"o":"m 755 182 q 770 188 780 188 l 780 188 q 796 188 804 176 q 812 164 812 145 l 812 145 q 812 115 798 94 q 783 73 748 56 l 748 56 q 689 28 595 12 q 501 -5 410 -5 l 410 -5 q 284 -5 199 24 q 114 52 73 102 q 31 152 31 215 l 31 215 q 31 301 87 362 q 142 422 250 449 l 250 449 q 191 466 160 509 q 128 552 128 605 l 128 605 q 128 677 174 733 q 219 788 296 818 q 373 848 465 848 l 465 848 q 589 848 651 795 q 713 741 713 656 l 713 656 q 713 597 692 561 q 670 524 630 524 l 630 524 q 602 524 586 537 q 570 549 570 574 l 570 574 q 570 591 575 611 l 575 611 q 580 644 580 656 l 580 656 q 580 692 553 715 q 526 737 463 737 l 463 737 q 378 737 327 701 q 276 665 276 604 l 276 604 q 276 557 315 527 q 353 496 440 493 l 440 493 q 462 492 471 483 q 480 474 480 453 l 480 453 q 480 387 420 386 l 420 386 q 337 384 283 363 q 228 342 204 310 q 179 277 179 240 l 179 240 q 179 178 237 147 q 295 115 421 115 l 421 115 q 504 115 597 135 q 689 154 755 182 l 755 182 m 360 912 q 315 912 315 956 l 315 956 q 315 981 329 996 q 343 1010 368 1010 l 368 1010 l 591 1010 q 613 1010 625 1000 q 636 989 636 969 l 636 969 q 636 942 622 927 q 608 912 583 912 l 583 912 l 360 912"},"Ę":{"x_min":31,"x_max":812,"ha":686,"o":"m 755 182 q 770 188 780 188 l 780 188 q 796 188 804 176 q 812 164 812 145 l 812 145 q 812 115 798 94 q 783 73 748 56 l 748 56 q 703 34 635 19 q 566 4 490 -2 l 490 -2 q 438 -44 438 -101 l 438 -101 q 438 -130 456 -145 q 474 -160 500 -160 l 500 -160 q 526 -160 547 -153 l 547 -153 q 563 -147 574 -147 l 574 -147 q 588 -147 594 -156 q 600 -166 600 -185 l 600 -185 q 600 -206 589 -220 q 578 -235 553 -244 l 553 -244 q 541 -248 522 -251 q 502 -254 486 -254 l 486 -254 q 416 -254 374 -217 q 332 -181 332 -118 l 332 -118 q 332 -56 373 -4 l 373 -4 q 260 0 183 30 q 106 59 69 107 q 31 155 31 215 l 31 215 q 31 301 87 362 q 142 422 250 449 l 250 449 q 191 466 160 509 q 128 552 128 605 l 128 605 q 128 677 174 733 q 219 788 296 818 q 373 848 465 848 l 465 848 q 589 848 651 795 q 713 741 713 656 l 713 656 q 713 597 692 561 q 670 524 630 524 l 630 524 q 602 524 586 537 q 570 549 570 574 l 570 574 q 570 591 575 611 l 575 611 q 580 644 580 656 l 580 656 q 580 692 553 715 q 526 737 463 737 l 463 737 q 378 737 327 701 q 276 665 276 604 l 276 604 q 276 557 315 527 q 353 496 440 493 l 440 493 q 462 492 471 483 q 480 474 480 453 l 480 453 q 480 387 420 386 l 420 386 q 337 384 283 363 q 228 342 204 310 q 179 277 179 240 l 179 240 q 179 178 237 147 q 295 115 421 115 l 421 115 q 504 115 597 135 q 689 154 755 182 l 755 182"},"Ẽ":{"x_min":31,"x_max":812,"ha":686,"o":"m 755 182 q 770 188 780 188 l 780 188 q 796 188 804 176 q 812 164 812 145 l 812 145 q 812 115 798 94 q 783 73 748 56 l 748 56 q 689 28 595 12 q 501 -5 410 -5 l 410 -5 q 284 -5 199 24 q 114 52 73 102 q 31 152 31 215 l 31 215 q 31 301 87 362 q 142 422 250 449 l 250 449 q 191 466 160 509 q 128 552 128 605 l 128 605 q 128 677 174 733 q 219 788 296 818 q 373 848 465 848 l 465 848 q 589 848 651 795 q 713 741 713 656 l 713 656 q 713 597 692 561 q 670 524 630 524 l 630 524 q 602 524 586 537 q 570 549 570 574 l 570 574 q 570 591 575 611 l 575 611 q 580 644 580 656 l 580 656 q 580 692 553 715 q 526 737 463 737 l 463 737 q 378 737 327 701 q 276 665 276 604 l 276 604 q 276 557 315 527 q 353 496 440 493 l 440 493 q 462 492 471 483 q 480 474 480 453 l 480 453 q 480 387 420 386 l 420 386 q 337 384 283 363 q 228 342 204 310 q 179 277 179 240 l 179 240 q 179 178 237 147 q 295 115 421 115 l 421 115 q 504 115 597 135 q 689 154 755 182 l 755 182 m 575 912 q 559 912 545 918 q 531 923 509 938 l 509 938 l 402 1012 l 358 949 q 350 938 338 933 q 325 927 312 927 l 312 927 q 293 927 280 937 q 266 947 266 966 l 266 966 q 266 993 303 1047 l 303 1047 q 347 1111 400 1111 l 400 1111 q 417 1111 431 1106 q 444 1101 466 1085 l 466 1085 l 573 1011 l 617 1074 q 625 1085 638 1091 q 650 1096 663 1096 l 663 1096 q 682 1096 696 1086 q 709 1076 709 1057 l 709 1057 q 709 1044 701 1028 q 693 1011 672 976 l 672 976 q 652 943 627 928 q 602 912 575 912 l 575 912"},"F":{"x_min":-1,"x_max":936,"ha":712,"o":"m 887 829 q 915 825 926 812 q 936 799 936 778 l 936 778 q 936 709 862 714 l 862 714 l 827 717 q 768 722 710 725 q 651 728 587 728 l 587 728 l 542 728 q 530 580 517 458 l 517 458 l 689 461 q 726 461 739 448 q 751 435 751 413 l 751 413 q 751 379 731 360 q 711 340 674 340 l 674 340 l 503 340 l 497 297 q 476 132 408 62 q 339 -8 219 -8 l 219 -8 q 151 -8 94 22 q 37 51 10 93 l 10 93 q -1 110 -1 134 l -1 134 q -1 158 11 176 q 22 194 39 194 l 39 194 q 51 194 63 186 q 74 178 92 155 l 92 155 q 140 92 211 92 l 211 92 q 268 92 307 139 q 345 185 356 285 l 356 285 l 362 340 l 314 340 q 291 340 275 353 q 258 366 258 390 l 258 390 q 258 421 274 438 q 290 454 321 454 l 321 454 q 349 454 376 455 l 376 455 q 388 565 402 722 l 402 722 q 294 712 250 687 q 206 662 206 613 l 206 613 q 206 579 226 548 l 226 548 q 232 539 232 530 l 232 530 q 232 512 212 499 q 192 485 167 485 l 167 485 q 140 485 121 501 l 121 501 q 109 511 98 542 q 87 573 87 611 l 87 611 q 87 735 215 791 q 342 847 587 847 l 587 847 q 757 847 887 829 l 887 829"},"G":{"x_min":64,"x_max":920,"ha":811,"o":"m 892 221 q 905 221 913 209 q 920 196 920 177 l 920 177 q 920 154 913 141 q 906 128 891 118 l 891 118 q 832 79 703 -10 l 703 -10 q 664 -217 602 -336 q 540 -455 445 -455 l 445 -455 q 394 -455 362 -423 q 330 -392 330 -341 l 330 -341 q 330 -294 351 -246 q 372 -198 430 -135 q 487 -72 592 9 l 592 9 l 595 28 q 516 -5 440 -5 l 440 -5 q 328 -5 243 39 q 158 82 111 162 q 64 242 64 348 l 64 348 q 64 496 120 610 q 176 723 275 786 q 373 848 495 848 l 495 848 q 612 848 671 794 q 729 739 729 649 l 729 649 q 729 590 708 555 q 686 519 646 519 l 646 519 q 619 519 603 532 q 586 545 586 568 l 586 568 q 586 578 590 602 l 590 602 q 596 630 596 646 l 596 646 q 596 688 571 711 q 545 734 485 734 l 485 734 q 412 734 350 692 q 287 650 249 567 q 211 483 211 366 l 211 366 q 211 246 277 181 q 342 115 466 115 l 466 115 q 535 115 610 146 l 610 146 l 624 268 l 522 268 q 494 268 479 282 q 464 295 464 326 l 464 326 q 464 354 479 370 q 494 386 519 386 l 519 386 l 706 386 q 728 386 743 372 q 757 357 754 330 l 754 330 q 751 298 734 185 l 734 185 l 723 109 q 803 169 869 213 l 869 213 q 882 221 892 221 l 892 221 m 456 -358 q 482 -358 513 -299 q 544 -240 571 -109 l 571 -109 q 495 -174 462 -226 q 428 -279 428 -319 l 428 -319 q 428 -358 456 -358 l 456 -358"},"Ğ":{"x_min":64,"x_max":920,"ha":811,"o":"m 892 221 q 905 221 913 209 q 920 196 920 177 l 920 177 q 920 154 913 141 q 906 128 891 118 l 891 118 q 832 79 703 -10 l 703 -10 q 664 -217 602 -336 q 540 -455 445 -455 l 445 -455 q 394 -455 362 -423 q 330 -392 330 -341 l 330 -341 q 330 -294 351 -246 q 372 -198 430 -135 q 487 -72 592 9 l 592 9 l 595 28 q 516 -5 440 -5 l 440 -5 q 328 -5 243 39 q 158 82 111 162 q 64 242 64 348 l 64 348 q 64 496 120 610 q 176 723 275 786 q 373 848 495 848 l 495 848 q 612 848 671 794 q 729 739 729 649 l 729 649 q 729 590 708 555 q 686 519 646 519 l 646 519 q 619 519 603 532 q 586 545 586 568 l 586 568 q 586 578 590 602 l 590 602 q 596 630 596 646 l 596 646 q 596 688 571 711 q 545 734 485 734 l 485 734 q 412 734 350 692 q 287 650 249 567 q 211 483 211 366 l 211 366 q 211 246 277 181 q 342 115 466 115 l 466 115 q 535 115 610 146 l 610 146 l 624 268 l 522 268 q 494 268 479 282 q 464 295 464 326 l 464 326 q 464 354 479 370 q 494 386 519 386 l 519 386 l 706 386 q 728 386 743 372 q 757 357 754 330 l 754 330 q 751 298 734 185 l 734 185 l 723 109 q 803 169 869 213 l 869 213 q 882 221 892 221 l 892 221 m 456 -358 q 482 -358 513 -299 q 544 -240 571 -109 l 571 -109 q 495 -174 462 -226 q 428 -279 428 -319 l 428 -319 q 428 -358 456 -358 l 456 -358 m 509 912 q 447 912 402 933 q 356 953 333 986 q 309 1018 309 1052 l 309 1052 q 309 1073 326 1085 q 343 1097 368 1097 l 368 1097 q 388 1097 400 1090 q 411 1082 419 1064 l 419 1064 q 434 1032 456 1020 q 478 1008 517 1008 l 517 1008 q 556 1008 580 1023 q 604 1037 624 1067 l 624 1067 q 644 1097 681 1097 l 681 1097 q 700 1097 712 1087 q 724 1077 724 1059 l 724 1059 q 724 1027 698 993 q 672 958 623 935 q 574 912 509 912 l 509 912"},"Ǧ":{"x_min":64,"x_max":920,"ha":811,"o":"m 892 221 q 905 221 913 209 q 920 196 920 177 l 920 177 q 920 154 913 141 q 906 128 891 118 l 891 118 q 832 79 703 -10 l 703 -10 q 664 -217 602 -336 q 540 -455 445 -455 l 445 -455 q 394 -455 362 -423 q 330 -392 330 -341 l 330 -341 q 330 -294 351 -246 q 372 -198 430 -135 q 487 -72 592 9 l 592 9 l 595 28 q 516 -5 440 -5 l 440 -5 q 328 -5 243 39 q 158 82 111 162 q 64 242 64 348 l 64 348 q 64 496 120 610 q 176 723 275 786 q 373 848 495 848 l 495 848 q 612 848 671 794 q 729 739 729 649 l 729 649 q 729 590 708 555 q 686 519 646 519 l 646 519 q 619 519 603 532 q 586 545 586 568 l 586 568 q 586 578 590 602 l 590 602 q 596 630 596 646 l 596 646 q 596 688 571 711 q 545 734 485 734 l 485 734 q 412 734 350 692 q 287 650 249 567 q 211 483 211 366 l 211 366 q 211 246 277 181 q 342 115 466 115 l 466 115 q 535 115 610 146 l 610 146 l 624 268 l 522 268 q 494 268 479 282 q 464 295 464 326 l 464 326 q 464 354 479 370 q 494 386 519 386 l 519 386 l 706 386 q 728 386 743 372 q 757 357 754 330 l 754 330 q 751 298 734 185 l 734 185 l 723 109 q 803 169 869 213 l 869 213 q 882 221 892 221 l 892 221 m 456 -358 q 482 -358 513 -299 q 544 -240 571 -109 l 571 -109 q 495 -174 462 -226 q 428 -279 428 -319 l 428 -319 q 428 -358 456 -358 l 456 -358 m 504 912 q 476 912 458 928 q 440 944 421 981 l 421 981 l 371 1080 q 361 1100 361 1117 l 361 1117 q 361 1138 375 1150 q 389 1161 410 1161 l 410 1161 q 431 1161 444 1153 q 457 1145 464 1125 l 464 1125 l 512 999 l 590 1122 q 604 1144 618 1153 q 632 1161 655 1161 l 655 1161 q 674 1161 687 1152 q 699 1142 699 1125 l 699 1125 q 699 1106 682 1083 l 682 1083 l 598 968 q 577 939 555 926 q 533 912 504 912 l 504 912"},"Ĝ":{"x_min":64,"x_max":920,"ha":811,"o":"m 892 221 q 905 221 913 209 q 920 196 920 177 l 920 177 q 920 154 913 141 q 906 128 891 118 l 891 118 q 832 79 703 -10 l 703 -10 q 664 -217 602 -336 q 540 -455 445 -455 l 445 -455 q 394 -455 362 -423 q 330 -392 330 -341 l 330 -341 q 330 -294 351 -246 q 372 -198 430 -135 q 487 -72 592 9 l 592 9 l 595 28 q 516 -5 440 -5 l 440 -5 q 328 -5 243 39 q 158 82 111 162 q 64 242 64 348 l 64 348 q 64 496 120 610 q 176 723 275 786 q 373 848 495 848 l 495 848 q 612 848 671 794 q 729 739 729 649 l 729 649 q 729 590 708 555 q 686 519 646 519 l 646 519 q 619 519 603 532 q 586 545 586 568 l 586 568 q 586 578 590 602 l 590 602 q 596 630 596 646 l 596 646 q 596 688 571 711 q 545 734 485 734 l 485 734 q 412 734 350 692 q 287 650 249 567 q 211 483 211 366 l 211 366 q 211 246 277 181 q 342 115 466 115 l 466 115 q 535 115 610 146 l 610 146 l 624 268 l 522 268 q 494 268 479 282 q 464 295 464 326 l 464 326 q 464 354 479 370 q 494 386 519 386 l 519 386 l 706 386 q 728 386 743 372 q 757 357 754 330 l 754 330 q 751 298 734 185 l 734 185 l 723 109 q 803 169 869 213 l 869 213 q 882 221 892 221 l 892 221 m 456 -358 q 482 -358 513 -299 q 544 -240 571 -109 l 571 -109 q 495 -174 462 -226 q 428 -279 428 -319 l 428 -319 q 428 -358 456 -358 l 456 -358 m 568 948 l 527 1093 l 447 951 q 436 931 418 921 q 400 911 381 911 l 381 911 q 360 911 345 923 q 330 934 330 953 l 330 953 q 330 970 343 990 l 343 990 l 435 1127 q 472 1183 540 1183 l 540 1183 q 571 1183 590 1167 q 608 1151 623 1114 l 623 1114 l 670 993 q 676 978 676 965 l 676 965 q 676 941 659 927 q 642 912 619 912 l 619 912 q 602 912 588 922 q 573 931 568 948 l 568 948"},"Ģ":{"x_min":64,"x_max":920,"ha":811,"o":"m 892 221 q 905 221 913 209 q 920 196 920 177 l 920 177 q 920 154 913 141 q 906 128 891 118 l 891 118 q 832 79 703 -10 l 703 -10 q 664 -217 602 -336 q 540 -455 445 -455 l 445 -455 q 394 -455 362 -423 q 330 -392 330 -341 l 330 -341 q 330 -294 351 -246 q 372 -198 430 -135 q 487 -72 592 9 l 592 9 l 595 28 q 516 -5 440 -5 l 440 -5 q 328 -5 243 39 q 158 82 111 162 q 64 242 64 348 l 64 348 q 64 496 120 610 q 176 723 275 786 q 373 848 495 848 l 495 848 q 612 848 671 794 q 729 739 729 649 l 729 649 q 729 590 708 555 q 686 519 646 519 l 646 519 q 619 519 603 532 q 586 545 586 568 l 586 568 q 586 578 590 602 l 590 602 q 596 630 596 646 l 596 646 q 596 688 571 711 q 545 734 485 734 l 485 734 q 412 734 350 692 q 287 650 249 567 q 211 483 211 366 l 211 366 q 211 246 277 181 q 342 115 466 115 l 466 115 q 535 115 610 146 l 610 146 l 624 268 l 522 268 q 494 268 479 282 q 464 295 464 326 l 464 326 q 464 354 479 370 q 494 386 519 386 l 519 386 l 706 386 q 728 386 743 372 q 757 357 754 330 l 754 330 q 751 298 734 185 l 734 185 l 723 109 q 803 169 869 213 l 869 213 q 882 221 892 221 l 892 221 m 456 -358 q 482 -358 513 -299 q 544 -240 571 -109 l 571 -109 q 495 -174 462 -226 q 428 -279 428 -319 l 428 -319 q 428 -358 456 -358 l 456 -358 m 246 -254 q 228 -254 215 -243 q 202 -232 203 -213 l 203 -213 l 206 -111 q 207 -80 225 -65 q 242 -50 266 -50 l 266 -50 q 291 -50 310 -64 q 328 -79 328 -106 l 328 -106 q 328 -120 322 -136 l 322 -136 l 293 -221 q 288 -237 275 -245 q 261 -254 246 -254 l 246 -254"},"Ġ":{"x_min":64,"x_max":920,"ha":811,"o":"m 892 221 q 905 221 913 209 q 920 196 920 177 l 920 177 q 920 154 913 141 q 906 128 891 118 l 891 118 q 832 79 703 -10 l 703 -10 q 664 -217 602 -336 q 540 -455 445 -455 l 445 -455 q 394 -455 362 -423 q 330 -392 330 -341 l 330 -341 q 330 -294 351 -246 q 372 -198 430 -135 q 487 -72 592 9 l 592 9 l 595 28 q 516 -5 440 -5 l 440 -5 q 328 -5 243 39 q 158 82 111 162 q 64 242 64 348 l 64 348 q 64 496 120 610 q 176 723 275 786 q 373 848 495 848 l 495 848 q 612 848 671 794 q 729 739 729 649 l 729 649 q 729 590 708 555 q 686 519 646 519 l 646 519 q 619 519 603 532 q 586 545 586 568 l 586 568 q 586 578 590 602 l 590 602 q 596 630 596 646 l 596 646 q 596 688 571 711 q 545 734 485 734 l 485 734 q 412 734 350 692 q 287 650 249 567 q 211 483 211 366 l 211 366 q 211 246 277 181 q 342 115 466 115 l 466 115 q 535 115 610 146 l 610 146 l 624 268 l 522 268 q 494 268 479 282 q 464 295 464 326 l 464 326 q 464 354 479 370 q 494 386 519 386 l 519 386 l 706 386 q 728 386 743 372 q 757 357 754 330 l 754 330 q 751 298 734 185 l 734 185 l 723 109 q 803 169 869 213 l 869 213 q 882 221 892 221 l 892 221 m 456 -358 q 482 -358 513 -299 q 544 -240 571 -109 l 571 -109 q 495 -174 462 -226 q 428 -279 428 -319 l 428 -319 q 428 -358 456 -358 l 456 -358 m 506 912 q 464 912 442 933 q 420 953 420 988 l 420 988 q 420 1024 449 1048 q 477 1072 518 1072 l 518 1072 q 556 1072 580 1054 q 603 1035 603 1001 l 603 1001 q 603 960 576 936 q 549 912 506 912 l 506 912"},"H":{"x_min":-16,"x_max":1002,"ha":873,"o":"m 974 223 q 987 223 995 211 q 1002 199 1002 178 l 1002 178 q 1002 139 983 116 l 983 116 q 884 -5 772 -5 l 772 -5 q 675 -5 617 70 q 559 145 559 285 l 559 285 q 559 319 562 353 l 562 353 q 496 341 418 335 l 418 335 q 366 331 347 330 l 347 330 q 327 228 291 80 l 291 80 q 270 -7 211 -7 l 211 -7 q 147 -7 147 51 l 147 51 q 147 64 152 87 l 152 87 q 186 224 206 319 l 206 319 l 158 317 q 125 317 110 329 q 95 340 95 366 l 95 366 q 95 399 114 415 q 133 430 177 432 l 177 432 l 230 434 q 256 575 256 649 l 256 649 q 256 696 242 713 q 228 730 205 730 l 205 730 q 135 730 47 613 l 47 613 q 34 596 18 596 l 18 596 q 4 596 -6 609 q -16 622 -16 642 l -16 642 q -16 673 9 708 l 9 708 q 53 769 120 809 q 187 848 256 848 l 256 848 q 321 848 357 804 q 392 759 392 665 l 392 665 q 392 582 368 440 l 368 440 l 466 445 q 529 448 574 455 l 574 455 q 592 565 629 661 q 666 757 721 817 q 776 877 844 877 l 844 877 q 894 877 923 838 q 952 798 952 734 l 952 734 q 952 486 699 390 l 699 390 q 696 350 696 307 l 696 307 q 696 202 722 158 q 748 114 795 114 l 795 114 q 836 114 870 136 q 904 157 947 209 l 947 209 q 959 223 974 223 l 974 223 m 839 790 q 817 790 793 750 q 768 710 746 641 q 724 572 711 490 l 711 490 q 791 523 829 584 q 867 645 867 741 l 867 741 q 867 764 859 777 q 851 790 839 790 l 839 790"},"Ħ":{"x_min":56,"x_max":880,"ha":856,"o":"m 795 599 l 776 599 q 769 546 758 491 l 758 491 l 787 491 q 819 491 834 477 q 848 463 848 440 l 848 440 q 848 406 830 388 q 812 370 763 370 l 763 370 l 738 370 l 736 357 q 725 290 714 202 q 702 113 698 65 l 698 65 q 695 28 676 12 q 657 -5 623 -5 l 623 -5 q 554 -5 554 55 l 554 55 q 554 87 564 153 q 573 218 592 329 l 592 329 l 596 355 l 599 370 l 418 370 l 281 368 l 279 357 q 268 290 257 202 q 245 113 241 65 l 241 65 q 238 28 219 12 q 200 -5 166 -5 l 166 -5 q 97 -5 97 55 l 97 55 q 97 87 107 153 q 116 218 135 329 l 135 329 l 139 355 l 141 365 l 109 364 q 56 364 56 411 l 56 411 q 56 447 75 466 q 94 484 140 484 l 140 484 l 162 484 l 162 486 q 172 537 179 595 l 179 595 l 140 594 q 88 594 88 634 l 88 634 q 88 665 107 681 q 126 697 172 697 l 172 697 l 192 697 q 199 750 200 778 l 200 778 q 203 815 223 832 q 243 848 281 848 l 281 848 q 344 848 344 788 l 344 788 q 344 757 335 698 l 335 698 l 468 699 q 535 699 649 701 l 649 701 q 650 710 657 778 l 657 778 q 660 815 680 832 q 700 848 738 848 l 738 848 q 801 848 801 788 l 801 788 q 801 761 793 703 l 793 703 l 819 703 q 851 703 866 691 q 880 679 880 659 l 880 659 q 880 630 862 615 q 844 599 795 599 l 795 599 m 619 489 q 628 538 636 599 l 636 599 l 450 599 l 319 598 l 301 488 l 300 485 l 436 486 l 619 489"},"Ĥ":{"x_min":-16,"x_max":1002,"ha":873,"o":"m 974 223 q 987 223 995 211 q 1002 199 1002 178 l 1002 178 q 1002 139 983 116 l 983 116 q 884 -5 772 -5 l 772 -5 q 675 -5 617 70 q 559 145 559 285 l 559 285 q 559 319 562 353 l 562 353 q 496 341 418 335 l 418 335 q 366 331 347 330 l 347 330 q 327 228 291 80 l 291 80 q 270 -7 211 -7 l 211 -7 q 147 -7 147 51 l 147 51 q 147 64 152 87 l 152 87 q 186 224 206 319 l 206 319 l 158 317 q 125 317 110 329 q 95 340 95 366 l 95 366 q 95 399 114 415 q 133 430 177 432 l 177 432 l 230 434 q 256 575 256 649 l 256 649 q 256 696 242 713 q 228 730 205 730 l 205 730 q 135 730 47 613 l 47 613 q 34 596 18 596 l 18 596 q 4 596 -6 609 q -16 622 -16 642 l -16 642 q -16 673 9 708 l 9 708 q 53 769 120 809 q 187 848 256 848 l 256 848 q 321 848 357 804 q 392 759 392 665 l 392 665 q 392 582 368 440 l 368 440 l 466 445 q 529 448 574 455 l 574 455 q 592 565 629 661 q 666 757 721 817 q 776 877 844 877 l 844 877 q 894 877 923 838 q 952 798 952 734 l 952 734 q 952 486 699 390 l 699 390 q 696 350 696 307 l 696 307 q 696 202 722 158 q 748 114 795 114 l 795 114 q 836 114 870 136 q 904 157 947 209 l 947 209 q 959 223 974 223 l 974 223 m 839 790 q 817 790 793 750 q 768 710 746 641 q 724 572 711 490 l 711 490 q 791 523 829 584 q 867 645 867 741 l 867 741 q 867 764 859 777 q 851 790 839 790 l 839 790 m 602 948 l 561 1093 l 481 951 q 470 931 452 921 q 434 911 415 911 l 415 911 q 394 911 379 923 q 364 934 364 953 l 364 953 q 364 970 377 990 l 377 990 l 469 1127 q 506 1183 574 1183 l 574 1183 q 605 1183 624 1167 q 642 1151 657 1114 l 657 1114 l 704 993 q 710 978 710 965 l 710 965 q 710 941 693 927 q 676 912 653 912 l 653 912 q 636 912 622 922 q 607 931 602 948 l 602 948"},"I":{"x_min":-17,"x_max":556,"ha":495,"o":"m 494 842 q 520 842 538 830 q 556 817 556 799 l 556 799 q 556 767 536 748 q 516 728 479 728 l 479 728 q 421 728 391 727 l 391 727 q 389 715 373 619 l 373 619 q 355 512 351 488 l 351 488 l 330 357 q 308 210 295 111 l 295 111 q 316 112 352 112 l 352 112 q 405 112 424 98 q 443 84 443 56 l 443 56 q 443 30 423 12 q 402 -6 365 -6 l 365 -6 q 340 -6 286 -4 l 286 -4 q 236 -2 220 -2 l 220 -2 q 157 -2 82 -13 l 82 -13 q 49 -18 35 -18 l 35 -18 q 13 -18 -2 -6 q -17 6 -17 29 l -17 29 q -17 65 15 85 q 47 105 105 106 l 105 106 l 152 107 l 155 129 q 179 289 190 355 l 190 355 l 212 486 q 232 602 248 725 l 248 725 l 164 724 q 128 724 115 736 q 101 747 101 768 l 101 768 q 101 836 199 841 l 199 841 q 245 843 311 843 l 311 843 l 494 842"},"Í":{"x_min":-17,"x_max":607,"ha":495,"o":"m 494 842 q 520 842 538 830 q 556 817 556 799 l 556 799 q 556 767 536 748 q 516 728 479 728 l 479 728 q 421 728 391 727 l 391 727 q 389 715 373 619 l 373 619 q 355 512 351 488 l 351 488 l 330 357 q 308 210 295 111 l 295 111 q 316 112 352 112 l 352 112 q 405 112 424 98 q 443 84 443 56 l 443 56 q 443 30 423 12 q 402 -6 365 -6 l 365 -6 q 340 -6 286 -4 l 286 -4 q 236 -2 220 -2 l 220 -2 q 157 -2 82 -13 l 82 -13 q 49 -18 35 -18 l 35 -18 q 13 -18 -2 -6 q -17 6 -17 29 l -17 29 q -17 65 15 85 q 47 105 105 106 l 105 106 l 152 107 l 155 129 q 179 289 190 355 l 190 355 l 212 486 q 232 602 248 725 l 248 725 l 164 724 q 128 724 115 736 q 101 747 101 768 l 101 768 q 101 836 199 841 l 199 841 q 245 843 311 843 l 311 843 l 494 842 m 346 912 q 330 912 319 923 q 308 933 308 948 l 308 948 q 308 968 327 984 l 327 984 l 499 1131 q 519 1148 543 1148 l 543 1148 q 569 1148 588 1130 q 607 1111 607 1085 l 607 1085 q 607 1042 554 1014 l 554 1014 l 367 917 q 358 912 346 912 l 346 912"},"Ĭ":{"x_min":-17,"x_max":567,"ha":495,"o":"m 494 842 q 520 842 538 830 q 556 817 556 799 l 556 799 q 556 767 536 748 q 516 728 479 728 l 479 728 q 421 728 391 727 l 391 727 q 389 715 373 619 l 373 619 q 355 512 351 488 l 351 488 l 330 357 q 308 210 295 111 l 295 111 q 316 112 352 112 l 352 112 q 405 112 424 98 q 443 84 443 56 l 443 56 q 443 30 423 12 q 402 -6 365 -6 l 365 -6 q 340 -6 286 -4 l 286 -4 q 236 -2 220 -2 l 220 -2 q 157 -2 82 -13 l 82 -13 q 49 -18 35 -18 l 35 -18 q 13 -18 -2 -6 q -17 6 -17 29 l -17 29 q -17 65 15 85 q 47 105 105 106 l 105 106 l 152 107 l 155 129 q 179 289 190 355 l 190 355 l 212 486 q 232 602 248 725 l 248 725 l 164 724 q 128 724 115 736 q 101 747 101 768 l 101 768 q 101 836 199 841 l 199 841 q 245 843 311 843 l 311 843 l 494 842 m 352 912 q 290 912 245 933 q 199 953 176 986 q 152 1018 152 1052 l 152 1052 q 152 1073 169 1085 q 186 1097 211 1097 l 211 1097 q 231 1097 243 1090 q 254 1082 262 1064 l 262 1064 q 277 1032 299 1020 q 321 1008 360 1008 l 360 1008 q 399 1008 423 1023 q 447 1037 467 1067 l 467 1067 q 487 1097 524 1097 l 524 1097 q 543 1097 555 1087 q 567 1077 567 1059 l 567 1059 q 567 1027 541 993 q 515 958 466 935 q 417 912 352 912 l 352 912"},"Î":{"x_min":-17,"x_max":556,"ha":495,"o":"m 494 842 q 520 842 538 830 q 556 817 556 799 l 556 799 q 556 767 536 748 q 516 728 479 728 l 479 728 q 421 728 391 727 l 391 727 q 389 715 373 619 l 373 619 q 355 512 351 488 l 351 488 l 330 357 q 308 210 295 111 l 295 111 q 316 112 352 112 l 352 112 q 405 112 424 98 q 443 84 443 56 l 443 56 q 443 30 423 12 q 402 -6 365 -6 l 365 -6 q 340 -6 286 -4 l 286 -4 q 236 -2 220 -2 l 220 -2 q 157 -2 82 -13 l 82 -13 q 49 -18 35 -18 l 35 -18 q 13 -18 -2 -6 q -17 6 -17 29 l -17 29 q -17 65 15 85 q 47 105 105 106 l 105 106 l 152 107 l 155 129 q 179 289 190 355 l 190 355 l 212 486 q 232 602 248 725 l 248 725 l 164 724 q 128 724 115 736 q 101 747 101 768 l 101 768 q 101 836 199 841 l 199 841 q 245 843 311 843 l 311 843 l 494 842 m 411 948 l 370 1093 l 290 951 q 279 931 261 921 q 243 911 224 911 l 224 911 q 203 911 188 923 q 173 934 173 953 l 173 953 q 173 970 186 990 l 186 990 l 278 1127 q 315 1183 383 1183 l 383 1183 q 414 1183 433 1167 q 451 1151 466 1114 l 466 1114 l 513 993 q 519 978 519 965 l 519 965 q 519 941 502 927 q 485 912 462 912 l 462 912 q 445 912 431 922 q 416 931 411 948 l 411 948"},"Ȉ":{"x_min":-17,"x_max":556,"ha":495,"o":"m 494 842 q 520 842 538 830 q 556 817 556 799 l 556 799 q 556 767 536 748 q 516 728 479 728 l 479 728 q 421 728 391 727 l 391 727 q 389 715 373 619 l 373 619 q 355 512 351 488 l 351 488 l 330 357 q 308 210 295 111 l 295 111 q 316 112 352 112 l 352 112 q 405 112 424 98 q 443 84 443 56 l 443 56 q 443 30 423 12 q 402 -6 365 -6 l 365 -6 q 340 -6 286 -4 l 286 -4 q 236 -2 220 -2 l 220 -2 q 157 -2 82 -13 l 82 -13 q 49 -18 35 -18 l 35 -18 q 13 -18 -2 -6 q -17 6 -17 29 l -17 29 q -17 65 15 85 q 47 105 105 106 l 105 106 l 152 107 l 155 129 q 179 289 190 355 l 190 355 l 212 486 q 232 602 248 725 l 248 725 l 164 724 q 128 724 115 736 q 101 747 101 768 l 101 768 q 101 836 199 841 l 199 841 q 245 843 311 843 l 311 843 l 494 842 m 257 912 q 233 912 219 934 l 219 934 l 155 1038 q 139 1064 139 1087 l 139 1087 q 139 1114 158 1131 q 177 1148 201 1148 l 201 1148 q 219 1148 234 1138 q 248 1127 254 1106 l 254 1106 l 295 964 q 297 954 297 950 l 297 950 q 297 933 285 923 q 273 912 257 912 l 257 912 m 438 912 q 414 912 400 934 l 400 934 l 336 1038 q 320 1064 320 1087 l 320 1087 q 320 1114 339 1131 q 358 1148 382 1148 l 382 1148 q 400 1148 415 1138 q 429 1127 435 1106 l 435 1106 l 476 964 q 478 954 478 950 l 478 950 q 478 933 466 923 q 454 912 438 912 l 438 912"},"Ï":{"x_min":-17,"x_max":556,"ha":495,"o":"m 494 842 q 520 842 538 830 q 556 817 556 799 l 556 799 q 556 767 536 748 q 516 728 479 728 l 479 728 q 421 728 391 727 l 391 727 q 389 715 373 619 l 373 619 q 355 512 351 488 l 351 488 l 330 357 q 308 210 295 111 l 295 111 q 316 112 352 112 l 352 112 q 405 112 424 98 q 443 84 443 56 l 443 56 q 443 30 423 12 q 402 -6 365 -6 l 365 -6 q 340 -6 286 -4 l 286 -4 q 236 -2 220 -2 l 220 -2 q 157 -2 82 -13 l 82 -13 q 49 -18 35 -18 l 35 -18 q 13 -18 -2 -6 q -17 6 -17 29 l -17 29 q -17 65 15 85 q 47 105 105 106 l 105 106 l 152 107 l 155 129 q 179 289 190 355 l 190 355 l 212 486 q 232 602 248 725 l 248 725 l 164 724 q 128 724 115 736 q 101 747 101 768 l 101 768 q 101 836 199 841 l 199 841 q 245 843 311 843 l 311 843 l 494 842 m 247 912 q 215 912 196 931 q 177 949 177 986 l 177 986 q 177 1027 199 1050 q 221 1073 258 1073 l 258 1073 q 290 1073 309 1055 q 328 1036 328 999 l 328 999 q 328 958 306 935 q 284 912 247 912 l 247 912 m 455 912 q 423 912 404 931 q 385 949 385 986 l 385 986 q 385 1027 407 1050 q 429 1073 466 1073 l 466 1073 q 498 1073 517 1055 q 536 1036 536 999 l 536 999 q 536 958 514 935 q 492 912 455 912 l 455 912"},"İ":{"x_min":-17,"x_max":556,"ha":495,"o":"m 494 842 q 520 842 538 830 q 556 817 556 799 l 556 799 q 556 767 536 748 q 516 728 479 728 l 479 728 q 421 728 391 727 l 391 727 q 389 715 373 619 l 373 619 q 355 512 351 488 l 351 488 l 330 357 q 308 210 295 111 l 295 111 q 316 112 352 112 l 352 112 q 405 112 424 98 q 443 84 443 56 l 443 56 q 443 30 423 12 q 402 -6 365 -6 l 365 -6 q 340 -6 286 -4 l 286 -4 q 236 -2 220 -2 l 220 -2 q 157 -2 82 -13 l 82 -13 q 49 -18 35 -18 l 35 -18 q 13 -18 -2 -6 q -17 6 -17 29 l -17 29 q -17 65 15 85 q 47 105 105 106 l 105 106 l 152 107 l 155 129 q 179 289 190 355 l 190 355 l 212 486 q 232 602 248 725 l 248 725 l 164 724 q 128 724 115 736 q 101 747 101 768 l 101 768 q 101 836 199 841 l 199 841 q 245 843 311 843 l 311 843 l 494 842 m 349 912 q 307 912 285 933 q 263 953 263 988 l 263 988 q 263 1024 292 1048 q 320 1072 361 1072 l 361 1072 q 399 1072 423 1054 q 446 1035 446 1001 l 446 1001 q 446 960 419 936 q 392 912 349 912 l 349 912"},"Ị":{"x_min":-17,"x_max":556,"ha":495,"o":"m 494 842 q 520 842 538 830 q 556 817 556 799 l 556 799 q 556 767 536 748 q 516 728 479 728 l 479 728 q 421 728 391 727 l 391 727 q 389 715 373 619 l 373 619 q 355 512 351 488 l 351 488 l 330 357 q 308 210 295 111 l 295 111 q 316 112 352 112 l 352 112 q 405 112 424 98 q 443 84 443 56 l 443 56 q 443 30 423 12 q 402 -6 365 -6 l 365 -6 q 340 -6 286 -4 l 286 -4 q 236 -2 220 -2 l 220 -2 q 157 -2 82 -13 l 82 -13 q 49 -18 35 -18 l 35 -18 q 13 -18 -2 -6 q -17 6 -17 29 l -17 29 q -17 65 15 85 q 47 105 105 106 l 105 106 l 152 107 l 155 129 q 179 289 190 355 l 190 355 l 212 486 q 232 602 248 725 l 248 725 l 164 724 q 128 724 115 736 q 101 747 101 768 l 101 768 q 101 836 199 841 l 199 841 q 245 843 311 843 l 311 843 l 494 842 m 195 -232 q 153 -232 131 -211 q 109 -191 109 -156 l 109 -156 q 109 -120 138 -96 q 166 -72 207 -72 l 207 -72 q 245 -72 269 -90 q 292 -109 292 -143 l 292 -143 q 292 -184 265 -208 q 238 -232 195 -232 l 195 -232"},"Ì":{"x_min":-17,"x_max":556,"ha":495,"o":"m 494 842 q 520 842 538 830 q 556 817 556 799 l 556 799 q 556 767 536 748 q 516 728 479 728 l 479 728 q 421 728 391 727 l 391 727 q 389 715 373 619 l 373 619 q 355 512 351 488 l 351 488 l 330 357 q 308 210 295 111 l 295 111 q 316 112 352 112 l 352 112 q 405 112 424 98 q 443 84 443 56 l 443 56 q 443 30 423 12 q 402 -6 365 -6 l 365 -6 q 340 -6 286 -4 l 286 -4 q 236 -2 220 -2 l 220 -2 q 157 -2 82 -13 l 82 -13 q 49 -18 35 -18 l 35 -18 q 13 -18 -2 -6 q -17 6 -17 29 l -17 29 q -17 65 15 85 q 47 105 105 106 l 105 106 l 152 107 l 155 129 q 179 289 190 355 l 190 355 l 212 486 q 232 602 248 725 l 248 725 l 164 724 q 128 724 115 736 q 101 747 101 768 l 101 768 q 101 836 199 841 l 199 841 q 245 843 311 843 l 311 843 l 494 842 m 333 912 q 321 912 312 917 l 312 917 l 125 1014 q 72 1042 72 1085 l 72 1085 q 72 1111 91 1130 q 110 1148 136 1148 l 136 1148 q 160 1148 180 1131 l 180 1131 l 352 984 q 371 968 371 948 l 371 948 q 371 933 360 923 q 349 912 333 912 l 333 912"},"Ỉ":{"x_min":-17,"x_max":556,"ha":495,"o":"m 494 842 q 520 842 538 830 q 556 817 556 799 l 556 799 q 556 767 536 748 q 516 728 479 728 l 479 728 q 421 728 391 727 l 391 727 q 389 715 373 619 l 373 619 q 355 512 351 488 l 351 488 l 330 357 q 308 210 295 111 l 295 111 q 316 112 352 112 l 352 112 q 405 112 424 98 q 443 84 443 56 l 443 56 q 443 30 423 12 q 402 -6 365 -6 l 365 -6 q 340 -6 286 -4 l 286 -4 q 236 -2 220 -2 l 220 -2 q 157 -2 82 -13 l 82 -13 q 49 -18 35 -18 l 35 -18 q 13 -18 -2 -6 q -17 6 -17 29 l -17 29 q -17 65 15 85 q 47 105 105 106 l 105 106 l 152 107 l 155 129 q 179 289 190 355 l 190 355 l 212 486 q 232 602 248 725 l 248 725 l 164 724 q 128 724 115 736 q 101 747 101 768 l 101 768 q 101 836 199 841 l 199 841 q 245 843 311 843 l 311 843 l 494 842 m 334 912 q 312 912 303 921 q 294 930 294 948 l 294 948 q 294 975 307 985 q 320 995 342 995 l 342 995 q 371 995 386 1007 q 401 1019 401 1037 l 401 1037 q 401 1054 390 1064 q 378 1074 354 1074 l 354 1074 q 336 1074 314 1072 q 292 1069 287 1069 l 287 1069 q 271 1069 265 1077 q 259 1085 259 1106 l 259 1106 q 259 1127 271 1137 q 282 1147 305 1152 l 305 1152 q 329 1157 357 1157 l 357 1157 q 497 1157 497 1048 l 497 1048 q 497 985 458 949 q 418 912 349 912 l 349 912 l 334 912"},"Ȋ":{"x_min":-17,"x_max":569,"ha":495,"o":"m 494 842 q 520 842 538 830 q 556 817 556 799 l 556 799 q 556 767 536 748 q 516 728 479 728 l 479 728 q 421 728 391 727 l 391 727 q 389 715 373 619 l 373 619 q 355 512 351 488 l 351 488 l 330 357 q 308 210 295 111 l 295 111 q 316 112 352 112 l 352 112 q 405 112 424 98 q 443 84 443 56 l 443 56 q 443 30 423 12 q 402 -6 365 -6 l 365 -6 q 340 -6 286 -4 l 286 -4 q 236 -2 220 -2 l 220 -2 q 157 -2 82 -13 l 82 -13 q 49 -18 35 -18 l 35 -18 q 13 -18 -2 -6 q -17 6 -17 29 l -17 29 q -17 65 15 85 q 47 105 105 106 l 105 106 l 152 107 l 155 129 q 179 289 190 355 l 190 355 l 212 486 q 232 602 248 725 l 248 725 l 164 724 q 128 724 115 736 q 101 747 101 768 l 101 768 q 101 836 199 841 l 199 841 q 245 843 311 843 l 311 843 l 494 842 m 197 912 q 178 912 166 922 q 154 932 154 950 l 154 950 q 154 982 180 1017 q 206 1051 255 1074 q 304 1097 369 1097 l 369 1097 q 431 1097 477 1077 q 522 1056 546 1024 q 569 991 569 957 l 569 957 q 569 936 552 924 q 535 912 510 912 l 510 912 q 490 912 479 920 q 467 927 459 945 l 459 945 q 444 977 422 989 q 400 1001 361 1001 l 361 1001 q 322 1001 298 987 q 274 972 254 942 l 254 942 q 234 912 197 912 l 197 912"},"Ī":{"x_min":-17,"x_max":556,"ha":495,"o":"m 494 842 q 520 842 538 830 q 556 817 556 799 l 556 799 q 556 767 536 748 q 516 728 479 728 l 479 728 q 421 728 391 727 l 391 727 q 389 715 373 619 l 373 619 q 355 512 351 488 l 351 488 l 330 357 q 308 210 295 111 l 295 111 q 316 112 352 112 l 352 112 q 405 112 424 98 q 443 84 443 56 l 443 56 q 443 30 423 12 q 402 -6 365 -6 l 365 -6 q 340 -6 286 -4 l 286 -4 q 236 -2 220 -2 l 220 -2 q 157 -2 82 -13 l 82 -13 q 49 -18 35 -18 l 35 -18 q 13 -18 -2 -6 q -17 6 -17 29 l -17 29 q -17 65 15 85 q 47 105 105 106 l 105 106 l 152 107 l 155 129 q 179 289 190 355 l 190 355 l 212 486 q 232 602 248 725 l 248 725 l 164 724 q 128 724 115 736 q 101 747 101 768 l 101 768 q 101 836 199 841 l 199 841 q 245 843 311 843 l 311 843 l 494 842 m 232 912 q 187 912 187 956 l 187 956 q 187 981 201 996 q 215 1010 240 1010 l 240 1010 l 463 1010 q 485 1010 497 1000 q 508 989 508 969 l 508 969 q 508 942 494 927 q 480 912 455 912 l 455 912 l 232 912"},"Į":{"x_min":-17,"x_max":556,"ha":495,"o":"m 494 842 q 520 842 538 830 q 556 817 556 799 l 556 799 q 556 767 536 748 q 516 728 479 728 l 479 728 q 421 728 391 727 l 391 727 q 389 715 373 619 l 373 619 q 355 512 351 488 l 351 488 l 330 357 q 308 210 295 111 l 295 111 q 316 112 352 112 l 352 112 q 405 112 424 98 q 443 84 443 56 l 443 56 q 443 30 423 12 q 402 -6 365 -6 l 365 -6 q 342 -6 292 -4 l 292 -4 l 257 -3 q 206 -46 206 -101 l 206 -101 q 206 -130 224 -145 q 242 -160 268 -160 l 268 -160 q 294 -160 315 -153 l 315 -153 q 332 -147 342 -147 l 342 -147 q 356 -147 362 -156 q 368 -166 368 -185 l 368 -185 q 368 -206 357 -220 q 346 -235 321 -244 l 321 -244 q 309 -248 290 -251 q 270 -254 254 -254 l 254 -254 q 184 -254 142 -217 q 100 -181 100 -118 l 100 -118 q 100 -57 140 -6 l 140 -6 q 131 -7 85 -13 l 85 -13 q 50 -18 35 -18 l 35 -18 q 13 -18 -2 -6 q -17 6 -17 29 l -17 29 q -17 65 15 85 q 47 105 105 106 l 105 106 l 152 107 l 155 129 q 179 289 190 355 l 190 355 l 212 486 q 232 602 248 725 l 248 725 l 164 724 q 128 724 115 736 q 101 747 101 768 l 101 768 q 101 836 199 841 l 199 841 q 245 843 311 843 l 311 843 l 494 842"},"Ĩ":{"x_min":-17,"x_max":581,"ha":495,"o":"m 494 842 q 520 842 538 830 q 556 817 556 799 l 556 799 q 556 767 536 748 q 516 728 479 728 l 479 728 q 421 728 391 727 l 391 727 q 389 715 373 619 l 373 619 q 355 512 351 488 l 351 488 l 330 357 q 308 210 295 111 l 295 111 q 316 112 352 112 l 352 112 q 405 112 424 98 q 443 84 443 56 l 443 56 q 443 30 423 12 q 402 -6 365 -6 l 365 -6 q 340 -6 286 -4 l 286 -4 q 236 -2 220 -2 l 220 -2 q 157 -2 82 -13 l 82 -13 q 49 -18 35 -18 l 35 -18 q 13 -18 -2 -6 q -17 6 -17 29 l -17 29 q -17 65 15 85 q 47 105 105 106 l 105 106 l 152 107 l 155 129 q 179 289 190 355 l 190 355 l 212 486 q 232 602 248 725 l 248 725 l 164 724 q 128 724 115 736 q 101 747 101 768 l 101 768 q 101 836 199 841 l 199 841 q 245 843 311 843 l 311 843 l 494 842 m 447 912 q 431 912 417 918 q 403 923 381 938 l 381 938 l 274 1012 l 230 949 q 222 938 210 933 q 197 927 184 927 l 184 927 q 165 927 152 937 q 138 947 138 966 l 138 966 q 138 993 175 1047 l 175 1047 q 219 1111 272 1111 l 272 1111 q 289 1111 303 1106 q 316 1101 338 1085 l 338 1085 l 445 1011 l 489 1074 q 497 1085 510 1091 q 522 1096 535 1096 l 535 1096 q 554 1096 568 1086 q 581 1076 581 1057 l 581 1057 q 581 1044 573 1028 q 565 1011 544 976 l 544 976 q 524 943 499 928 q 474 912 447 912 l 447 912"},"J":{"x_min":71,"x_max":766,"ha":743,"o":"m 766 767 q 766 737 754 722 q 741 707 713 707 l 713 707 q 711 686 704 634 l 704 634 q 694 564 693 556 l 693 556 q 604 -107 322 -107 l 322 -107 q 239 -107 193 -60 q 146 -13 146 58 l 146 58 q 146 185 254 283 q 362 380 538 444 l 538 444 q 549 515 555 571 l 555 571 l 573 722 q 513 728 461 728 l 461 728 q 322 728 256 701 q 190 674 190 613 l 190 613 q 190 583 210 548 l 210 548 q 216 538 216 527 l 216 527 q 216 506 195 490 q 173 473 148 473 l 148 473 q 116 473 99 500 l 99 500 q 71 546 71 607 l 71 607 q 71 847 491 847 l 491 847 q 613 847 709 823 l 709 823 q 766 809 766 767 l 766 767 m 335 0 q 384 0 433 74 q 482 148 519 333 l 519 333 q 275 226 275 71 l 275 71 q 275 37 291 19 q 307 0 335 0 l 335 0"},"Ĵ":{"x_min":71,"x_max":766,"ha":743,"o":"m 766 767 q 766 737 754 722 q 741 707 713 707 l 713 707 q 711 686 704 634 l 704 634 q 694 564 693 556 l 693 556 q 604 -107 322 -107 l 322 -107 q 239 -107 193 -60 q 146 -13 146 58 l 146 58 q 146 185 254 283 q 362 380 538 444 l 538 444 q 549 515 555 571 l 555 571 l 573 722 q 513 728 461 728 l 461 728 q 322 728 256 701 q 190 674 190 613 l 190 613 q 190 583 210 548 l 210 548 q 216 538 216 527 l 216 527 q 216 506 195 490 q 173 473 148 473 l 148 473 q 116 473 99 500 l 99 500 q 71 546 71 607 l 71 607 q 71 847 491 847 l 491 847 q 613 847 709 823 l 709 823 q 766 809 766 767 l 766 767 m 335 0 q 384 0 433 74 q 482 148 519 333 l 519 333 q 275 226 275 71 l 275 71 q 275 37 291 19 q 307 0 335 0 l 335 0 m 512 948 l 471 1093 l 391 951 q 380 931 362 921 q 344 911 325 911 l 325 911 q 304 911 289 923 q 274 934 274 953 l 274 953 q 274 970 287 990 l 287 990 l 379 1127 q 416 1183 484 1183 l 484 1183 q 515 1183 534 1167 q 552 1151 567 1114 l 567 1114 l 614 993 q 620 978 620 965 l 620 965 q 620 941 603 927 q 586 912 563 912 l 563 912 q 546 912 532 922 q 517 931 512 948 l 512 948"},"K":{"x_min":26,"x_max":1066,"ha":937,"o":"m 1038 223 q 1051 223 1059 211 q 1066 199 1066 178 l 1066 178 q 1066 139 1047 116 l 1047 116 q 999 58 950 27 q 901 -5 834 -5 l 834 -5 q 760 -5 713 39 q 666 82 625 174 l 625 174 q 595 240 576 273 q 556 305 537 319 q 518 332 489 335 l 489 335 l 478 261 q 457 118 397 55 q 336 -8 230 -8 l 230 -8 q 161 -8 108 26 q 54 59 33 111 l 33 111 q 26 129 26 150 l 26 150 q 26 180 40 202 q 54 224 76 224 l 76 224 q 89 224 98 218 q 107 211 115 195 l 115 195 q 146 137 170 114 q 193 91 228 91 l 228 91 q 268 91 297 128 q 325 164 337 240 l 337 240 l 351 335 l 335 335 q 312 335 299 348 q 286 361 286 384 l 286 384 q 286 410 300 426 q 313 441 333 441 l 333 441 l 366 441 q 373 490 376 509 l 376 509 l 407 734 q 381 737 358 737 l 358 737 q 273 737 229 708 q 185 678 185 623 l 185 623 q 185 598 191 583 q 196 567 205 548 l 205 548 q 209 540 209 530 l 209 530 q 209 508 189 492 q 168 475 143 475 l 143 475 q 111 475 96 503 l 96 503 q 66 556 66 617 l 66 617 q 66 680 101 732 q 135 784 205 816 q 275 847 378 847 l 378 847 q 423 847 461 842 q 498 837 543 823 l 543 823 q 592 808 592 767 l 592 767 q 592 712 545 712 l 545 712 l 506 443 q 623 455 697 544 q 770 632 819 784 l 819 784 q 828 812 850 827 q 871 842 904 842 l 904 842 q 932 842 948 830 q 963 817 963 794 l 963 794 q 963 787 959 771 l 959 771 q 909 606 816 509 q 723 412 613 380 l 613 380 q 651 371 676 353 q 700 335 717 309 q 734 282 756 235 l 756 235 q 787 169 814 142 q 841 114 877 114 l 877 114 q 909 114 938 136 q 967 157 1011 209 l 1011 209 q 1023 223 1038 223 l 1038 223"},"Ķ":{"x_min":26,"x_max":1066,"ha":937,"o":"m 1038 223 q 1051 223 1059 211 q 1066 199 1066 178 l 1066 178 q 1066 139 1047 116 l 1047 116 q 999 58 950 27 q 901 -5 834 -5 l 834 -5 q 760 -5 713 39 q 666 82 625 174 l 625 174 q 595 240 576 273 q 556 305 537 319 q 518 332 489 335 l 489 335 l 478 261 q 457 118 397 55 q 336 -8 230 -8 l 230 -8 q 161 -8 108 26 q 54 59 33 111 l 33 111 q 26 129 26 150 l 26 150 q 26 180 40 202 q 54 224 76 224 l 76 224 q 89 224 98 218 q 107 211 115 195 l 115 195 q 146 137 170 114 q 193 91 228 91 l 228 91 q 268 91 297 128 q 325 164 337 240 l 337 240 l 351 335 l 335 335 q 312 335 299 348 q 286 361 286 384 l 286 384 q 286 410 300 426 q 313 441 333 441 l 333 441 l 366 441 q 373 490 376 509 l 376 509 l 407 734 q 381 737 358 737 l 358 737 q 273 737 229 708 q 185 678 185 623 l 185 623 q 185 598 191 583 q 196 567 205 548 l 205 548 q 209 540 209 530 l 209 530 q 209 508 189 492 q 168 475 143 475 l 143 475 q 111 475 96 503 l 96 503 q 66 556 66 617 l 66 617 q 66 680 101 732 q 135 784 205 816 q 275 847 378 847 l 378 847 q 423 847 461 842 q 498 837 543 823 l 543 823 q 592 808 592 767 l 592 767 q 592 712 545 712 l 545 712 l 506 443 q 623 455 697 544 q 770 632 819 784 l 819 784 q 828 812 850 827 q 871 842 904 842 l 904 842 q 932 842 948 830 q 963 817 963 794 l 963 794 q 963 787 959 771 l 959 771 q 909 606 816 509 q 723 412 613 380 l 613 380 q 651 371 676 353 q 700 335 717 309 q 734 282 756 235 l 756 235 q 787 169 814 142 q 841 114 877 114 l 877 114 q 909 114 938 136 q 967 157 1011 209 l 1011 209 q 1023 223 1038 223 l 1038 223 m 480 -276 q 462 -276 449 -265 q 436 -254 437 -235 l 437 -235 l 440 -133 q 441 -102 459 -87 q 476 -72 500 -72 l 500 -72 q 525 -72 544 -86 q 562 -101 562 -128 l 562 -128 q 562 -142 556 -158 l 556 -158 l 527 -243 q 522 -259 509 -267 q 495 -276 480 -276 l 480 -276"},"L":{"x_min":-41,"x_max":802,"ha":673,"o":"m 774 223 q 787 223 795 211 q 802 199 802 178 l 802 178 q 802 139 783 116 l 783 116 q 727 49 675 22 q 622 -5 548 -5 l 548 -5 q 496 -5 452 8 q 408 21 345 47 l 345 47 q 288 72 235 88 l 235 88 q 184 -5 82 -5 l 82 -5 q 26 -5 -7 21 q -41 46 -41 86 l -41 86 q -41 135 6 168 q 53 200 131 200 l 131 200 l 144 200 l 162 491 q 168 591 198 656 q 228 721 281 767 l 281 767 q 327 807 386 828 q 445 848 511 848 l 511 848 q 619 848 677 792 q 735 736 735 646 l 735 646 q 735 585 713 548 q 691 510 652 510 l 652 510 q 624 510 608 524 q 592 537 592 562 l 592 562 q 592 571 596 595 l 596 595 q 602 623 602 645 l 602 645 q 602 687 578 712 q 553 736 503 736 l 503 736 q 415 736 367 679 q 319 621 306 498 l 306 498 l 283 271 q 278 223 270 188 l 270 188 q 334 177 430 153 l 430 153 q 486 139 516 133 q 546 127 569 127 l 569 127 q 627 127 669 147 q 710 166 747 209 l 747 209 q 759 223 774 223 l 774 223"},"Ǉ":{"x_min":-41,"x_max":1299,"ha":1276,"o":"m 1299 767 q 1299 737 1287 722 q 1274 707 1246 707 l 1246 707 q 1244 686 1237 634 l 1237 634 q 1227 564 1226 556 l 1226 556 q 1137 -107 855 -107 l 855 -107 q 782 -107 737 -70 q 692 -34 682 26 l 682 26 q 626 -5 548 -5 l 548 -5 q 496 -5 452 8 q 408 21 345 47 l 345 47 q 288 72 235 88 l 235 88 q 184 -5 82 -5 l 82 -5 q 26 -5 -7 21 q -41 46 -41 86 l -41 86 q -41 135 6 168 q 53 200 131 200 l 131 200 l 144 200 l 163 511 q 169 611 212 688 q 255 764 326 806 q 397 848 487 848 l 487 848 q 552 848 599 822 q 646 796 671 750 q 695 704 695 646 l 695 646 q 695 585 673 548 q 651 510 612 510 l 612 510 q 584 510 568 524 q 552 537 552 562 l 552 562 q 552 571 556 595 l 556 595 q 562 623 562 645 l 562 645 q 562 686 540 711 q 518 736 476 736 l 476 736 q 408 736 364 681 q 319 625 308 518 l 308 518 l 283 271 q 278 223 270 188 l 270 188 q 334 177 430 153 l 430 153 q 486 139 516 133 q 546 127 569 127 l 569 127 q 648 127 702 165 l 702 165 q 740 254 838 324 q 935 394 1071 444 l 1071 444 q 1082 515 1088 571 l 1088 571 l 1106 722 q 1055 728 1034 728 l 1034 728 q 964 728 914 699 q 863 670 863 613 l 863 613 q 863 583 883 548 l 883 548 q 889 538 889 527 l 889 527 q 889 506 868 490 q 846 473 821 473 l 821 473 q 789 473 772 500 l 772 500 q 744 546 744 607 l 744 607 q 744 689 790 743 q 836 797 909 822 q 981 847 1064 847 l 1064 847 q 1096 847 1147 841 q 1197 834 1242 823 l 1242 823 q 1299 809 1299 767 l 1299 767 m 868 0 q 917 0 966 74 q 1015 148 1052 333 l 1052 333 q 808 226 808 71 l 808 71 q 808 37 824 19 q 840 0 868 0 l 868 0"},"Ĺ":{"x_min":-41,"x_max":802,"ha":673,"o":"m 774 223 q 787 223 795 211 q 802 199 802 178 l 802 178 q 802 139 783 116 l 783 116 q 727 49 675 22 q 622 -5 548 -5 l 548 -5 q 496 -5 452 8 q 408 21 345 47 l 345 47 q 288 72 235 88 l 235 88 q 184 -5 82 -5 l 82 -5 q 26 -5 -7 21 q -41 46 -41 86 l -41 86 q -41 135 6 168 q 53 200 131 200 l 131 200 l 144 200 l 162 491 q 168 591 198 656 q 228 721 281 767 l 281 767 q 327 807 386 828 q 445 848 511 848 l 511 848 q 619 848 677 792 q 735 736 735 646 l 735 646 q 735 585 713 548 q 691 510 652 510 l 652 510 q 624 510 608 524 q 592 537 592 562 l 592 562 q 592 571 596 595 l 596 595 q 602 623 602 645 l 602 645 q 602 687 578 712 q 553 736 503 736 l 503 736 q 415 736 367 679 q 319 621 306 498 l 306 498 l 283 271 q 278 223 270 188 l 270 188 q 334 177 430 153 l 430 153 q 486 139 516 133 q 546 127 569 127 l 569 127 q 627 127 669 147 q 710 166 747 209 l 747 209 q 759 223 774 223 l 774 223 m 511 912 q 495 912 484 923 q 473 933 473 948 l 473 948 q 473 968 492 984 l 492 984 l 664 1131 q 684 1148 708 1148 l 708 1148 q 734 1148 753 1130 q 772 1111 772 1085 l 772 1085 q 772 1042 719 1014 l 719 1014 l 532 917 q 523 912 511 912 l 511 912"},"Ľ":{"x_min":-41,"x_max":893,"ha":673,"o":"m 774 223 q 787 223 795 211 q 802 199 802 178 l 802 178 q 802 139 783 116 l 783 116 q 727 49 675 22 q 622 -5 548 -5 l 548 -5 q 496 -5 452 8 q 408 21 345 47 l 345 47 q 288 72 235 88 l 235 88 q 184 -5 82 -5 l 82 -5 q 26 -5 -7 21 q -41 46 -41 86 l -41 86 q -41 135 6 168 q 53 200 131 200 l 131 200 l 144 200 l 162 491 q 168 591 198 656 q 228 721 281 767 l 281 767 q 327 807 386 828 q 445 848 511 848 l 511 848 q 619 848 677 792 q 735 736 735 646 l 735 646 q 735 585 713 548 q 691 510 652 510 l 652 510 q 624 510 608 524 q 592 537 592 562 l 592 562 q 592 571 596 595 l 596 595 q 602 623 602 645 l 602 645 q 602 687 578 712 q 553 736 503 736 l 503 736 q 415 736 367 679 q 319 621 306 498 l 306 498 l 283 271 q 278 223 270 188 l 270 188 q 334 177 430 153 l 430 153 q 486 139 516 133 q 546 127 569 127 l 569 127 q 627 127 669 147 q 710 166 747 209 l 747 209 q 759 223 774 223 l 774 223 m 804 609 q 787 609 776 620 q 765 630 766 650 l 766 650 l 772 782 q 773 815 793 830 q 812 845 838 845 l 838 845 q 862 845 878 831 q 893 816 893 789 l 893 789 q 893 771 888 757 l 888 757 l 849 642 q 838 609 804 609 l 804 609"},"Ļ":{"x_min":-41,"x_max":802,"ha":673,"o":"m 774 223 q 787 223 795 211 q 802 199 802 178 l 802 178 q 802 139 783 116 l 783 116 q 727 49 675 22 q 622 -5 548 -5 l 548 -5 q 496 -5 452 8 q 408 21 345 47 l 345 47 q 288 72 235 88 l 235 88 q 184 -5 82 -5 l 82 -5 q 26 -5 -7 21 q -41 46 -41 86 l -41 86 q -41 135 6 168 q 53 200 131 200 l 131 200 l 144 200 l 162 491 q 168 591 198 656 q 228 721 281 767 l 281 767 q 327 807 386 828 q 445 848 511 848 l 511 848 q 619 848 677 792 q 735 736 735 646 l 735 646 q 735 585 713 548 q 691 510 652 510 l 652 510 q 624 510 608 524 q 592 537 592 562 l 592 562 q 592 571 596 595 l 596 595 q 602 623 602 645 l 602 645 q 602 687 578 712 q 553 736 503 736 l 503 736 q 415 736 367 679 q 319 621 306 498 l 306 498 l 283 271 q 278 223 270 188 l 270 188 q 334 177 430 153 l 430 153 q 486 139 516 133 q 546 127 569 127 l 569 127 q 627 127 669 147 q 710 166 747 209 l 747 209 q 759 223 774 223 l 774 223 m 295 -276 q 277 -276 264 -265 q 251 -254 252 -235 l 252 -235 l 255 -133 q 256 -102 274 -87 q 291 -72 315 -72 l 315 -72 q 340 -72 359 -86 q 377 -101 377 -128 l 377 -128 q 377 -142 371 -158 l 371 -158 l 342 -243 q 337 -259 324 -267 q 310 -276 295 -276 l 295 -276"},"Ŀ":{"x_min":-41,"x_max":802,"ha":673,"o":"m 774 223 q 787 223 795 211 q 802 199 802 178 l 802 178 q 802 139 783 116 l 783 116 q 727 49 675 22 q 622 -5 548 -5 l 548 -5 q 496 -5 452 8 q 408 21 345 47 l 345 47 q 288 72 235 88 l 235 88 q 184 -5 82 -5 l 82 -5 q 26 -5 -7 21 q -41 46 -41 86 l -41 86 q -41 135 6 168 q 53 200 131 200 l 131 200 l 144 200 l 162 491 q 168 591 198 656 q 228 721 281 767 l 281 767 q 327 807 386 828 q 445 848 511 848 l 511 848 q 619 848 677 792 q 735 736 735 646 l 735 646 q 735 585 713 548 q 691 510 652 510 l 652 510 q 624 510 608 524 q 592 537 592 562 l 592 562 q 592 571 596 595 l 596 595 q 602 623 602 645 l 602 645 q 602 687 578 712 q 553 736 503 736 l 503 736 q 415 736 367 679 q 319 621 306 498 l 306 498 l 283 271 q 278 223 270 188 l 270 188 q 334 177 430 153 l 430 153 q 486 139 516 133 q 546 127 569 127 l 569 127 q 627 127 669 147 q 710 166 747 209 l 747 209 q 759 223 774 223 l 774 223 m 475 311 q 433 311 412 331 q 391 350 391 385 l 391 385 q 391 420 419 444 q 446 467 487 467 l 487 467 q 524 467 547 449 q 570 431 570 398 l 570 398 q 570 358 544 335 q 518 311 475 311 l 475 311"},"ǈ":{"x_min":-41,"x_max":1036,"ha":927,"o":"m 1008 221 q 1021 221 1029 209 q 1036 196 1036 177 l 1036 177 q 1036 154 1029 141 q 1022 128 1007 118 l 1007 118 q 937 72 820 -9 l 820 -9 q 781 -217 719 -336 q 657 -455 561 -455 l 561 -455 q 510 -455 478 -423 q 446 -392 446 -341 l 446 -341 q 446 -270 501 -189 q 556 -109 708 9 l 708 9 l 713 46 q 677 19 638 7 q 598 -5 548 -5 l 548 -5 q 496 -5 452 8 q 408 21 345 47 l 345 47 q 288 72 235 88 l 235 88 q 184 -5 82 -5 l 82 -5 q 26 -5 -7 21 q -41 46 -41 86 l -41 86 q -41 135 6 168 q 53 200 131 200 l 131 200 l 144 200 l 162 491 q 168 591 198 656 q 228 721 281 767 l 281 767 q 327 807 386 828 q 445 848 511 848 l 511 848 q 619 848 677 792 q 735 736 735 646 l 735 646 q 735 585 713 548 q 691 510 652 510 l 652 510 q 624 510 608 524 q 592 537 592 562 l 592 562 q 592 571 596 595 l 596 595 q 602 623 602 645 l 602 645 q 602 687 578 712 q 553 736 503 736 l 503 736 q 415 736 367 679 q 319 621 306 498 l 306 498 l 283 271 q 278 223 270 188 l 270 188 q 334 177 430 153 l 430 153 q 486 139 516 133 q 546 127 569 127 l 569 127 q 621 127 659 143 q 697 158 731 192 l 731 192 q 734 217 738 258 l 738 258 q 749 360 756 410 l 756 410 q 760 439 778 453 q 796 466 833 466 l 833 466 q 863 466 873 457 q 882 448 882 432 l 882 432 q 882 386 849 178 l 849 178 l 839 109 q 919 169 985 213 l 985 213 q 998 221 1008 221 l 1008 221 m 828 532 q 786 532 765 552 q 744 571 744 606 l 744 606 q 744 641 772 665 q 799 688 840 688 l 840 688 q 877 688 900 670 q 923 652 923 619 l 923 619 q 923 579 897 556 q 871 532 828 532 l 828 532 m 572 -358 q 598 -358 629 -299 q 660 -240 687 -109 l 687 -109 q 611 -174 578 -226 q 544 -279 544 -319 l 544 -319 q 544 -358 572 -358 l 572 -358"},"Ł":{"x_min":-41,"x_max":802,"ha":673,"o":"m 282 845 q 261 845 250 858 q 238 870 238 887 l 238 887 q 238 911 253 928 q 268 945 314 964 l 314 964 q 363 984 432 999 q 500 1013 574 1013 l 574 1013 q 670 1013 716 992 q 762 971 762 942 l 762 942 q 762 920 748 908 q 733 896 709 896 l 709 896 q 702 896 672 900 l 672 900 q 667 901 639 905 q 611 908 576 908 l 576 908 q 503 908 452 896 q 400 883 341 862 l 341 862 q 298 845 282 845 l 282 845 m 774 223 q 787 223 795 211 q 802 199 802 178 l 802 178 q 802 139 783 116 l 783 116 q 727 49 675 22 q 622 -5 548 -5 l 548 -5 q 496 -5 452 8 q 408 21 345 47 l 345 47 q 288 72 235 88 l 235 88 q 184 -5 82 -5 l 82 -5 q 26 -5 -7 21 q -41 46 -41 86 l -41 86 q -41 135 6 168 q 53 200 131 200 l 131 200 l 144 200 l 162 491 q 168 577 199 640 q 229 702 281 747 l 281 747 q 327 787 386 808 q 445 828 511 828 l 511 828 q 619 828 677 772 q 735 716 735 626 l 735 626 q 735 565 713 528 q 691 490 652 490 l 652 490 q 624 490 608 504 q 592 517 592 542 l 592 542 q 592 551 596 575 l 596 575 q 602 603 602 625 l 602 625 q 602 667 578 692 q 553 716 503 716 l 503 716 q 328 716 306 498 l 306 498 l 283 271 q 278 223 270 188 l 270 188 q 334 177 430 153 l 430 153 q 486 139 516 133 q 546 127 569 127 l 569 127 q 627 127 669 147 q 710 166 747 209 l 747 209 q 759 223 774 223 l 774 223"},"M":{"x_min":-1,"x_max":1361,"ha":1232,"o":"m 232 -5 q 195 -5 179 12 q 163 28 163 74 l 163 74 q 163 105 170 154 q 176 202 191 287 l 191 287 q 217 444 232 559 l 232 559 q 241 631 241 679 l 241 679 q 241 724 208 724 l 208 724 q 182 724 146 698 q 109 671 65 613 l 65 613 q 51 594 34 594 l 34 594 q 20 594 10 608 q -1 621 -1 638 l -1 638 q -1 654 6 671 q 12 687 27 708 l 27 708 q 75 775 134 812 q 193 848 252 848 l 252 848 q 307 848 337 813 q 366 778 366 711 l 366 711 q 366 684 361 648 q 356 611 352 588 q 348 565 346 556 l 346 556 q 403 719 474 784 q 545 848 630 848 l 630 848 q 695 848 733 802 q 770 756 770 672 l 770 672 q 770 639 761 590 l 761 590 q 811 728 878 788 q 945 848 1032 848 l 1032 848 q 1102 848 1140 803 q 1177 758 1177 677 l 1177 677 q 1177 633 1164 570 l 1164 570 l 1103 284 q 1093 234 1093 198 l 1093 198 q 1093 156 1113 135 q 1132 114 1167 114 l 1167 114 q 1200 114 1232 136 q 1263 158 1306 209 l 1306 209 q 1318 223 1333 223 l 1333 223 q 1346 223 1354 211 q 1361 199 1361 178 l 1361 178 q 1361 139 1342 116 l 1342 116 q 1290 53 1239 24 q 1188 -5 1132 -5 l 1132 -5 q 1047 -5 999 46 q 951 96 951 181 l 951 181 q 951 240 975 352 l 975 352 l 1015 535 q 1017 544 1022 567 q 1027 590 1030 611 q 1033 631 1033 651 l 1033 651 q 1033 686 1020 704 q 1006 721 981 721 l 981 721 q 934 721 883 661 q 831 600 785 460 q 738 320 709 96 l 709 96 q 702 36 685 16 q 667 -5 628 -5 l 628 -5 q 594 -5 579 11 q 563 27 563 71 l 563 71 q 563 112 574 179 q 585 245 602 335 l 602 335 q 648 577 648 647 l 648 647 q 648 685 634 703 q 619 721 590 721 l 590 721 q 541 721 489 666 q 437 610 388 469 q 338 327 305 86 l 305 86 q 298 35 285 15 q 271 -5 232 -5 l 232 -5"},"N":{"x_min":-1,"x_max":1013,"ha":884,"o":"m 232 -5 q 195 -5 179 12 q 163 28 163 74 l 163 74 q 163 105 169 149 q 175 193 190 282 l 190 282 q 192 294 206 380 q 220 465 231 559 l 231 559 q 241 639 241 679 l 241 679 q 241 724 208 724 l 208 724 q 183 724 146 698 q 108 671 65 613 l 65 613 q 51 594 34 594 l 34 594 q 20 594 10 608 q -1 621 -1 638 l -1 638 q -1 655 5 671 q 11 686 27 708 l 27 708 q 76 775 136 812 q 196 848 262 848 l 262 848 q 317 848 345 814 q 372 780 372 715 l 372 715 q 372 657 356 547 l 356 547 q 406 695 483 772 q 560 848 664 848 l 664 848 q 746 848 788 802 q 829 755 829 677 l 829 677 q 829 633 816 570 l 816 570 l 755 284 q 745 234 745 198 l 745 198 q 745 156 765 135 q 784 114 819 114 l 819 114 q 852 114 884 136 q 915 158 958 209 l 958 209 q 970 223 985 223 l 985 223 q 998 223 1006 211 q 1013 199 1013 178 l 1013 178 q 1013 139 994 116 l 994 116 q 942 53 891 24 q 840 -5 784 -5 l 784 -5 q 699 -5 651 46 q 603 96 603 181 l 603 181 q 603 214 609 253 q 614 292 627 352 l 627 352 l 667 535 q 669 544 674 567 q 679 590 682 611 q 685 631 685 651 l 685 651 q 685 683 667 702 q 649 721 616 721 l 616 721 q 556 721 496 657 q 436 593 385 451 q 334 308 305 86 l 305 86 q 298 35 285 15 q 271 -5 232 -5 l 232 -5"},"Ǌ":{"x_min":-1,"x_max":1520,"ha":1497,"o":"m 1520 767 q 1520 737 1508 722 q 1495 707 1467 707 l 1467 707 q 1465 686 1458 634 l 1458 634 q 1448 564 1447 556 l 1447 556 q 1358 -107 1076 -107 l 1076 -107 q 1001 -107 956 -68 q 911 -30 902 31 l 902 31 q 847 -5 784 -5 l 784 -5 q 699 -5 651 46 q 603 96 603 181 l 603 181 q 603 214 609 253 q 614 292 627 352 l 627 352 l 667 535 q 669 544 674 567 q 679 590 682 611 q 685 631 685 651 l 685 651 q 685 683 667 702 q 649 721 616 721 l 616 721 q 556 721 496 657 q 436 593 385 451 q 334 308 305 86 l 305 86 q 298 35 285 15 q 271 -5 232 -5 l 232 -5 q 195 -5 179 12 q 163 28 163 74 l 163 74 q 163 105 169 149 q 175 193 190 282 l 190 282 q 192 294 206 380 q 220 465 231 559 l 231 559 q 241 639 241 679 l 241 679 q 241 724 208 724 l 208 724 q 183 724 146 698 q 108 671 65 613 l 65 613 q 51 594 34 594 l 34 594 q 20 594 10 608 q -1 621 -1 638 l -1 638 q -1 655 5 671 q 11 686 27 708 l 27 708 q 76 775 136 812 q 196 848 262 848 l 262 848 q 317 848 345 814 q 372 780 372 715 l 372 715 q 372 657 356 547 l 356 547 q 406 695 483 772 q 560 848 664 848 l 664 848 q 746 848 788 802 q 829 755 829 677 l 829 677 q 829 633 816 570 l 816 570 l 755 284 q 745 234 745 198 l 745 198 q 745 156 765 135 q 784 114 819 114 l 819 114 q 845 114 871 128 q 896 142 926 173 l 926 173 q 967 259 1064 328 q 1160 396 1292 444 l 1292 444 q 1303 515 1309 571 l 1309 571 l 1327 722 q 1267 728 1215 728 l 1215 728 q 1124 728 1069 700 q 1014 671 1014 613 l 1014 613 q 1014 583 1034 548 l 1034 548 q 1040 538 1040 527 l 1040 527 q 1040 506 1019 490 q 997 473 972 473 l 972 473 q 940 473 923 500 l 923 500 q 895 546 895 607 l 895 607 q 895 729 994 788 q 1093 847 1245 847 l 1245 847 q 1367 847 1463 823 l 1463 823 q 1520 809 1520 767 l 1520 767 m 1089 0 q 1138 0 1187 74 q 1236 148 1273 333 l 1273 333 q 1029 226 1029 71 l 1029 71 q 1029 37 1045 19 q 1061 0 1089 0 l 1089 0"},"Ń":{"x_min":-1,"x_max":1013,"ha":884,"o":"m 232 -5 q 195 -5 179 12 q 163 28 163 74 l 163 74 q 163 105 169 149 q 175 193 190 282 l 190 282 q 192 294 206 380 q 220 465 231 559 l 231 559 q 241 639 241 679 l 241 679 q 241 724 208 724 l 208 724 q 183 724 146 698 q 108 671 65 613 l 65 613 q 51 594 34 594 l 34 594 q 20 594 10 608 q -1 621 -1 638 l -1 638 q -1 655 5 671 q 11 686 27 708 l 27 708 q 76 775 136 812 q 196 848 262 848 l 262 848 q 317 848 345 814 q 372 780 372 715 l 372 715 q 372 657 356 547 l 356 547 q 406 695 483 772 q 560 848 664 848 l 664 848 q 746 848 788 802 q 829 755 829 677 l 829 677 q 829 633 816 570 l 816 570 l 755 284 q 745 234 745 198 l 745 198 q 745 156 765 135 q 784 114 819 114 l 819 114 q 852 114 884 136 q 915 158 958 209 l 958 209 q 970 223 985 223 l 985 223 q 998 223 1006 211 q 1013 199 1013 178 l 1013 178 q 1013 139 994 116 l 994 116 q 942 53 891 24 q 840 -5 784 -5 l 784 -5 q 699 -5 651 46 q 603 96 603 181 l 603 181 q 603 214 609 253 q 614 292 627 352 l 627 352 l 667 535 q 669 544 674 567 q 679 590 682 611 q 685 631 685 651 l 685 651 q 685 683 667 702 q 649 721 616 721 l 616 721 q 556 721 496 657 q 436 593 385 451 q 334 308 305 86 l 305 86 q 298 35 285 15 q 271 -5 232 -5 l 232 -5 m 559 912 q 543 912 532 923 q 521 933 521 948 l 521 948 q 521 968 540 984 l 540 984 l 712 1131 q 732 1148 756 1148 l 756 1148 q 782 1148 801 1130 q 820 1111 820 1085 l 820 1085 q 820 1042 767 1014 l 767 1014 l 580 917 q 571 912 559 912 l 559 912"},"Ň":{"x_min":-1,"x_max":1013,"ha":884,"o":"m 232 -5 q 195 -5 179 12 q 163 28 163 74 l 163 74 q 163 105 169 149 q 175 193 190 282 l 190 282 q 192 294 206 380 q 220 465 231 559 l 231 559 q 241 639 241 679 l 241 679 q 241 724 208 724 l 208 724 q 183 724 146 698 q 108 671 65 613 l 65 613 q 51 594 34 594 l 34 594 q 20 594 10 608 q -1 621 -1 638 l -1 638 q -1 655 5 671 q 11 686 27 708 l 27 708 q 76 775 136 812 q 196 848 262 848 l 262 848 q 317 848 345 814 q 372 780 372 715 l 372 715 q 372 657 356 547 l 356 547 q 406 695 483 772 q 560 848 664 848 l 664 848 q 746 848 788 802 q 829 755 829 677 l 829 677 q 829 633 816 570 l 816 570 l 755 284 q 745 234 745 198 l 745 198 q 745 156 765 135 q 784 114 819 114 l 819 114 q 852 114 884 136 q 915 158 958 209 l 958 209 q 970 223 985 223 l 985 223 q 998 223 1006 211 q 1013 199 1013 178 l 1013 178 q 1013 139 994 116 l 994 116 q 942 53 891 24 q 840 -5 784 -5 l 784 -5 q 699 -5 651 46 q 603 96 603 181 l 603 181 q 603 214 609 253 q 614 292 627 352 l 627 352 l 667 535 q 669 544 674 567 q 679 590 682 611 q 685 631 685 651 l 685 651 q 685 683 667 702 q 649 721 616 721 l 616 721 q 556 721 496 657 q 436 593 385 451 q 334 308 305 86 l 305 86 q 298 35 285 15 q 271 -5 232 -5 l 232 -5 m 560 912 q 532 912 514 928 q 496 944 477 981 l 477 981 l 427 1080 q 417 1100 417 1117 l 417 1117 q 417 1138 431 1150 q 445 1161 466 1161 l 466 1161 q 487 1161 500 1153 q 513 1145 520 1125 l 520 1125 l 568 999 l 646 1122 q 660 1144 674 1153 q 688 1161 711 1161 l 711 1161 q 730 1161 743 1152 q 755 1142 755 1125 l 755 1125 q 755 1106 738 1083 l 738 1083 l 654 968 q 633 939 611 926 q 589 912 560 912 l 560 912"},"Ņ":{"x_min":-1,"x_max":1013,"ha":884,"o":"m 232 -5 q 195 -5 179 12 q 163 28 163 74 l 163 74 q 163 105 169 149 q 175 193 190 282 l 190 282 q 192 294 206 380 q 220 465 231 559 l 231 559 q 241 639 241 679 l 241 679 q 241 724 208 724 l 208 724 q 183 724 146 698 q 108 671 65 613 l 65 613 q 51 594 34 594 l 34 594 q 20 594 10 608 q -1 621 -1 638 l -1 638 q -1 655 5 671 q 11 686 27 708 l 27 708 q 76 775 136 812 q 196 848 262 848 l 262 848 q 317 848 345 814 q 372 780 372 715 l 372 715 q 372 657 356 547 l 356 547 q 406 695 483 772 q 560 848 664 848 l 664 848 q 746 848 788 802 q 829 755 829 677 l 829 677 q 829 633 816 570 l 816 570 l 755 284 q 745 234 745 198 l 745 198 q 745 156 765 135 q 784 114 819 114 l 819 114 q 852 114 884 136 q 915 158 958 209 l 958 209 q 970 223 985 223 l 985 223 q 998 223 1006 211 q 1013 199 1013 178 l 1013 178 q 1013 139 994 116 l 994 116 q 942 53 891 24 q 840 -5 784 -5 l 784 -5 q 699 -5 651 46 q 603 96 603 181 l 603 181 q 603 214 609 253 q 614 292 627 352 l 627 352 l 667 535 q 669 544 674 567 q 679 590 682 611 q 685 631 685 651 l 685 651 q 685 683 667 702 q 649 721 616 721 l 616 721 q 556 721 496 657 q 436 593 385 451 q 334 308 305 86 l 305 86 q 298 35 285 15 q 271 -5 232 -5 l 232 -5 m 403 -276 q 385 -276 372 -265 q 359 -254 360 -235 l 360 -235 l 363 -133 q 364 -102 382 -87 q 399 -72 423 -72 l 423 -72 q 448 -72 467 -86 q 485 -101 485 -128 l 485 -128 q 485 -142 479 -158 l 479 -158 l 450 -243 q 445 -259 432 -267 q 418 -276 403 -276 l 403 -276"},"Ŋ":{"x_min":-1,"x_max":1013,"ha":884,"o":"m 985 223 q 998 223 1006 211 q 1013 199 1013 178 l 1013 178 q 1013 139 994 116 l 994 116 q 947 59 901 27 q 855 -5 801 -5 l 801 -5 q 740 -5 687 25 l 687 25 q 635 -161 564 -254 q 493 -347 385 -347 l 385 -347 q 325 -347 270 -321 q 215 -295 181 -246 l 181 -246 q 168 -227 168 -208 l 168 -208 q 168 -184 186 -166 q 203 -148 226 -148 l 226 -148 q 255 -148 275 -176 l 275 -176 q 327 -248 396 -248 l 396 -248 q 433 -248 461 -221 q 488 -194 516 -114 q 543 -35 576 120 l 576 120 l 639 415 q 653 472 650 463 l 650 463 q 667 543 674 582 q 681 621 681 652 l 681 652 q 681 683 665 702 q 648 721 616 721 l 616 721 q 556 721 496 657 q 436 593 385 451 q 334 308 305 86 l 305 86 q 298 35 285 15 q 271 -5 232 -5 l 232 -5 q 197 -5 180 16 q 163 37 163 84 l 163 84 q 163 110 171 162 q 178 213 188 273 l 188 273 q 216 433 231 559 l 231 559 q 241 639 241 679 l 241 679 q 241 724 208 724 l 208 724 q 183 724 146 698 q 108 671 65 613 l 65 613 q 51 594 34 594 l 34 594 q 20 594 10 608 q -1 621 -1 638 l -1 638 q -1 655 5 671 q 11 686 27 708 l 27 708 q 76 775 136 812 q 196 848 262 848 l 262 848 q 317 848 345 814 q 372 780 372 715 l 372 715 q 372 657 356 547 l 356 547 q 406 695 483 772 q 560 848 664 848 l 664 848 q 745 848 785 803 q 824 757 824 682 l 824 682 q 824 627 813 564 q 801 500 784 430 l 784 430 l 718 146 q 775 116 824 116 l 824 116 q 856 116 886 137 q 915 158 958 209 l 958 209 q 970 223 985 223 l 985 223"},"ǋ":{"x_min":-1,"x_max":1247,"ha":1138,"o":"m 1219 221 q 1232 221 1240 209 q 1247 196 1247 177 l 1247 177 q 1247 154 1240 141 q 1233 128 1218 118 l 1218 118 q 1148 72 1031 -9 l 1031 -9 q 992 -217 930 -336 q 868 -455 772 -455 l 772 -455 q 721 -455 689 -423 q 657 -392 657 -341 l 657 -341 q 657 -270 712 -189 q 767 -109 919 9 l 919 9 l 924 46 q 858 -5 784 -5 l 784 -5 q 699 -5 651 46 q 603 96 603 181 l 603 181 q 603 214 609 253 q 614 292 627 352 l 627 352 l 667 535 q 669 544 674 567 q 679 590 682 611 q 685 631 685 651 l 685 651 q 685 683 667 702 q 649 721 616 721 l 616 721 q 556 721 496 657 q 436 593 385 451 q 334 308 305 86 l 305 86 q 298 35 285 15 q 271 -5 232 -5 l 232 -5 q 195 -5 179 12 q 163 28 163 74 l 163 74 q 163 105 169 149 q 175 193 190 282 l 190 282 q 192 294 206 380 q 220 465 231 559 l 231 559 q 241 639 241 679 l 241 679 q 241 724 208 724 l 208 724 q 183 724 146 698 q 108 671 65 613 l 65 613 q 51 594 34 594 l 34 594 q 20 594 10 608 q -1 621 -1 638 l -1 638 q -1 655 5 671 q 11 686 27 708 l 27 708 q 76 775 136 812 q 196 848 262 848 l 262 848 q 317 848 345 814 q 372 780 372 715 l 372 715 q 372 657 356 547 l 356 547 q 406 695 483 772 q 560 848 664 848 l 664 848 q 746 848 788 802 q 829 755 829 677 l 829 677 q 829 633 816 570 l 816 570 l 755 284 q 745 234 745 198 l 745 198 q 745 156 765 135 q 784 114 819 114 l 819 114 q 849 114 878 132 q 906 150 942 191 l 942 191 q 945 214 949 258 l 949 258 q 960 360 967 410 l 967 410 q 971 439 989 453 q 1007 466 1044 466 l 1044 466 q 1074 466 1084 457 q 1093 448 1093 432 l 1093 432 q 1093 386 1060 178 l 1060 178 l 1050 109 q 1130 169 1196 213 l 1196 213 q 1209 221 1219 221 l 1219 221 m 1039 532 q 997 532 976 552 q 955 571 955 606 l 955 606 q 955 641 983 665 q 1010 688 1051 688 l 1051 688 q 1088 688 1111 670 q 1134 652 1134 619 l 1134 619 q 1134 579 1108 556 q 1082 532 1039 532 l 1039 532 m 783 -358 q 809 -358 840 -299 q 871 -240 898 -109 l 898 -109 q 822 -174 789 -226 q 755 -279 755 -319 l 755 -319 q 755 -358 783 -358 l 783 -358"},"Ñ":{"x_min":-1,"x_max":1013,"ha":884,"o":"m 232 -5 q 195 -5 179 12 q 163 28 163 74 l 163 74 q 163 105 169 149 q 175 193 190 282 l 190 282 q 192 294 206 380 q 220 465 231 559 l 231 559 q 241 639 241 679 l 241 679 q 241 724 208 724 l 208 724 q 183 724 146 698 q 108 671 65 613 l 65 613 q 51 594 34 594 l 34 594 q 20 594 10 608 q -1 621 -1 638 l -1 638 q -1 655 5 671 q 11 686 27 708 l 27 708 q 76 775 136 812 q 196 848 262 848 l 262 848 q 317 848 345 814 q 372 780 372 715 l 372 715 q 372 657 356 547 l 356 547 q 406 695 483 772 q 560 848 664 848 l 664 848 q 746 848 788 802 q 829 755 829 677 l 829 677 q 829 633 816 570 l 816 570 l 755 284 q 745 234 745 198 l 745 198 q 745 156 765 135 q 784 114 819 114 l 819 114 q 852 114 884 136 q 915 158 958 209 l 958 209 q 970 223 985 223 l 985 223 q 998 223 1006 211 q 1013 199 1013 178 l 1013 178 q 1013 139 994 116 l 994 116 q 942 53 891 24 q 840 -5 784 -5 l 784 -5 q 699 -5 651 46 q 603 96 603 181 l 603 181 q 603 214 609 253 q 614 292 627 352 l 627 352 l 667 535 q 669 544 674 567 q 679 590 682 611 q 685 631 685 651 l 685 651 q 685 683 667 702 q 649 721 616 721 l 616 721 q 556 721 496 657 q 436 593 385 451 q 334 308 305 86 l 305 86 q 298 35 285 15 q 271 -5 232 -5 l 232 -5 m 660 912 q 644 912 630 918 q 616 923 594 938 l 594 938 l 487 1012 l 443 949 q 435 938 423 933 q 410 927 397 927 l 397 927 q 378 927 365 937 q 351 947 351 966 l 351 966 q 351 993 388 1047 l 388 1047 q 432 1111 485 1111 l 485 1111 q 502 1111 516 1106 q 529 1101 551 1085 l 551 1085 l 658 1011 l 702 1074 q 710 1085 723 1091 q 735 1096 748 1096 l 748 1096 q 767 1096 781 1086 q 794 1076 794 1057 l 794 1057 q 794 1044 786 1028 q 778 1011 757 976 l 757 976 q 737 943 712 928 q 687 912 660 912 l 660 912"},"O":{"x_min":64,"x_max":798,"ha":816,"o":"m 380 -5 q 291 -5 220 35 q 148 75 106 153 q 64 230 64 338 l 64 338 q 64 490 120 606 q 175 722 271 785 q 366 848 482 848 l 482 848 q 571 848 643 808 q 714 768 756 691 q 798 613 798 505 l 798 505 q 798 353 743 237 q 687 121 592 58 q 496 -5 380 -5 l 380 -5 m 390 113 q 468 113 528 161 q 587 209 619 295 q 651 380 651 488 l 651 488 q 651 607 601 669 q 551 730 472 730 l 472 730 q 395 730 336 683 q 277 635 244 550 q 211 464 211 355 l 211 355 q 211 236 261 175 q 311 113 390 113 l 390 113"},"Ó":{"x_min":64,"x_max":798,"ha":816,"o":"m 380 -5 q 291 -5 220 35 q 148 75 106 153 q 64 230 64 338 l 64 338 q 64 490 120 606 q 175 722 271 785 q 366 848 482 848 l 482 848 q 571 848 643 808 q 714 768 756 691 q 798 613 798 505 l 798 505 q 798 353 743 237 q 687 121 592 58 q 496 -5 380 -5 l 380 -5 m 390 113 q 468 113 528 161 q 587 209 619 295 q 651 380 651 488 l 651 488 q 651 607 601 669 q 551 730 472 730 l 472 730 q 395 730 336 683 q 277 635 244 550 q 211 464 211 355 l 211 355 q 211 236 261 175 q 311 113 390 113 l 390 113 m 490 907 q 474 907 463 918 q 452 928 452 943 l 452 943 q 452 963 471 979 l 471 979 l 643 1126 q 663 1143 687 1143 l 687 1143 q 713 1143 732 1125 q 751 1106 751 1080 l 751 1080 q 751 1037 698 1009 l 698 1009 l 511 912 q 502 907 490 907 l 490 907"},"Ŏ":{"x_min":64,"x_max":798,"ha":816,"o":"m 380 -5 q 291 -5 220 35 q 148 75 106 153 q 64 230 64 338 l 64 338 q 64 490 120 606 q 175 722 271 785 q 366 848 482 848 l 482 848 q 571 848 643 808 q 714 768 756 691 q 798 613 798 505 l 798 505 q 798 353 743 237 q 687 121 592 58 q 496 -5 380 -5 l 380 -5 m 390 113 q 468 113 528 161 q 587 209 619 295 q 651 380 651 488 l 651 488 q 651 607 601 669 q 551 730 472 730 l 472 730 q 395 730 336 683 q 277 635 244 550 q 211 464 211 355 l 211 355 q 211 236 261 175 q 311 113 390 113 l 390 113 m 496 907 q 434 907 389 928 q 343 948 320 981 q 296 1013 296 1047 l 296 1047 q 296 1068 313 1080 q 330 1092 355 1092 l 355 1092 q 375 1092 387 1085 q 398 1077 406 1059 l 406 1059 q 421 1027 443 1015 q 465 1003 504 1003 l 504 1003 q 543 1003 567 1018 q 591 1032 611 1062 l 611 1062 q 631 1092 668 1092 l 668 1092 q 687 1092 699 1082 q 711 1072 711 1054 l 711 1054 q 711 1022 685 988 q 659 953 610 930 q 561 907 496 907 l 496 907"},"Ô":{"x_min":64,"x_max":798,"ha":816,"o":"m 380 -5 q 291 -5 220 35 q 148 75 106 153 q 64 230 64 338 l 64 338 q 64 490 120 606 q 175 722 271 785 q 366 848 482 848 l 482 848 q 571 848 643 808 q 714 768 756 691 q 798 613 798 505 l 798 505 q 798 353 743 237 q 687 121 592 58 q 496 -5 380 -5 l 380 -5 m 390 113 q 468 113 528 161 q 587 209 619 295 q 651 380 651 488 l 651 488 q 651 607 601 669 q 551 730 472 730 l 472 730 q 395 730 336 683 q 277 635 244 550 q 211 464 211 355 l 211 355 q 211 236 261 175 q 311 113 390 113 l 390 113 m 555 943 l 514 1088 l 434 946 q 423 926 405 916 q 387 906 368 906 l 368 906 q 347 906 332 918 q 317 929 317 948 l 317 948 q 317 965 330 985 l 330 985 l 422 1122 q 459 1178 527 1178 l 527 1178 q 558 1178 577 1162 q 595 1146 610 1109 l 610 1109 l 657 988 q 663 973 663 960 l 663 960 q 663 936 646 922 q 629 907 606 907 l 606 907 q 589 907 575 917 q 560 926 555 943 l 555 943"},"Ố":{"x_min":64,"x_max":803,"ha":816,"o":"m 380 -5 q 291 -5 220 35 q 148 75 106 153 q 64 230 64 338 l 64 338 q 64 490 120 606 q 175 722 271 785 q 366 848 482 848 l 482 848 q 571 848 643 808 q 714 768 756 691 q 798 613 798 505 l 798 505 q 798 353 743 237 q 687 121 592 58 q 496 -5 380 -5 l 380 -5 m 390 113 q 468 113 528 161 q 587 209 619 295 q 651 380 651 488 l 651 488 q 651 607 601 669 q 551 730 472 730 l 472 730 q 395 730 336 683 q 277 635 244 550 q 211 464 211 355 l 211 355 q 211 236 261 175 q 311 113 390 113 l 390 113 m 648 1094 q 634 1094 625 1103 q 616 1112 616 1125 l 616 1125 q 616 1139 632 1155 l 632 1155 l 711 1234 q 727 1250 748 1250 l 748 1250 q 770 1250 787 1234 q 803 1217 803 1195 l 803 1195 q 803 1177 793 1161 q 782 1145 758 1135 l 758 1135 l 666 1098 q 654 1094 648 1094 l 648 1094 m 368 902 q 348 902 335 910 q 321 918 321 932 l 321 932 q 321 948 340 970 l 340 970 l 422 1064 q 462 1109 527 1109 l 527 1109 q 558 1109 577 1096 q 595 1083 610 1054 l 610 1054 l 649 977 q 658 959 658 945 l 658 945 q 658 924 641 913 q 624 902 602 902 l 602 902 q 585 902 575 907 q 564 912 558 925 l 558 925 l 509 1029 l 431 927 q 411 902 368 902 l 368 902"},"Ộ":{"x_min":64,"x_max":798,"ha":816,"o":"m 380 -5 q 291 -5 220 35 q 148 75 106 153 q 64 230 64 338 l 64 338 q 64 490 120 606 q 175 722 271 785 q 366 848 482 848 l 482 848 q 571 848 643 808 q 714 768 756 691 q 798 613 798 505 l 798 505 q 798 353 743 237 q 687 121 592 58 q 496 -5 380 -5 l 380 -5 m 390 113 q 468 113 528 161 q 587 209 619 295 q 651 380 651 488 l 651 488 q 651 607 601 669 q 551 730 472 730 l 472 730 q 395 730 336 683 q 277 635 244 550 q 211 464 211 355 l 211 355 q 211 236 261 175 q 311 113 390 113 l 390 113 m 354 -237 q 312 -237 290 -216 q 268 -196 268 -161 l 268 -161 q 268 -125 297 -101 q 325 -77 366 -77 l 366 -77 q 404 -77 428 -95 q 451 -114 451 -148 l 451 -148 q 451 -189 424 -213 q 397 -237 354 -237 l 354 -237 m 555 943 l 514 1088 l 434 946 q 423 926 405 916 q 387 906 368 906 l 368 906 q 347 906 332 918 q 317 929 317 948 l 317 948 q 317 965 330 985 l 330 985 l 422 1122 q 459 1178 527 1178 l 527 1178 q 558 1178 577 1162 q 595 1146 610 1109 l 610 1109 l 657 988 q 663 973 663 960 l 663 960 q 663 936 646 922 q 629 907 606 907 l 606 907 q 589 907 575 917 q 560 926 555 943 l 555 943"},"Ồ":{"x_min":64,"x_max":798,"ha":816,"o":"m 380 -5 q 291 -5 220 35 q 148 75 106 153 q 64 230 64 338 l 64 338 q 64 490 120 606 q 175 722 271 785 q 366 848 482 848 l 482 848 q 571 848 643 808 q 714 768 756 691 q 798 613 798 505 l 798 505 q 798 353 743 237 q 687 121 592 58 q 496 -5 380 -5 l 380 -5 m 390 113 q 468 113 528 161 q 587 209 619 295 q 651 380 651 488 l 651 488 q 651 607 601 669 q 551 730 472 730 l 472 730 q 395 730 336 683 q 277 635 244 550 q 211 464 211 355 l 211 355 q 211 236 261 175 q 311 113 390 113 l 390 113 m 387 1094 q 381 1094 369 1098 l 369 1098 l 277 1135 q 253 1145 243 1161 q 232 1177 232 1195 l 232 1195 q 232 1217 249 1234 q 265 1250 287 1250 l 287 1250 q 308 1250 324 1234 l 324 1234 l 403 1155 q 419 1139 419 1125 l 419 1125 q 419 1112 410 1103 q 401 1094 387 1094 l 387 1094 m 368 902 q 348 902 335 910 q 321 918 321 932 l 321 932 q 321 948 340 970 l 340 970 l 422 1064 q 462 1109 527 1109 l 527 1109 q 558 1109 577 1096 q 595 1083 610 1054 l 610 1054 l 649 977 q 658 959 658 945 l 658 945 q 658 924 641 913 q 624 902 602 902 l 602 902 q 585 902 575 907 q 564 912 558 925 l 558 925 l 509 1029 l 431 927 q 411 902 368 902 l 368 902"},"Ổ":{"x_min":64,"x_max":811,"ha":816,"o":"m 380 -5 q 291 -5 220 35 q 148 75 106 153 q 64 230 64 338 l 64 338 q 64 490 120 606 q 175 722 271 785 q 366 848 482 848 l 482 848 q 571 848 643 808 q 714 768 756 691 q 798 613 798 505 l 798 505 q 798 353 743 237 q 687 121 592 58 q 496 -5 380 -5 l 380 -5 m 390 113 q 468 113 528 161 q 587 209 619 295 q 651 380 651 488 l 651 488 q 651 607 601 669 q 551 730 472 730 l 472 730 q 395 730 336 683 q 277 635 244 550 q 211 464 211 355 l 211 355 q 211 236 261 175 q 311 113 390 113 l 390 113 m 673 1032 q 654 1032 647 1040 q 639 1048 639 1065 l 639 1065 q 639 1103 679 1103 l 679 1103 q 704 1103 717 1113 q 730 1123 730 1138 l 730 1138 q 730 1170 690 1170 l 690 1170 q 674 1170 656 1168 q 637 1166 633 1166 l 633 1166 q 619 1166 614 1173 q 609 1179 609 1197 l 609 1197 q 609 1215 619 1223 q 628 1231 648 1236 l 648 1236 q 664 1240 692 1240 l 692 1240 q 811 1240 811 1148 l 811 1148 q 811 1094 778 1063 q 744 1032 685 1032 l 685 1032 l 673 1032 m 368 902 q 348 902 335 910 q 321 918 321 932 l 321 932 q 321 948 340 970 l 340 970 l 422 1064 q 462 1109 527 1109 l 527 1109 q 558 1109 577 1096 q 595 1083 610 1054 l 610 1054 l 649 977 q 658 959 658 945 l 658 945 q 658 924 641 913 q 624 902 602 902 l 602 902 q 585 902 575 907 q 564 912 558 925 l 558 925 l 509 1029 l 431 927 q 411 902 368 902 l 368 902"},"Ỗ":{"x_min":64,"x_max":798,"ha":816,"o":"m 380 -5 q 291 -5 220 35 q 148 75 106 153 q 64 230 64 338 l 64 338 q 64 490 120 606 q 175 722 271 785 q 366 848 482 848 l 482 848 q 571 848 643 808 q 714 768 756 691 q 798 613 798 505 l 798 505 q 798 353 743 237 q 687 121 592 58 q 496 -5 380 -5 l 380 -5 m 390 113 q 468 113 528 161 q 587 209 619 295 q 651 380 651 488 l 651 488 q 651 607 601 669 q 551 730 472 730 l 472 730 q 395 730 336 683 q 277 635 244 550 q 211 464 211 355 l 211 355 q 211 236 261 175 q 311 113 390 113 l 390 113 m 601 1114 q 586 1114 575 1118 q 563 1122 545 1134 l 545 1134 l 454 1194 l 416 1143 q 402 1125 377 1125 l 377 1125 q 361 1125 350 1134 q 338 1142 338 1157 l 338 1157 q 338 1177 370 1222 l 370 1222 q 406 1273 452 1273 l 452 1273 q 467 1273 479 1269 q 490 1265 508 1252 l 508 1252 l 599 1193 l 637 1243 q 644 1252 655 1257 q 665 1261 677 1261 l 677 1261 q 693 1261 704 1253 q 715 1245 715 1230 l 715 1230 q 715 1219 708 1207 q 701 1194 683 1165 l 683 1165 q 650 1114 601 1114 l 601 1114 m 368 902 q 348 902 335 910 q 321 918 321 932 l 321 932 q 321 948 340 970 l 340 970 l 422 1064 q 462 1109 527 1109 l 527 1109 q 558 1109 577 1096 q 595 1083 610 1054 l 610 1054 l 649 977 q 658 959 658 945 l 658 945 q 658 924 641 913 q 624 902 602 902 l 602 902 q 585 902 575 907 q 564 912 558 925 l 558 925 l 509 1029 l 431 927 q 411 902 368 902 l 368 902"},"Ȍ":{"x_min":64,"x_max":798,"ha":816,"o":"m 380 -5 q 291 -5 220 35 q 148 75 106 153 q 64 230 64 338 l 64 338 q 64 490 120 606 q 175 722 271 785 q 366 848 482 848 l 482 848 q 571 848 643 808 q 714 768 756 691 q 798 613 798 505 l 798 505 q 798 353 743 237 q 687 121 592 58 q 496 -5 380 -5 l 380 -5 m 390 113 q 468 113 528 161 q 587 209 619 295 q 651 380 651 488 l 651 488 q 651 607 601 669 q 551 730 472 730 l 472 730 q 395 730 336 683 q 277 635 244 550 q 211 464 211 355 l 211 355 q 211 236 261 175 q 311 113 390 113 l 390 113 m 401 907 q 377 907 363 929 l 363 929 l 299 1033 q 283 1059 283 1082 l 283 1082 q 283 1109 302 1126 q 321 1143 345 1143 l 345 1143 q 363 1143 378 1133 q 392 1122 398 1101 l 398 1101 l 439 959 q 441 949 441 945 l 441 945 q 441 928 429 918 q 417 907 401 907 l 401 907 m 582 907 q 558 907 544 929 l 544 929 l 480 1033 q 464 1059 464 1082 l 464 1082 q 464 1109 483 1126 q 502 1143 526 1143 l 526 1143 q 544 1143 559 1133 q 573 1122 579 1101 l 579 1101 l 620 959 q 622 949 622 945 l 622 945 q 622 928 610 918 q 598 907 582 907 l 582 907"},"Ö":{"x_min":64,"x_max":798,"ha":816,"o":"m 380 -5 q 291 -5 220 35 q 148 75 106 153 q 64 230 64 338 l 64 338 q 64 490 120 606 q 175 722 271 785 q 366 848 482 848 l 482 848 q 571 848 643 808 q 714 768 756 691 q 798 613 798 505 l 798 505 q 798 353 743 237 q 687 121 592 58 q 496 -5 380 -5 l 380 -5 m 390 113 q 468 113 528 161 q 587 209 619 295 q 651 380 651 488 l 651 488 q 651 607 601 669 q 551 730 472 730 l 472 730 q 395 730 336 683 q 277 635 244 550 q 211 464 211 355 l 211 355 q 211 236 261 175 q 311 113 390 113 l 390 113 m 391 907 q 359 907 340 926 q 321 944 321 981 l 321 981 q 321 1022 343 1045 q 365 1068 402 1068 l 402 1068 q 434 1068 453 1050 q 472 1031 472 994 l 472 994 q 472 953 450 930 q 428 907 391 907 l 391 907 m 599 907 q 567 907 548 926 q 529 944 529 981 l 529 981 q 529 1022 551 1045 q 573 1068 610 1068 l 610 1068 q 642 1068 661 1050 q 680 1031 680 994 l 680 994 q 680 953 658 930 q 636 907 599 907 l 599 907"},"Ȫ":{"x_min":64,"x_max":798,"ha":816,"o":"m 380 -5 q 291 -5 220 35 q 148 75 106 153 q 64 230 64 338 l 64 338 q 64 490 120 606 q 175 722 271 785 q 366 848 482 848 l 482 848 q 571 848 643 808 q 714 768 756 691 q 798 613 798 505 l 798 505 q 798 353 743 237 q 687 121 592 58 q 496 -5 380 -5 l 380 -5 m 390 113 q 468 113 528 161 q 587 209 619 295 q 651 380 651 488 l 651 488 q 651 607 601 669 q 551 730 472 730 l 472 730 q 395 730 336 683 q 277 635 244 550 q 211 464 211 355 l 211 355 q 211 236 261 175 q 311 113 390 113 l 390 113 m 391 907 q 359 907 340 926 q 321 944 321 981 l 321 981 q 321 1022 343 1045 q 365 1068 402 1068 l 402 1068 q 434 1068 453 1050 q 472 1031 472 994 l 472 994 q 472 953 450 930 q 428 907 391 907 l 391 907 m 599 907 q 567 907 548 926 q 529 944 529 981 l 529 981 q 529 1022 551 1045 q 573 1068 610 1068 l 610 1068 q 642 1068 661 1050 q 680 1031 680 994 l 680 994 q 680 953 658 930 q 636 907 599 907 l 599 907 m 404 1140 q 359 1140 359 1184 l 359 1184 q 359 1209 373 1224 q 387 1238 412 1238 l 412 1238 l 635 1238 q 657 1238 669 1228 q 680 1217 680 1197 l 680 1197 q 680 1170 666 1155 q 652 1140 627 1140 l 627 1140 l 404 1140"},"Ȱ":{"x_min":64,"x_max":798,"ha":816,"o":"m 380 -5 q 291 -5 220 35 q 148 75 106 153 q 64 230 64 338 l 64 338 q 64 490 120 606 q 175 722 271 785 q 366 848 482 848 l 482 848 q 571 848 643 808 q 714 768 756 691 q 798 613 798 505 l 798 505 q 798 353 743 237 q 687 121 592 58 q 496 -5 380 -5 l 380 -5 m 390 113 q 468 113 528 161 q 587 209 619 295 q 651 380 651 488 l 651 488 q 651 607 601 669 q 551 730 472 730 l 472 730 q 395 730 336 683 q 277 635 244 550 q 211 464 211 355 l 211 355 q 211 236 261 175 q 311 113 390 113 l 390 113 m 493 907 q 451 907 429 928 q 407 948 407 983 l 407 983 q 407 1019 436 1043 q 464 1067 505 1067 l 505 1067 q 543 1067 567 1049 q 590 1030 590 996 l 590 996 q 590 955 563 931 q 536 907 493 907 l 493 907 m 405 1139 q 360 1139 360 1183 l 360 1183 q 360 1208 374 1223 q 388 1237 413 1237 l 413 1237 l 636 1237 q 658 1237 670 1227 q 681 1216 681 1196 l 681 1196 q 681 1169 667 1154 q 653 1139 628 1139 l 628 1139 l 405 1139"},"Ọ":{"x_min":64,"x_max":798,"ha":816,"o":"m 380 -5 q 291 -5 220 35 q 148 75 106 153 q 64 230 64 338 l 64 338 q 64 490 120 606 q 175 722 271 785 q 366 848 482 848 l 482 848 q 571 848 643 808 q 714 768 756 691 q 798 613 798 505 l 798 505 q 798 353 743 237 q 687 121 592 58 q 496 -5 380 -5 l 380 -5 m 390 113 q 468 113 528 161 q 587 209 619 295 q 651 380 651 488 l 651 488 q 651 607 601 669 q 551 730 472 730 l 472 730 q 395 730 336 683 q 277 635 244 550 q 211 464 211 355 l 211 355 q 211 236 261 175 q 311 113 390 113 l 390 113 m 354 -237 q 312 -237 290 -216 q 268 -196 268 -161 l 268 -161 q 268 -125 297 -101 q 325 -77 366 -77 l 366 -77 q 404 -77 428 -95 q 451 -114 451 -148 l 451 -148 q 451 -189 424 -213 q 397 -237 354 -237 l 354 -237"},"Ò":{"x_min":64,"x_max":798,"ha":816,"o":"m 380 -5 q 291 -5 220 35 q 148 75 106 153 q 64 230 64 338 l 64 338 q 64 490 120 606 q 175 722 271 785 q 366 848 482 848 l 482 848 q 571 848 643 808 q 714 768 756 691 q 798 613 798 505 l 798 505 q 798 353 743 237 q 687 121 592 58 q 496 -5 380 -5 l 380 -5 m 390 113 q 468 113 528 161 q 587 209 619 295 q 651 380 651 488 l 651 488 q 651 607 601 669 q 551 730 472 730 l 472 730 q 395 730 336 683 q 277 635 244 550 q 211 464 211 355 l 211 355 q 211 236 261 175 q 311 113 390 113 l 390 113 m 477 907 q 465 907 456 912 l 456 912 l 269 1009 q 216 1037 216 1080 l 216 1080 q 216 1106 235 1125 q 254 1143 280 1143 l 280 1143 q 304 1143 324 1126 l 324 1126 l 496 979 q 515 963 515 943 l 515 943 q 515 928 504 918 q 493 907 477 907 l 477 907"},"Ỏ":{"x_min":64,"x_max":798,"ha":816,"o":"m 380 -5 q 291 -5 220 35 q 148 75 106 153 q 64 230 64 338 l 64 338 q 64 490 120 606 q 175 722 271 785 q 366 848 482 848 l 482 848 q 571 848 643 808 q 714 768 756 691 q 798 613 798 505 l 798 505 q 798 353 743 237 q 687 121 592 58 q 496 -5 380 -5 l 380 -5 m 390 113 q 468 113 528 161 q 587 209 619 295 q 651 380 651 488 l 651 488 q 651 607 601 669 q 551 730 472 730 l 472 730 q 395 730 336 683 q 277 635 244 550 q 211 464 211 355 l 211 355 q 211 236 261 175 q 311 113 390 113 l 390 113 m 478 907 q 456 907 447 916 q 438 925 438 943 l 438 943 q 438 970 451 980 q 464 990 486 990 l 486 990 q 515 990 530 1002 q 545 1014 545 1032 l 545 1032 q 545 1049 534 1059 q 522 1069 498 1069 l 498 1069 q 480 1069 458 1067 q 436 1064 431 1064 l 431 1064 q 415 1064 409 1072 q 403 1080 403 1101 l 403 1101 q 403 1122 415 1132 q 426 1142 449 1147 l 449 1147 q 473 1152 501 1152 l 501 1152 q 641 1152 641 1043 l 641 1043 q 641 980 602 944 q 562 907 493 907 l 493 907 l 478 907"},"Ơ":{"x_min":64,"x_max":861,"ha":816,"o":"m 380 -5 q 291 -5 220 35 q 148 75 106 153 q 64 230 64 338 l 64 338 q 64 490 120 606 q 175 722 271 785 q 366 848 482 848 l 482 848 q 536 848 603 838 l 603 838 q 633 834 640 834 l 640 834 q 690 834 714 864 q 737 893 748 951 l 748 951 q 756 997 802 997 l 802 997 q 829 997 845 981 q 861 965 861 934 l 861 934 q 861 924 860 919 l 860 919 q 852 853 818 804 q 784 754 729 734 l 729 734 q 798 640 798 505 l 798 505 q 798 353 743 237 q 687 121 592 58 q 496 -5 380 -5 l 380 -5 m 390 113 q 468 113 528 161 q 587 209 619 295 q 651 380 651 488 l 651 488 q 651 607 601 669 q 551 730 472 730 l 472 730 q 395 730 336 683 q 277 635 244 550 q 211 464 211 355 l 211 355 q 211 236 261 175 q 311 113 390 113 l 390 113"},"Ớ":{"x_min":64,"x_max":861,"ha":816,"o":"m 380 -5 q 291 -5 220 35 q 148 75 106 153 q 64 230 64 338 l 64 338 q 64 490 120 606 q 175 722 271 785 q 366 848 482 848 l 482 848 q 536 848 603 838 l 603 838 q 633 834 640 834 l 640 834 q 690 834 714 864 q 737 893 748 951 l 748 951 q 756 997 802 997 l 802 997 q 829 997 845 981 q 861 965 861 934 l 861 934 q 861 924 860 919 l 860 919 q 852 853 818 804 q 784 754 729 734 l 729 734 q 798 640 798 505 l 798 505 q 798 353 743 237 q 687 121 592 58 q 496 -5 380 -5 l 380 -5 m 390 113 q 468 113 528 161 q 587 209 619 295 q 651 380 651 488 l 651 488 q 651 607 601 669 q 551 730 472 730 l 472 730 q 395 730 336 683 q 277 635 244 550 q 211 464 211 355 l 211 355 q 211 236 261 175 q 311 113 390 113 l 390 113 m 491 912 q 475 912 464 923 q 453 933 453 948 l 453 948 q 453 968 472 984 l 472 984 l 644 1131 q 664 1148 688 1148 l 688 1148 q 714 1148 733 1130 q 752 1111 752 1085 l 752 1085 q 752 1042 699 1014 l 699 1014 l 512 917 q 503 912 491 912 l 491 912"},"Ợ":{"x_min":64,"x_max":861,"ha":816,"o":"m 380 -5 q 291 -5 220 35 q 148 75 106 153 q 64 230 64 338 l 64 338 q 64 490 120 606 q 175 722 271 785 q 366 848 482 848 l 482 848 q 536 848 603 838 l 603 838 q 633 834 640 834 l 640 834 q 690 834 714 864 q 737 893 748 951 l 748 951 q 756 997 802 997 l 802 997 q 829 997 845 981 q 861 965 861 934 l 861 934 q 861 924 860 919 l 860 919 q 852 853 818 804 q 784 754 729 734 l 729 734 q 798 640 798 505 l 798 505 q 798 353 743 237 q 687 121 592 58 q 496 -5 380 -5 l 380 -5 m 390 113 q 468 113 528 161 q 587 209 619 295 q 651 380 651 488 l 651 488 q 651 607 601 669 q 551 730 472 730 l 472 730 q 395 730 336 683 q 277 635 244 550 q 211 464 211 355 l 211 355 q 211 236 261 175 q 311 113 390 113 l 390 113 m 355 -232 q 313 -232 291 -211 q 269 -191 269 -156 l 269 -156 q 269 -120 298 -96 q 326 -72 367 -72 l 367 -72 q 405 -72 429 -90 q 452 -109 452 -143 l 452 -143 q 452 -184 425 -208 q 398 -232 355 -232 l 355 -232"},"Ờ":{"x_min":64,"x_max":861,"ha":816,"o":"m 380 -5 q 291 -5 220 35 q 148 75 106 153 q 64 230 64 338 l 64 338 q 64 490 120 606 q 175 722 271 785 q 366 848 482 848 l 482 848 q 536 848 603 838 l 603 838 q 633 834 640 834 l 640 834 q 690 834 714 864 q 737 893 748 951 l 748 951 q 756 997 802 997 l 802 997 q 829 997 845 981 q 861 965 861 934 l 861 934 q 861 924 860 919 l 860 919 q 852 853 818 804 q 784 754 729 734 l 729 734 q 798 640 798 505 l 798 505 q 798 353 743 237 q 687 121 592 58 q 496 -5 380 -5 l 380 -5 m 390 113 q 468 113 528 161 q 587 209 619 295 q 651 380 651 488 l 651 488 q 651 607 601 669 q 551 730 472 730 l 472 730 q 395 730 336 683 q 277 635 244 550 q 211 464 211 355 l 211 355 q 211 236 261 175 q 311 113 390 113 l 390 113 m 478 912 q 466 912 457 917 l 457 917 l 270 1014 q 217 1042 217 1085 l 217 1085 q 217 1111 236 1130 q 255 1148 281 1148 l 281 1148 q 305 1148 325 1131 l 325 1131 l 497 984 q 516 968 516 948 l 516 948 q 516 933 505 923 q 494 912 478 912 l 478 912"},"Ở":{"x_min":64,"x_max":861,"ha":816,"o":"m 380 -5 q 291 -5 220 35 q 148 75 106 153 q 64 230 64 338 l 64 338 q 64 490 120 606 q 175 722 271 785 q 366 848 482 848 l 482 848 q 536 848 603 838 l 603 838 q 633 834 640 834 l 640 834 q 690 834 714 864 q 737 893 748 951 l 748 951 q 756 997 802 997 l 802 997 q 829 997 845 981 q 861 965 861 934 l 861 934 q 861 924 860 919 l 860 919 q 852 853 818 804 q 784 754 729 734 l 729 734 q 798 640 798 505 l 798 505 q 798 353 743 237 q 687 121 592 58 q 496 -5 380 -5 l 380 -5 m 390 113 q 468 113 528 161 q 587 209 619 295 q 651 380 651 488 l 651 488 q 651 607 601 669 q 551 730 472 730 l 472 730 q 395 730 336 683 q 277 635 244 550 q 211 464 211 355 l 211 355 q 211 236 261 175 q 311 113 390 113 l 390 113 m 479 912 q 457 912 448 921 q 439 930 439 948 l 439 948 q 439 975 452 985 q 465 995 487 995 l 487 995 q 516 995 531 1007 q 546 1019 546 1037 l 546 1037 q 546 1054 535 1064 q 523 1074 499 1074 l 499 1074 q 481 1074 459 1072 q 437 1069 432 1069 l 432 1069 q 416 1069 410 1077 q 404 1085 404 1106 l 404 1106 q 404 1127 416 1137 q 427 1147 450 1152 l 450 1152 q 474 1157 502 1157 l 502 1157 q 642 1157 642 1048 l 642 1048 q 642 985 603 949 q 563 912 494 912 l 494 912 l 479 912"},"Ỡ":{"x_min":64,"x_max":861,"ha":816,"o":"m 380 -5 q 291 -5 220 35 q 148 75 106 153 q 64 230 64 338 l 64 338 q 64 490 120 606 q 175 722 271 785 q 366 848 482 848 l 482 848 q 536 848 603 838 l 603 838 q 633 834 640 834 l 640 834 q 690 834 714 864 q 737 893 748 951 l 748 951 q 756 997 802 997 l 802 997 q 829 997 845 981 q 861 965 861 934 l 861 934 q 861 924 860 919 l 860 919 q 852 853 818 804 q 784 754 729 734 l 729 734 q 798 640 798 505 l 798 505 q 798 353 743 237 q 687 121 592 58 q 496 -5 380 -5 l 380 -5 m 390 113 q 468 113 528 161 q 587 209 619 295 q 651 380 651 488 l 651 488 q 651 607 601 669 q 551 730 472 730 l 472 730 q 395 730 336 683 q 277 635 244 550 q 211 464 211 355 l 211 355 q 211 236 261 175 q 311 113 390 113 l 390 113 m 592 912 q 576 912 562 918 q 548 923 526 938 l 526 938 l 419 1012 l 375 949 q 367 938 355 933 q 342 927 329 927 l 329 927 q 310 927 297 937 q 283 947 283 966 l 283 966 q 283 993 320 1047 l 320 1047 q 364 1111 417 1111 l 417 1111 q 434 1111 448 1106 q 461 1101 483 1085 l 483 1085 l 590 1011 l 634 1074 q 642 1085 655 1091 q 667 1096 680 1096 l 680 1096 q 699 1096 713 1086 q 726 1076 726 1057 l 726 1057 q 726 1044 718 1028 q 710 1011 689 976 l 689 976 q 669 943 644 928 q 619 912 592 912 l 592 912"},"Ő":{"x_min":64,"x_max":798,"ha":816,"o":"m 380 -5 q 291 -5 220 35 q 148 75 106 153 q 64 230 64 338 l 64 338 q 64 490 120 606 q 175 722 271 785 q 366 848 482 848 l 482 848 q 571 848 643 808 q 714 768 756 691 q 798 613 798 505 l 798 505 q 798 353 743 237 q 687 121 592 58 q 496 -5 380 -5 l 380 -5 m 390 113 q 468 113 528 161 q 587 209 619 295 q 651 380 651 488 l 651 488 q 651 607 601 669 q 551 730 472 730 l 472 730 q 395 730 336 683 q 277 635 244 550 q 211 464 211 355 l 211 355 q 211 236 261 175 q 311 113 390 113 l 390 113 m 403 907 q 387 907 375 918 q 363 928 363 945 l 363 945 q 363 949 365 959 l 365 959 l 406 1101 q 412 1122 427 1133 q 441 1143 459 1143 l 459 1143 q 483 1143 502 1126 q 521 1109 521 1082 l 521 1082 q 521 1059 505 1033 l 505 1033 l 441 929 q 427 907 403 907 l 403 907 m 584 907 q 568 907 556 918 q 544 928 544 945 l 544 945 q 544 949 546 959 l 546 959 l 587 1101 q 593 1122 608 1133 q 622 1143 640 1143 l 640 1143 q 664 1143 683 1126 q 702 1109 702 1082 l 702 1082 q 702 1059 686 1033 l 686 1033 l 622 929 q 608 907 584 907 l 584 907"},"Ȏ":{"x_min":64,"x_max":798,"ha":816,"o":"m 380 -5 q 291 -5 220 35 q 148 75 106 153 q 64 230 64 338 l 64 338 q 64 490 120 606 q 175 722 271 785 q 366 848 482 848 l 482 848 q 571 848 643 808 q 714 768 756 691 q 798 613 798 505 l 798 505 q 798 353 743 237 q 687 121 592 58 q 496 -5 380 -5 l 380 -5 m 390 113 q 468 113 528 161 q 587 209 619 295 q 651 380 651 488 l 651 488 q 651 607 601 669 q 551 730 472 730 l 472 730 q 395 730 336 683 q 277 635 244 550 q 211 464 211 355 l 211 355 q 211 236 261 175 q 311 113 390 113 l 390 113 m 341 907 q 322 907 310 917 q 298 927 298 945 l 298 945 q 298 977 324 1012 q 350 1046 399 1069 q 448 1092 513 1092 l 513 1092 q 575 1092 621 1072 q 666 1051 690 1019 q 713 986 713 952 l 713 952 q 713 931 696 919 q 679 907 654 907 l 654 907 q 634 907 623 915 q 611 922 603 940 l 603 940 q 588 972 566 984 q 544 996 505 996 l 505 996 q 466 996 442 982 q 418 967 398 937 l 398 937 q 378 907 341 907 l 341 907"},"Ō":{"x_min":64,"x_max":798,"ha":816,"o":"m 380 -5 q 291 -5 220 35 q 148 75 106 153 q 64 230 64 338 l 64 338 q 64 490 120 606 q 175 722 271 785 q 366 848 482 848 l 482 848 q 571 848 643 808 q 714 768 756 691 q 798 613 798 505 l 798 505 q 798 353 743 237 q 687 121 592 58 q 496 -5 380 -5 l 380 -5 m 390 113 q 468 113 528 161 q 587 209 619 295 q 651 380 651 488 l 651 488 q 651 607 601 669 q 551 730 472 730 l 472 730 q 395 730 336 683 q 277 635 244 550 q 211 464 211 355 l 211 355 q 211 236 261 175 q 311 113 390 113 l 390 113 m 376 907 q 331 907 331 951 l 331 951 q 331 976 345 991 q 359 1005 384 1005 l 384 1005 l 607 1005 q 629 1005 641 995 q 652 984 652 964 l 652 964 q 652 937 638 922 q 624 907 599 907 l 599 907 l 376 907"},"Ǫ":{"x_min":64,"x_max":798,"ha":816,"o":"m 485 9 q 450 -15 434 -43 q 418 -72 418 -101 l 418 -101 q 418 -130 436 -145 q 454 -160 480 -160 l 480 -160 q 506 -160 527 -153 l 527 -153 q 544 -147 554 -147 l 554 -147 q 568 -147 574 -156 q 580 -166 580 -185 l 580 -185 q 580 -206 569 -220 q 558 -235 533 -244 l 533 -244 q 521 -248 502 -251 q 482 -254 466 -254 l 466 -254 q 396 -254 354 -217 q 312 -181 312 -118 l 312 -118 q 312 -56 353 -4 l 353 -4 q 271 2 206 44 q 140 85 102 160 q 64 235 64 338 l 64 338 q 64 490 120 606 q 175 722 271 785 q 366 848 482 848 l 482 848 q 571 848 643 808 q 714 768 756 691 q 798 613 798 505 l 798 505 q 798 377 758 274 q 718 170 647 103 q 576 35 485 9 l 485 9 m 211 355 q 211 236 261 175 q 311 113 390 113 l 390 113 q 468 113 528 161 q 587 209 619 295 q 651 380 651 488 l 651 488 q 651 607 601 669 q 551 730 472 730 l 472 730 q 395 730 336 683 q 277 635 244 550 q 211 464 211 355 l 211 355"},"Ø":{"x_min":64,"x_max":798,"ha":816,"o":"m 595 830 q 687 797 743 714 q 798 630 798 505 l 798 505 q 798 353 743 237 q 687 121 592 58 q 496 -5 380 -5 l 380 -5 l 373 -5 l 352 -84 q 348 -98 335 -105 q 321 -112 303 -112 l 303 -112 q 281 -112 264 -100 q 247 -89 247 -70 l 247 -70 q 247 -65 249 -57 l 249 -57 l 268 13 q 175 45 120 129 q 64 213 64 338 l 64 338 q 64 490 120 606 q 175 722 271 785 q 366 848 482 848 l 482 848 l 489 848 l 508 921 q 512 935 526 942 q 539 949 557 949 l 557 949 q 579 949 597 938 q 614 926 614 906 l 614 906 q 614 901 612 893 l 612 893 l 595 830 m 211 355 q 211 274 235 219 q 259 164 301 137 l 301 137 l 387 455 l 458 730 q 385 726 329 677 q 273 627 242 544 q 211 460 211 355 l 211 355 m 403 113 q 478 117 534 167 q 590 216 621 300 q 651 383 651 488 l 651 488 q 651 569 627 624 q 603 679 561 706 l 561 706 l 491 451 l 403 113"},"Ǿ":{"x_min":64,"x_max":798,"ha":816,"o":"m 595 830 q 687 797 743 714 q 798 630 798 505 l 798 505 q 798 353 743 237 q 687 121 592 58 q 496 -5 380 -5 l 380 -5 l 373 -5 l 352 -84 q 348 -98 335 -105 q 321 -112 303 -112 l 303 -112 q 281 -112 264 -100 q 247 -89 247 -70 l 247 -70 q 247 -65 249 -57 l 249 -57 l 268 13 q 175 45 120 129 q 64 213 64 338 l 64 338 q 64 490 120 606 q 175 722 271 785 q 366 848 482 848 l 482 848 l 489 848 l 508 921 q 512 935 526 942 q 539 949 557 949 l 557 949 q 579 949 597 938 q 614 926 614 906 l 614 906 q 614 901 612 893 l 612 893 l 595 830 m 211 355 q 211 274 235 219 q 259 164 301 137 l 301 137 l 387 455 l 458 730 q 385 726 329 677 q 273 627 242 544 q 211 460 211 355 l 211 355 m 403 113 q 478 117 534 167 q 590 216 621 300 q 651 383 651 488 l 651 488 q 651 569 627 624 q 603 679 561 706 l 561 706 l 491 451 l 403 113 m 399 912 q 383 912 372 923 q 361 933 361 948 l 361 948 q 361 968 380 984 l 380 984 l 552 1131 q 572 1148 596 1148 l 596 1148 q 622 1148 641 1130 q 660 1111 660 1085 l 660 1085 q 660 1042 607 1014 l 607 1014 l 420 917 q 411 912 399 912 l 399 912"},"Õ":{"x_min":64,"x_max":798,"ha":816,"o":"m 380 -5 q 291 -5 220 35 q 148 75 106 153 q 64 230 64 338 l 64 338 q 64 490 120 606 q 175 722 271 785 q 366 848 482 848 l 482 848 q 571 848 643 808 q 714 768 756 691 q 798 613 798 505 l 798 505 q 798 353 743 237 q 687 121 592 58 q 496 -5 380 -5 l 380 -5 m 390 113 q 468 113 528 161 q 587 209 619 295 q 651 380 651 488 l 651 488 q 651 607 601 669 q 551 730 472 730 l 472 730 q 395 730 336 683 q 277 635 244 550 q 211 464 211 355 l 211 355 q 211 236 261 175 q 311 113 390 113 l 390 113 m 591 907 q 575 907 561 913 q 547 918 525 933 l 525 933 l 418 1007 l 374 944 q 366 933 354 928 q 341 922 328 922 l 328 922 q 309 922 296 932 q 282 942 282 961 l 282 961 q 282 988 319 1042 l 319 1042 q 363 1106 416 1106 l 416 1106 q 433 1106 447 1101 q 460 1096 482 1080 l 482 1080 l 589 1006 l 633 1069 q 641 1080 654 1086 q 666 1091 679 1091 l 679 1091 q 698 1091 712 1081 q 725 1071 725 1052 l 725 1052 q 725 1039 717 1023 q 709 1006 688 971 l 688 971 q 668 938 643 923 q 618 907 591 907 l 591 907"},"Ȭ":{"x_min":64,"x_max":798,"ha":816,"o":"m 380 -5 q 291 -5 220 35 q 148 75 106 153 q 64 230 64 338 l 64 338 q 64 490 120 606 q 175 722 271 785 q 366 848 482 848 l 482 848 q 571 848 643 808 q 714 768 756 691 q 798 613 798 505 l 798 505 q 798 353 743 237 q 687 121 592 58 q 496 -5 380 -5 l 380 -5 m 390 113 q 468 113 528 161 q 587 209 619 295 q 651 380 651 488 l 651 488 q 651 607 601 669 q 551 730 472 730 l 472 730 q 395 730 336 683 q 277 635 244 550 q 211 464 211 355 l 211 355 q 211 236 261 175 q 311 113 390 113 l 390 113 m 591 907 q 575 907 561 913 q 547 918 525 933 l 525 933 l 418 1007 l 374 944 q 366 933 354 928 q 341 922 328 922 l 328 922 q 309 922 296 932 q 282 942 282 961 l 282 961 q 282 988 319 1042 l 319 1042 q 363 1106 416 1106 l 416 1106 q 433 1106 447 1101 q 460 1096 482 1080 l 482 1080 l 589 1006 l 633 1069 q 641 1080 654 1086 q 666 1091 679 1091 l 679 1091 q 698 1091 712 1081 q 725 1071 725 1052 l 725 1052 q 725 1039 717 1023 q 709 1006 688 971 l 688 971 q 668 938 643 923 q 618 907 591 907 l 591 907 m 410 1178 q 365 1178 365 1222 l 365 1222 q 365 1247 379 1262 q 393 1276 418 1276 l 418 1276 l 641 1276 q 663 1276 675 1266 q 686 1255 686 1235 l 686 1235 q 686 1208 672 1193 q 658 1178 633 1178 l 633 1178 l 410 1178"},"Œ":{"x_min":64,"x_max":1250,"ha":1124,"o":"m 1200 182 q 1209 187 1220 187 l 1220 187 q 1234 187 1242 176 q 1250 164 1250 146 l 1250 146 q 1250 123 1241 105 q 1231 86 1208 69 l 1208 69 q 1164 37 1090 16 q 1016 -5 948 -5 l 948 -5 q 836 -5 767 35 q 698 75 669 144 l 669 144 q 615 73 541 34 q 466 -5 380 -5 l 380 -5 q 291 -5 220 35 q 148 75 106 153 q 64 230 64 338 l 64 338 q 64 490 120 606 q 175 722 271 785 q 366 848 482 848 l 482 848 q 565 848 631 812 q 696 776 735 707 l 735 707 l 740 727 q 755 782 790 810 q 824 838 875 840 l 875 840 l 927 843 q 1053 849 1125 849 l 1125 849 q 1161 849 1175 837 q 1189 824 1189 795 l 1189 795 q 1189 764 1171 742 q 1153 720 1117 720 l 1117 720 q 1050 720 980 717 q 909 714 877 710 l 877 710 q 853 638 819 483 l 819 483 q 865 485 885 485 l 885 485 q 992 490 1066 490 l 1066 490 q 1096 490 1108 478 q 1119 465 1119 441 l 1119 441 q 1119 410 1102 390 q 1084 369 1053 368 l 1053 368 l 940 365 q 888 363 795 361 l 795 361 q 784 312 784 274 l 784 274 q 784 115 971 115 l 971 115 q 1024 115 1079 132 q 1134 148 1200 182 l 1200 182 m 390 113 q 468 113 528 161 q 587 209 619 295 q 651 380 651 488 l 651 488 q 651 607 601 669 q 551 730 472 730 l 472 730 q 396 730 337 682 q 277 633 244 548 q 211 463 211 355 l 211 355 q 211 236 261 175 q 311 113 390 113 l 390 113"},"P":{"x_min":46,"x_max":823,"ha":805,"o":"m 823 596 q 823 511 779 440 q 735 369 651 324 q 567 279 451 271 l 451 271 l 408 30 q 383 -109 272 -109 l 272 -109 q 211 -109 160 -73 q 108 -37 77 37 q 46 111 46 219 l 46 219 q 46 422 112 564 q 177 705 288 776 q 398 846 531 846 l 531 846 q 625 846 691 813 q 756 780 790 724 q 823 667 823 596 l 823 596 m 469 374 q 674 400 674 587 l 674 587 q 674 653 631 695 q 587 736 496 736 l 496 736 q 393 736 317 671 q 240 606 199 491 q 157 375 157 227 l 157 227 q 157 165 170 117 q 182 69 202 43 q 221 16 239 16 l 239 16 q 264 16 277 85 l 277 85 l 310 274 q 271 280 276 279 l 276 279 q 246 284 237 298 q 228 311 228 332 l 228 332 q 228 354 241 367 q 253 380 275 380 l 275 380 q 285 380 290 379 l 290 379 q 314 375 327 374 l 327 374 q 340 452 364 583 l 364 583 q 370 617 392 632 q 413 646 442 646 l 442 646 q 475 646 490 634 q 504 621 504 594 l 504 594 q 504 578 502 568 l 502 568 l 469 374"},"Þ":{"x_min":42,"x_max":781,"ha":776,"o":"m 781 506 q 781 427 738 360 q 695 293 611 251 q 527 209 407 205 l 407 205 q 393 126 374 30 l 374 30 q 360 -41 328 -75 q 296 -109 240 -109 l 240 -109 q 185 -109 140 -70 q 94 -31 68 40 q 42 110 42 202 l 42 202 q 42 335 79 441 q 115 547 184 617 q 253 687 347 715 l 347 715 l 371 885 q 374 912 397 925 q 420 938 448 938 l 448 938 q 482 938 497 927 q 511 915 511 891 l 511 891 q 511 880 510 874 l 510 874 l 491 733 q 585 731 650 701 q 715 671 748 621 q 781 570 781 506 l 781 506 m 425 308 q 537 318 584 369 q 631 419 631 487 l 631 487 q 631 548 594 585 q 556 621 475 625 l 475 625 q 451 458 425 308 l 425 308 m 207 16 q 232 16 245 85 l 245 85 q 261 171 268 213 l 268 213 q 262 213 254 215 l 254 215 q 224 220 216 233 q 208 245 208 266 l 208 266 q 208 290 220 303 q 231 316 253 316 l 253 316 q 263 316 268 315 l 268 315 l 285 312 q 311 469 330 599 l 330 599 q 243 559 198 459 q 153 358 153 207 l 153 207 q 153 138 168 77 q 183 16 207 16 l 207 16"},"Q":{"x_min":64,"x_max":881,"ha":816,"o":"m 860 -96 q 870 -96 876 -106 q 881 -117 881 -134 l 881 -134 q 881 -166 864 -197 l 864 -197 q 830 -259 775 -292 q 719 -326 661 -326 l 661 -326 q 602 -326 562 -307 q 522 -289 494 -252 q 466 -216 440 -156 l 440 -156 q 413 -94 396 -63 q 378 -33 359 -19 q 340 -5 310 1 l 310 1 q 199 23 132 111 q 64 199 64 338 l 64 338 q 64 490 120 606 q 175 722 271 785 q 366 848 482 848 l 482 848 q 571 848 643 808 q 714 768 756 691 q 798 613 798 505 l 798 505 q 798 379 760 278 q 722 177 655 110 q 588 43 501 15 l 501 15 q 526 1 545 -26 q 563 -53 584 -104 l 584 -104 q 607 -160 634 -184 q 660 -208 699 -208 l 699 -208 q 732 -208 763 -185 q 794 -163 833 -112 l 833 -112 q 845 -96 860 -96 l 860 -96 m 390 113 q 468 113 528 161 q 587 209 619 295 q 651 380 651 488 l 651 488 q 651 607 601 669 q 551 730 472 730 l 472 730 q 396 730 337 682 q 277 633 244 548 q 211 463 211 355 l 211 355 q 211 236 261 175 q 311 113 390 113 l 390 113"},"R":{"x_min":55,"x_max":1009,"ha":880,"o":"m 981 223 q 994 223 1002 211 q 1009 199 1009 178 l 1009 178 q 1009 139 990 116 l 990 116 q 942 58 893 27 q 844 -5 777 -5 l 777 -5 q 712 -5 667 30 q 621 65 580 150 l 580 150 q 547 218 528 251 q 509 283 491 297 q 472 311 445 314 l 445 314 q 441 293 422 182 l 422 182 q 414 132 412 121 l 412 121 q 402 60 372 28 q 342 -5 281 -5 l 281 -5 q 214 -5 163 35 q 111 74 83 145 q 55 215 55 305 l 55 305 q 55 473 114 595 q 172 717 278 782 q 383 846 521 846 l 521 846 q 617 846 682 817 q 747 788 779 737 q 810 686 810 622 l 810 622 q 810 566 784 513 q 757 459 704 418 q 651 377 575 357 l 575 357 q 623 344 649 315 q 675 286 701 230 l 701 230 q 729 170 757 142 q 784 114 820 114 l 820 114 q 852 114 881 136 q 910 157 954 209 l 954 209 q 966 223 981 223 l 981 223 m 280 165 l 307 315 q 273 315 261 331 q 248 347 248 367 l 248 367 q 248 391 264 405 q 279 419 299 419 l 299 419 l 324 419 q 340 517 354 588 l 354 588 q 367 653 438 653 l 438 653 q 495 653 495 602 l 495 602 q 495 591 494 585 l 494 585 l 464 419 q 518 422 563 445 q 607 468 634 509 q 660 550 660 602 l 660 602 q 660 665 617 701 q 574 737 491 737 l 491 737 q 393 737 320 689 q 246 640 205 545 q 164 449 164 312 l 164 312 q 164 248 177 202 q 190 156 209 133 q 228 110 245 110 l 245 110 q 258 110 267 123 q 275 136 280 165 l 280 165"},"Ŕ":{"x_min":55,"x_max":1009,"ha":880,"o":"m 981 223 q 994 223 1002 211 q 1009 199 1009 178 l 1009 178 q 1009 139 990 116 l 990 116 q 942 58 893 27 q 844 -5 777 -5 l 777 -5 q 712 -5 667 30 q 621 65 580 150 l 580 150 q 547 218 528 251 q 509 283 491 297 q 472 311 445 314 l 445 314 q 441 293 422 182 l 422 182 q 414 132 412 121 l 412 121 q 402 60 372 28 q 342 -5 281 -5 l 281 -5 q 214 -5 163 35 q 111 74 83 145 q 55 215 55 305 l 55 305 q 55 473 114 595 q 172 717 278 782 q 383 846 521 846 l 521 846 q 617 846 682 817 q 747 788 779 737 q 810 686 810 622 l 810 622 q 810 566 784 513 q 757 459 704 418 q 651 377 575 357 l 575 357 q 623 344 649 315 q 675 286 701 230 l 701 230 q 729 170 757 142 q 784 114 820 114 l 820 114 q 852 114 881 136 q 910 157 954 209 l 954 209 q 966 223 981 223 l 981 223 m 280 165 l 307 315 q 273 315 261 331 q 248 347 248 367 l 248 367 q 248 391 264 405 q 279 419 299 419 l 299 419 l 324 419 q 340 517 354 588 l 354 588 q 367 653 438 653 l 438 653 q 495 653 495 602 l 495 602 q 495 591 494 585 l 494 585 l 464 419 q 518 422 563 445 q 607 468 634 509 q 660 550 660 602 l 660 602 q 660 665 617 701 q 574 737 491 737 l 491 737 q 393 737 320 689 q 246 640 205 545 q 164 449 164 312 l 164 312 q 164 248 177 202 q 190 156 209 133 q 228 110 245 110 l 245 110 q 258 110 267 123 q 275 136 280 165 l 280 165 m 520 912 q 504 912 493 923 q 482 933 482 948 l 482 948 q 482 968 501 984 l 501 984 l 673 1131 q 693 1148 717 1148 l 717 1148 q 743 1148 762 1130 q 781 1111 781 1085 l 781 1085 q 781 1042 728 1014 l 728 1014 l 541 917 q 532 912 520 912 l 520 912"},"Ř":{"x_min":55,"x_max":1009,"ha":880,"o":"m 981 223 q 994 223 1002 211 q 1009 199 1009 178 l 1009 178 q 1009 139 990 116 l 990 116 q 942 58 893 27 q 844 -5 777 -5 l 777 -5 q 712 -5 667 30 q 621 65 580 150 l 580 150 q 547 218 528 251 q 509 283 491 297 q 472 311 445 314 l 445 314 q 441 293 422 182 l 422 182 q 414 132 412 121 l 412 121 q 402 60 372 28 q 342 -5 281 -5 l 281 -5 q 214 -5 163 35 q 111 74 83 145 q 55 215 55 305 l 55 305 q 55 473 114 595 q 172 717 278 782 q 383 846 521 846 l 521 846 q 617 846 682 817 q 747 788 779 737 q 810 686 810 622 l 810 622 q 810 566 784 513 q 757 459 704 418 q 651 377 575 357 l 575 357 q 623 344 649 315 q 675 286 701 230 l 701 230 q 729 170 757 142 q 784 114 820 114 l 820 114 q 852 114 881 136 q 910 157 954 209 l 954 209 q 966 223 981 223 l 981 223 m 280 165 l 307 315 q 273 315 261 331 q 248 347 248 367 l 248 367 q 248 391 264 405 q 279 419 299 419 l 299 419 l 324 419 q 340 517 354 588 l 354 588 q 367 653 438 653 l 438 653 q 495 653 495 602 l 495 602 q 495 591 494 585 l 494 585 l 464 419 q 518 422 563 445 q 607 468 634 509 q 660 550 660 602 l 660 602 q 660 665 617 701 q 574 737 491 737 l 491 737 q 393 737 320 689 q 246 640 205 545 q 164 449 164 312 l 164 312 q 164 248 177 202 q 190 156 209 133 q 228 110 245 110 l 245 110 q 258 110 267 123 q 275 136 280 165 l 280 165 m 521 912 q 493 912 475 928 q 457 944 438 981 l 438 981 l 388 1080 q 378 1100 378 1117 l 378 1117 q 378 1138 392 1150 q 406 1161 427 1161 l 427 1161 q 448 1161 461 1153 q 474 1145 481 1125 l 481 1125 l 529 999 l 607 1122 q 621 1144 635 1153 q 649 1161 672 1161 l 672 1161 q 691 1161 704 1152 q 716 1142 716 1125 l 716 1125 q 716 1106 699 1083 l 699 1083 l 615 968 q 594 939 572 926 q 550 912 521 912 l 521 912"},"Ŗ":{"x_min":55,"x_max":1009,"ha":880,"o":"m 981 223 q 994 223 1002 211 q 1009 199 1009 178 l 1009 178 q 1009 139 990 116 l 990 116 q 942 58 893 27 q 844 -5 777 -5 l 777 -5 q 712 -5 667 30 q 621 65 580 150 l 580 150 q 547 218 528 251 q 509 283 491 297 q 472 311 445 314 l 445 314 q 441 293 422 182 l 422 182 q 414 132 412 121 l 412 121 q 402 60 372 28 q 342 -5 281 -5 l 281 -5 q 214 -5 163 35 q 111 74 83 145 q 55 215 55 305 l 55 305 q 55 473 114 595 q 172 717 278 782 q 383 846 521 846 l 521 846 q 617 846 682 817 q 747 788 779 737 q 810 686 810 622 l 810 622 q 810 566 784 513 q 757 459 704 418 q 651 377 575 357 l 575 357 q 623 344 649 315 q 675 286 701 230 l 701 230 q 729 170 757 142 q 784 114 820 114 l 820 114 q 852 114 881 136 q 910 157 954 209 l 954 209 q 966 223 981 223 l 981 223 m 280 165 l 307 315 q 273 315 261 331 q 248 347 248 367 l 248 367 q 248 391 264 405 q 279 419 299 419 l 299 419 l 324 419 q 340 517 354 588 l 354 588 q 367 653 438 653 l 438 653 q 495 653 495 602 l 495 602 q 495 591 494 585 l 494 585 l 464 419 q 518 422 563 445 q 607 468 634 509 q 660 550 660 602 l 660 602 q 660 665 617 701 q 574 737 491 737 l 491 737 q 393 737 320 689 q 246 640 205 545 q 164 449 164 312 l 164 312 q 164 248 177 202 q 190 156 209 133 q 228 110 245 110 l 245 110 q 258 110 267 123 q 275 136 280 165 l 280 165 m 468 -276 q 450 -276 437 -265 q 424 -254 425 -235 l 425 -235 l 428 -133 q 429 -102 447 -87 q 464 -72 488 -72 l 488 -72 q 513 -72 532 -86 q 550 -101 550 -128 l 550 -128 q 550 -142 544 -158 l 544 -158 l 515 -243 q 510 -259 497 -267 q 483 -276 468 -276 l 468 -276"},"Ȑ":{"x_min":55,"x_max":1009,"ha":880,"o":"m 981 223 q 994 223 1002 211 q 1009 199 1009 178 l 1009 178 q 1009 139 990 116 l 990 116 q 942 58 893 27 q 844 -5 777 -5 l 777 -5 q 712 -5 667 30 q 621 65 580 150 l 580 150 q 547 218 528 251 q 509 283 491 297 q 472 311 445 314 l 445 314 q 441 293 422 182 l 422 182 q 414 132 412 121 l 412 121 q 402 60 372 28 q 342 -5 281 -5 l 281 -5 q 214 -5 163 35 q 111 74 83 145 q 55 215 55 305 l 55 305 q 55 473 114 595 q 172 717 278 782 q 383 846 521 846 l 521 846 q 617 846 682 817 q 747 788 779 737 q 810 686 810 622 l 810 622 q 810 566 784 513 q 757 459 704 418 q 651 377 575 357 l 575 357 q 623 344 649 315 q 675 286 701 230 l 701 230 q 729 170 757 142 q 784 114 820 114 l 820 114 q 852 114 881 136 q 910 157 954 209 l 954 209 q 966 223 981 223 l 981 223 m 280 165 l 307 315 q 273 315 261 331 q 248 347 248 367 l 248 367 q 248 391 264 405 q 279 419 299 419 l 299 419 l 324 419 q 340 517 354 588 l 354 588 q 367 653 438 653 l 438 653 q 495 653 495 602 l 495 602 q 495 591 494 585 l 494 585 l 464 419 q 518 422 563 445 q 607 468 634 509 q 660 550 660 602 l 660 602 q 660 665 617 701 q 574 737 491 737 l 491 737 q 393 737 320 689 q 246 640 205 545 q 164 449 164 312 l 164 312 q 164 248 177 202 q 190 156 209 133 q 228 110 245 110 l 245 110 q 258 110 267 123 q 275 136 280 165 l 280 165 m 431 912 q 407 912 393 934 l 393 934 l 329 1038 q 313 1064 313 1087 l 313 1087 q 313 1114 332 1131 q 351 1148 375 1148 l 375 1148 q 393 1148 408 1138 q 422 1127 428 1106 l 428 1106 l 469 964 q 471 954 471 950 l 471 950 q 471 933 459 923 q 447 912 431 912 l 431 912 m 612 912 q 588 912 574 934 l 574 934 l 510 1038 q 494 1064 494 1087 l 494 1087 q 494 1114 513 1131 q 532 1148 556 1148 l 556 1148 q 574 1148 589 1138 q 603 1127 609 1106 l 609 1106 l 650 964 q 652 954 652 950 l 652 950 q 652 933 640 923 q 628 912 612 912 l 612 912"},"Ȓ":{"x_min":55,"x_max":1009,"ha":880,"o":"m 981 223 q 994 223 1002 211 q 1009 199 1009 178 l 1009 178 q 1009 139 990 116 l 990 116 q 942 58 893 27 q 844 -5 777 -5 l 777 -5 q 712 -5 667 30 q 621 65 580 150 l 580 150 q 547 218 528 251 q 509 283 491 297 q 472 311 445 314 l 445 314 q 441 293 422 182 l 422 182 q 414 132 412 121 l 412 121 q 402 60 372 28 q 342 -5 281 -5 l 281 -5 q 214 -5 163 35 q 111 74 83 145 q 55 215 55 305 l 55 305 q 55 473 114 595 q 172 717 278 782 q 383 846 521 846 l 521 846 q 617 846 682 817 q 747 788 779 737 q 810 686 810 622 l 810 622 q 810 566 784 513 q 757 459 704 418 q 651 377 575 357 l 575 357 q 623 344 649 315 q 675 286 701 230 l 701 230 q 729 170 757 142 q 784 114 820 114 l 820 114 q 852 114 881 136 q 910 157 954 209 l 954 209 q 966 223 981 223 l 981 223 m 280 165 l 307 315 q 273 315 261 331 q 248 347 248 367 l 248 367 q 248 391 264 405 q 279 419 299 419 l 299 419 l 324 419 q 340 517 354 588 l 354 588 q 367 653 438 653 l 438 653 q 495 653 495 602 l 495 602 q 495 591 494 585 l 494 585 l 464 419 q 518 422 563 445 q 607 468 634 509 q 660 550 660 602 l 660 602 q 660 665 617 701 q 574 737 491 737 l 491 737 q 393 737 320 689 q 246 640 205 545 q 164 449 164 312 l 164 312 q 164 248 177 202 q 190 156 209 133 q 228 110 245 110 l 245 110 q 258 110 267 123 q 275 136 280 165 l 280 165 m 371 912 q 352 912 340 922 q 328 932 328 950 l 328 950 q 328 982 354 1017 q 380 1051 429 1074 q 478 1097 543 1097 l 543 1097 q 605 1097 651 1077 q 696 1056 720 1024 q 743 991 743 957 l 743 957 q 743 936 726 924 q 709 912 684 912 l 684 912 q 664 912 653 920 q 641 927 633 945 l 633 945 q 618 977 596 989 q 574 1001 535 1001 l 535 1001 q 496 1001 472 987 q 448 972 428 942 l 428 942 q 408 912 371 912 l 371 912"},"S":{"x_min":34,"x_max":693,"ha":693,"o":"m 327 -8 q 194 -8 114 43 q 34 93 34 197 l 34 197 q 34 252 53 281 q 72 310 109 310 l 109 310 q 136 310 153 296 q 170 282 170 260 l 170 260 q 170 240 167 225 l 167 225 q 167 221 166 211 q 164 201 164 190 l 164 190 q 164 145 210 123 q 255 101 337 101 l 337 101 q 422 101 470 132 q 518 162 518 217 l 518 217 q 518 251 496 276 q 474 300 441 317 q 408 333 348 357 l 348 357 q 271 387 223 414 q 174 441 140 488 q 105 534 105 603 l 105 603 q 105 675 144 731 q 182 787 255 818 q 327 849 425 849 l 425 849 q 498 849 559 828 q 620 806 657 762 q 693 718 693 654 l 693 654 q 693 591 674 559 q 655 527 618 527 l 618 527 q 592 527 575 543 q 557 559 557 581 l 557 581 q 557 600 560 616 l 560 616 q 563 646 563 654 l 563 654 q 563 696 522 718 q 481 740 420 740 l 420 740 q 334 740 289 709 q 243 677 243 620 l 243 620 q 243 582 267 555 q 290 528 325 510 q 360 492 423 467 l 423 467 q 499 436 545 411 q 591 386 624 343 q 656 300 656 237 l 656 237 q 656 119 567 56 q 477 -8 327 -8 l 327 -8"},"Ś":{"x_min":34,"x_max":694,"ha":693,"o":"m 327 -8 q 194 -8 114 43 q 34 93 34 197 l 34 197 q 34 252 53 281 q 72 310 109 310 l 109 310 q 136 310 153 296 q 170 282 170 260 l 170 260 q 170 240 167 225 l 167 225 q 167 221 166 211 q 164 201 164 190 l 164 190 q 164 145 210 123 q 255 101 337 101 l 337 101 q 422 101 470 132 q 518 162 518 217 l 518 217 q 518 251 496 276 q 474 300 441 317 q 408 333 348 357 l 348 357 q 271 387 223 414 q 174 441 140 488 q 105 534 105 603 l 105 603 q 105 675 144 731 q 182 787 255 818 q 327 849 425 849 l 425 849 q 498 849 559 828 q 620 806 657 762 q 693 718 693 654 l 693 654 q 693 591 674 559 q 655 527 618 527 l 618 527 q 592 527 575 543 q 557 559 557 581 l 557 581 q 557 600 560 616 l 560 616 q 563 646 563 654 l 563 654 q 563 696 522 718 q 481 740 420 740 l 420 740 q 334 740 289 709 q 243 677 243 620 l 243 620 q 243 582 267 555 q 290 528 325 510 q 360 492 423 467 l 423 467 q 499 436 545 411 q 591 386 624 343 q 656 300 656 237 l 656 237 q 656 119 567 56 q 477 -8 327 -8 l 327 -8 m 433 912 q 417 912 406 923 q 395 933 395 948 l 395 948 q 395 968 414 984 l 414 984 l 586 1131 q 606 1148 630 1148 l 630 1148 q 656 1148 675 1130 q 694 1111 694 1085 l 694 1085 q 694 1042 641 1014 l 641 1014 l 454 917 q 445 912 433 912 l 433 912"},"Š":{"x_min":34,"x_max":693,"ha":693,"o":"m 327 -8 q 194 -8 114 43 q 34 93 34 197 l 34 197 q 34 252 53 281 q 72 310 109 310 l 109 310 q 136 310 153 296 q 170 282 170 260 l 170 260 q 170 240 167 225 l 167 225 q 167 221 166 211 q 164 201 164 190 l 164 190 q 164 145 210 123 q 255 101 337 101 l 337 101 q 422 101 470 132 q 518 162 518 217 l 518 217 q 518 251 496 276 q 474 300 441 317 q 408 333 348 357 l 348 357 q 271 387 223 414 q 174 441 140 488 q 105 534 105 603 l 105 603 q 105 675 144 731 q 182 787 255 818 q 327 849 425 849 l 425 849 q 498 849 559 828 q 620 806 657 762 q 693 718 693 654 l 693 654 q 693 591 674 559 q 655 527 618 527 l 618 527 q 592 527 575 543 q 557 559 557 581 l 557 581 q 557 600 560 616 l 560 616 q 563 646 563 654 l 563 654 q 563 696 522 718 q 481 740 420 740 l 420 740 q 334 740 289 709 q 243 677 243 620 l 243 620 q 243 582 267 555 q 290 528 325 510 q 360 492 423 467 l 423 467 q 499 436 545 411 q 591 386 624 343 q 656 300 656 237 l 656 237 q 656 119 567 56 q 477 -8 327 -8 l 327 -8 m 434 912 q 406 912 388 928 q 370 944 351 981 l 351 981 l 301 1080 q 291 1100 291 1117 l 291 1117 q 291 1138 305 1150 q 319 1161 340 1161 l 340 1161 q 361 1161 374 1153 q 387 1145 394 1125 l 394 1125 l 442 999 l 520 1122 q 534 1144 548 1153 q 562 1161 585 1161 l 585 1161 q 604 1161 617 1152 q 629 1142 629 1125 l 629 1125 q 629 1106 612 1083 l 612 1083 l 528 968 q 507 939 485 926 q 463 912 434 912 l 434 912"},"Ş":{"x_min":34,"x_max":693,"ha":693,"o":"m 618 527 q 592 527 575 543 q 557 559 557 581 l 557 581 q 557 600 560 616 l 560 616 q 563 646 563 654 l 563 654 q 563 696 522 718 q 481 740 420 740 l 420 740 q 334 740 289 709 q 243 677 243 620 l 243 620 q 243 582 267 555 q 290 528 325 510 q 360 492 423 467 l 423 467 q 499 436 545 411 q 591 386 624 343 q 656 300 656 237 l 656 237 q 656 137 590 76 q 524 14 409 -3 l 409 -3 q 441 -33 441 -86 l 441 -86 q 441 -161 390 -207 q 338 -254 250 -254 l 250 -254 q 212 -254 188 -249 l 188 -249 q 168 -245 159 -234 q 149 -223 149 -202 l 149 -202 q 149 -178 159 -167 q 169 -156 189 -156 l 189 -156 q 197 -156 202 -157 l 202 -157 q 229 -161 255 -161 l 255 -161 q 295 -161 318 -144 q 340 -128 340 -94 l 340 -94 q 340 -69 319 -54 q 297 -40 260 -40 l 260 -40 q 234 -40 220 -33 q 206 -26 206 -9 l 206 -9 q 206 -3 207 0 l 207 0 l 208 4 q 126 23 80 71 q 34 119 34 197 l 34 197 q 34 252 53 281 q 72 310 109 310 l 109 310 q 136 310 153 296 q 170 282 170 260 l 170 260 q 170 240 167 225 l 167 225 q 167 221 166 211 q 164 201 164 190 l 164 190 q 164 145 210 123 q 255 101 337 101 l 337 101 q 422 101 470 132 q 518 162 518 217 l 518 217 q 518 251 496 276 q 474 300 441 317 q 408 333 348 357 l 348 357 q 271 387 223 414 q 174 441 140 488 q 105 534 105 603 l 105 603 q 105 675 144 731 q 182 787 255 818 q 327 849 425 849 l 425 849 q 498 849 559 828 q 620 806 657 762 q 693 718 693 654 l 693 654 q 693 591 674 559 q 655 527 618 527 l 618 527"}}}
